<svg xmlns="http://www.w3.org/2000/svg" width="159" height="159" viewBox="0 0 159 159" fill="none">
  <mask id="mask0_65_243" style="mask-type:alpha" maskUnits="userSpaceOnUse" x="0" y="0" width="159" height="159">
    <rect width="158.56" height="158.56" fill="#D9D9D9"/>
  </mask>
  <g mask="url(#mask0_65_243)">
    <path d="M57.1064 101.776C50.4119 104.167 44.3159 107.394 38.8236 111.46C35.374 107.243 32.66 102.5 30.6821 97.2255C28.5843 91.6314 27.5317 85.6524 27.5317 79.28C27.5317 64.9264 32.5643 52.7379 42.6511 42.6511C52.738 32.5643 64.9264 27.5317 79.28 27.5317C93.6337 27.5317 105.822 32.5643 115.909 42.6511C125.996 52.7379 131.028 64.9264 131.028 79.28C131.028 85.6524 129.976 91.6314 127.878 97.2255C125.9 102.5 123.186 107.243 119.736 111.46C114.244 107.394 108.148 104.167 101.454 101.776C94.3937 99.2542 87.0003 97.995 79.28 97.995C71.5598 97.995 64.1664 99.2542 57.1064 101.776ZM62.0646 79.9788C66.7382 84.6524 72.5003 86.9917 79.28 86.9917C86.0598 86.9917 91.8219 84.6524 96.4955 79.9788C101.169 75.3052 103.508 69.5431 103.508 62.7633C103.508 55.9836 101.169 50.2215 96.4955 45.5479C91.8219 40.8743 86.0598 38.535 79.28 38.535C72.5003 38.535 66.7382 40.8743 62.0646 45.5479C57.391 50.2215 55.0517 55.9836 55.0517 62.7633C55.0517 69.5431 57.391 75.3052 62.0646 79.9788ZM53.0763 141.158C61.2587 144.689 69.997 146.452 79.28 146.452C88.5631 146.452 97.3014 144.689 105.484 141.158C113.645 137.637 120.755 132.852 126.804 126.804C132.852 120.755 137.637 113.645 141.159 105.484C144.689 97.3014 146.452 88.563 146.452 79.28C146.452 69.997 144.689 61.2586 141.159 53.0762C137.637 44.9152 132.852 37.8053 126.804 31.7565C120.755 25.7077 113.645 20.923 105.484 17.4015C97.3014 13.8707 88.5631 12.1083 79.28 12.1083C69.997 12.1083 61.2587 13.8707 53.0763 17.4015C44.9153 20.923 37.8053 25.7077 31.7565 31.7565C25.7077 37.8053 20.9231 44.9152 17.4016 53.0762C13.8708 61.2586 12.1084 69.997 12.1084 79.28C12.1084 88.563 13.8708 97.3014 17.4016 105.484C20.9231 113.645 25.7077 120.755 31.7565 126.804C37.8053 132.852 44.9153 137.637 53.0763 141.158Z" fill="url(#paint0_linear_65_243)" stroke="url(#paint1_linear_65_243)" stroke-width="2.21"/>
  </g>
  <defs>
    <linearGradient id="paint0_linear_65_243" x1="21.914" y1="35.2396" x2="86.6112" y2="143.778" gradientUnits="userSpaceOnUse">
      <stop stop-color="white" stop-opacity="0.2"/>
      <stop offset="0.445491" stop-color="white" stop-opacity="0.6"/>
      <stop offset="0.707682" stop-color="white" stop-opacity="0.6"/>
      <stop offset="1" stop-color="white" stop-opacity="0.2"/>
    </linearGradient>
    <linearGradient id="paint1_linear_65_243" x1="130.874" y1="24.111" x2="49.2438" y2="147.859" gradientUnits="userSpaceOnUse">
      <stop stop-color="white"/>
      <stop offset="0.371382" stop-color="white" stop-opacity="0.3"/>
      <stop offset="1" stop-color="white" stop-opacity="0"/>
    </linearGradient>
  </defs>
</svg>