<svg width="20" height="20" viewBox="0 0 20 20" fill="none" xmlns="http://www.w3.org/2000/svg">
<mask id="mask0_1_3449" style="mask-type:alpha" maskUnits="userSpaceOnUse" x="0" y="0" width="20" height="21">
<rect y="0.000366211" width="20" height="20" fill="#D9D9D9"/>
</mask>
<g mask="url(#mask0_1_3449)">
<path d="M6.0415 13.9587H11.4582V12.7087H6.0415V13.9587ZM6.0415 10.6253H13.9582V9.37533H6.0415V10.6253ZM6.0415 7.29199H13.9582V6.04199H6.0415V7.29199ZM4.42296 17.0837C4.00199 17.0837 3.64567 16.9378 3.354 16.6462C3.06234 16.3545 2.9165 15.9982 2.9165 15.5772V4.42345C2.9165 4.00248 3.06234 3.64616 3.354 3.35449C3.64567 3.06283 4.00199 2.91699 4.42296 2.91699H15.5767C15.9977 2.91699 16.354 3.06283 16.6457 3.35449C16.9373 3.64616 17.0832 4.00248 17.0832 4.42345V15.5772C17.0832 15.9982 16.9373 16.3545 16.6457 16.6462C16.354 16.9378 15.9977 17.0837 15.5767 17.0837H4.42296ZM4.42296 15.8337H15.5767C15.6409 15.8337 15.6996 15.8069 15.753 15.7535C15.8064 15.7001 15.8332 15.6414 15.8332 15.5772V4.42345C15.8332 4.35928 15.8064 4.30053 15.753 4.2472C15.6996 4.19373 15.6409 4.16699 15.5767 4.16699H4.42296C4.3588 4.16699 4.30005 4.19373 4.24671 4.2472C4.19324 4.30053 4.1665 4.35928 4.1665 4.42345V15.5772C4.1665 15.6414 4.19324 15.7001 4.24671 15.7535C4.30005 15.8069 4.3588 15.8337 4.42296 15.8337Z" fill="white" fill-opacity="0.8"/>
</g>
</svg>
