<svg width="12" height="14" viewBox="0 0 12 14" fill="none" xmlns="http://www.w3.org/2000/svg">
<path d="M1.37607 13.3333C1.03929 13.3333 0.754232 13.2167 0.520898 12.9833C0.287565 12.75 0.170898 12.465 0.170898 12.1282V3.20518C0.170898 2.8684 0.287565 2.58334 0.520898 2.35001C0.754232 2.11668 1.03929 2.00001 1.37607 2.00001H2.29906V0.589844H3.32473V2.00001H8.37606V0.589844H9.37606V2.00001H10.2991C10.6358 2.00001 10.9209 2.11668 11.1542 2.35001C11.3876 2.58334 11.5042 2.8684 11.5042 3.20518V12.1282C11.5042 12.465 11.3876 12.75 11.1542 12.9833C10.9209 13.2167 10.6358 13.3333 10.2991 13.3333H1.37607ZM1.37607 12.3333H10.2991C10.3504 12.3333 10.3974 12.312 10.4401 12.2692C10.4828 12.2265 10.5042 12.1795 10.5042 12.1282V5.87184H1.1709V12.1282C1.1709 12.1795 1.19229 12.2265 1.23507 12.2692C1.27773 12.312 1.32473 12.3333 1.37607 12.3333ZM1.1709 4.87184H10.5042V3.20518C10.5042 3.15384 10.4828 3.10684 10.4401 3.06418C10.3974 3.0214 10.3504 3.00001 10.2991 3.00001H1.37607C1.32473 3.00001 1.27773 3.0214 1.23507 3.06418C1.19229 3.10684 1.1709 3.15384 1.1709 3.20518V4.87184ZM5.83756 8.38468C5.67434 8.38468 5.53523 8.32718 5.42023 8.21218C5.30534 8.09729 5.2479 7.95818 5.2479 7.79484C5.2479 7.63162 5.30534 7.49251 5.42023 7.37751C5.53523 7.26262 5.67434 7.20518 5.83756 7.20518C6.00079 7.20518 6.1399 7.26262 6.2549 7.37751C6.36979 7.49251 6.42723 7.63162 6.42723 7.79484C6.42723 7.95818 6.36979 8.09729 6.2549 8.21218C6.1399 8.32718 6.00079 8.38468 5.83756 8.38468ZM3.1709 8.38468C3.00768 8.38468 2.86856 8.32718 2.75356 8.21218C2.63868 8.09729 2.58123 7.95818 2.58123 7.79484C2.58123 7.63162 2.63868 7.49251 2.75356 7.37751C2.86856 7.26262 3.00768 7.20518 3.1709 7.20518C3.33412 7.20518 3.47323 7.26262 3.58823 7.37751C3.70312 7.49251 3.76056 7.63162 3.76056 7.79484C3.76056 7.95818 3.70312 8.09729 3.58823 8.21218C3.47323 8.32718 3.33412 8.38468 3.1709 8.38468ZM8.50423 8.38468C8.34101 8.38468 8.2019 8.32718 8.0869 8.21218C7.97201 8.09729 7.91457 7.95818 7.91457 7.79484C7.91457 7.63162 7.97201 7.49251 8.0869 7.37751C8.2019 7.26262 8.34101 7.20518 8.50423 7.20518C8.66745 7.20518 8.80656 7.26262 8.92156 7.37751C9.03645 7.49251 9.0939 7.63162 9.0939 7.79484C9.0939 7.95818 9.03645 8.09729 8.92156 8.21218C8.80656 8.32718 8.66745 8.38468 8.50423 8.38468ZM5.83756 11C5.67434 11 5.53523 10.9425 5.42023 10.8275C5.30534 10.7126 5.2479 10.5736 5.2479 10.4103C5.2479 10.247 5.30534 10.1079 5.42023 9.99301C5.53523 9.87801 5.67434 9.82051 5.83756 9.82051C6.00079 9.82051 6.1399 9.87801 6.2549 9.99301C6.36979 10.1079 6.42723 10.247 6.42723 10.4103C6.42723 10.5736 6.36979 10.7126 6.2549 10.8275C6.1399 10.9425 6.00079 11 5.83756 11ZM3.1709 11C3.00768 11 2.86856 10.9425 2.75356 10.8275C2.63868 10.7126 2.58123 10.5736 2.58123 10.4103C2.58123 10.247 2.63868 10.1079 2.75356 9.99301C2.86856 9.87801 3.00768 9.82051 3.1709 9.82051C3.33412 9.82051 3.47323 9.87801 3.58823 9.99301C3.70312 10.1079 3.76056 10.247 3.76056 10.4103C3.76056 10.5736 3.70312 10.7126 3.58823 10.8275C3.47323 10.9425 3.33412 11 3.1709 11ZM8.50423 11C8.34101 11 8.2019 10.9425 8.0869 10.8275C7.97201 10.7126 7.91457 10.5736 7.91457 10.4103C7.91457 10.247 7.97201 10.1079 8.0869 9.99301C8.2019 9.87801 8.34101 9.82051 8.50423 9.82051C8.66745 9.82051 8.80656 9.87801 8.92156 9.99301C9.03645 10.1079 9.0939 10.247 9.0939 10.4103C9.0939 10.5736 9.03645 10.7126 8.92156 10.8275C8.80656 10.9425 8.66745 11 8.50423 11Z" fill="white" fill-opacity="0.5"/>
</svg>
