<svg width="585" height="368" viewBox="0 0 585 368" fill="none" xmlns="http://www.w3.org/2000/svg">
<g clip-path="url(#clip0_1447_3232)">
<rect width="584" height="368" transform="translate(0.833984)" fill="black"/>
<circle cx="92.0233" cy="92.0233" r="92.0233" transform="matrix(0.863826 0.503791 -0.863826 0.503791 292.348 -4.60889)" fill="#663FFF" fill-opacity="0.15"/>
<path d="M179.938 88.1118C179.938 106.217 192.52 122.608 212.864 134.472V338.141C192.52 326.277 179.938 309.886 179.938 291.781V88.1118Z" fill="#663FFF" fill-opacity="0.15"/>
<path d="M212.861 134.472C256.764 160.076 327.943 160.076 371.846 134.472V338.141C327.943 363.746 256.764 363.746 212.861 338.141V134.472Z" fill="#663FFF" fill-opacity="0.15"/>
<path d="M404.778 88.1118C404.778 106.217 392.195 122.608 371.852 134.472V338.141C392.195 326.277 404.778 309.886 404.778 291.781V88.1118Z" fill="#663FFF" fill-opacity="0.15"/>
<circle cx="91.7896" cy="91.7896" r="91.7896" transform="matrix(0.866025 0.5 -0.866025 0.5 293.312 189.029)" fill="#663FFF" fill-opacity="0.15" stroke="#987EFF" stroke-opacity="0.1" stroke-width="1.90003"/>
<path d="M180.906 280.819C180.906 298.742 193.489 314.968 213.833 326.714V338.334C193.489 326.589 180.906 310.363 180.906 292.44V280.819Z" fill="#663FFF" fill-opacity="0.15" stroke="#987EFF" stroke-opacity="0.1" stroke-width="1.90003"/>
<path d="M213.83 326.713C257.732 352.06 328.912 352.06 372.814 326.713V338.334C328.912 363.681 257.732 363.681 213.83 338.334V326.713Z" fill="#663FFF" fill-opacity="0.15" stroke="#987EFF" stroke-opacity="0.1" stroke-width="1.90003"/>
<path d="M405.751 280.819C405.751 298.742 393.168 314.968 372.824 326.714V338.334C393.168 326.589 405.751 310.363 405.751 292.44V280.819Z" fill="#663FFF" fill-opacity="0.15" stroke="#987EFF" stroke-opacity="0.1" stroke-width="1.90003"/>
<path d="M289.986 291.415C288.43 292.314 286.577 292.763 284.428 292.763C282.279 292.763 280.426 292.314 278.87 291.415C277.313 290.517 276.535 289.447 276.535 288.206C276.535 286.965 277.313 285.896 278.87 284.997C280.426 284.099 282.279 283.649 284.428 283.649C286.577 283.649 288.43 284.099 289.986 284.997C291.542 285.896 292.32 286.965 292.32 288.206C292.32 289.447 291.542 290.517 289.986 291.415ZM316.665 276.012C315.108 276.911 313.256 277.36 311.107 277.36C308.957 277.36 307.105 276.911 305.548 276.012C303.992 275.114 303.214 274.044 303.214 272.803C303.214 271.562 303.992 270.493 305.548 269.594C307.105 268.696 308.957 268.246 311.107 268.246C313.256 268.246 315.108 268.696 316.665 269.594C318.221 270.493 318.999 271.562 318.999 272.803C318.999 274.044 318.221 275.114 316.665 276.012ZM328.892 298.475C338.823 292.741 343.788 285.896 343.788 277.938C343.788 269.979 338.823 263.134 328.892 257.4C327.114 256.373 325.28 255.443 323.39 254.608C321.5 253.774 319.481 253.079 317.332 252.523C316.146 253.635 314.868 254.694 313.497 255.699C312.126 256.705 310.588 257.7 308.883 258.684C302.14 262.577 294.321 265.423 285.428 267.22C276.535 269.017 267.383 269.637 257.971 269.081C261.38 273.787 263.011 278.643 262.862 283.649C262.714 288.655 260.787 293.469 257.082 298.09L257.749 298.475C267.679 304.208 279.537 307.075 293.321 307.075C307.105 307.075 318.962 304.208 328.892 298.475ZM335.57 302.321C329.727 305.694 323.127 308.225 315.769 309.913C308.411 311.601 300.93 312.445 293.326 312.446C285.723 312.447 278.242 311.604 270.885 309.919C263.528 308.232 256.929 305.703 251.087 302.33C245.244 298.957 240.861 295.146 237.938 290.898C235.014 286.65 233.552 282.331 233.55 277.941C233.549 273.551 235.008 269.232 237.928 264.984C240.848 260.737 245.23 256.927 251.072 253.554C256.914 250.181 263.515 247.65 270.873 245.962C278.231 244.274 285.712 243.43 293.315 243.429C300.919 243.428 308.399 244.271 315.756 245.956C323.113 247.643 329.712 250.172 335.554 253.545C341.397 256.918 345.78 260.729 348.704 264.977C351.627 269.225 353.09 273.544 353.091 277.934C353.093 282.324 351.634 286.643 348.714 290.891C345.793 295.138 341.412 298.948 335.57 302.321Z" fill="white"/>
<path d="M251.392 253.739C257.012 250.494 263.333 248.037 270.358 246.364L271.039 246.205C278.347 244.529 285.772 243.691 293.316 243.69C300.388 243.69 307.355 244.424 314.218 245.895L315.589 246.199C322.886 247.872 329.434 250.381 335.234 253.73C340.854 256.975 345.11 260.624 348.007 264.68L348.282 265.074C351.186 269.293 352.637 273.579 352.639 277.935C352.64 282.018 351.368 286.04 348.819 290.003L348.293 290.794C345.396 295.007 341.05 298.788 335.25 302.136C329.63 305.381 323.308 307.838 316.283 309.51L315.601 309.67C308.294 311.346 300.87 312.184 293.326 312.185C285.782 312.185 278.358 311.35 271.051 309.676L271.052 309.675C263.755 308.003 257.208 305.494 251.408 302.145C245.788 298.901 241.531 295.251 238.635 291.195L238.358 290.801C235.455 286.582 234.005 282.296 234.003 277.94C234.002 273.585 235.448 269.299 238.348 265.081L238.349 265.081C241.246 260.868 245.592 257.088 251.392 253.739ZM257.554 269.182C260.833 273.709 262.454 278.375 262.418 283.18L262.411 283.645C262.263 288.614 260.351 293.392 256.671 297.98L256.539 298.146L257.429 298.66C267.443 304.441 279.414 307.336 293.32 307.336C307.227 307.336 319.199 304.441 329.213 298.66C339.226 292.878 344.241 285.966 344.241 277.938C344.241 269.909 339.226 262.997 329.213 257.215C327.645 256.31 326.033 255.479 324.377 254.721L323.665 254.401C321.748 253.554 319.698 252.849 317.517 252.284L317.154 252.19L316.946 252.386C315.916 253.352 314.817 254.277 313.647 255.161L313.141 255.538C311.782 256.534 310.256 257.522 308.563 258.499C302.076 262.244 294.591 265.012 286.104 266.803L285.279 266.973C276.449 268.757 267.364 269.373 258.018 268.821L257.26 268.776L257.554 269.182ZM279.19 285.182C280.571 284.385 282.185 283.965 284.051 283.916L284.428 283.911C286.454 283.911 288.192 284.331 289.666 285.182C291.139 286.032 291.868 287.036 291.868 288.206C291.868 289.376 291.139 290.38 289.666 291.23C288.284 292.028 286.67 292.447 284.804 292.497L284.428 292.501C282.402 292.501 280.663 292.081 279.19 291.23C277.809 290.432 277.082 289.501 276.997 288.424L276.988 288.206C276.988 287.037 277.716 286.033 279.19 285.182ZM305.868 269.779C307.25 268.982 308.864 268.562 310.729 268.513L311.107 268.508C313.132 268.508 314.871 268.928 316.344 269.779C317.818 270.63 318.547 271.634 318.547 272.803C318.547 273.973 317.818 274.977 316.344 275.828C314.871 276.678 313.132 277.099 311.107 277.099C309.081 277.099 307.342 276.678 305.868 275.827C304.487 275.03 303.762 274.098 303.676 273.021L303.667 272.803C303.667 271.634 304.395 270.63 305.868 269.779Z" stroke="url(#paint0_linear_1447_3232)" stroke-opacity="0.1" stroke-width="0.739344"/>
<g filter="url(#filter0_di_1447_3232)">
<rect width="72.36" height="72.36" rx="36.18" transform="matrix(0.866025 -0.5 0.866025 0.5 230.654 196.124)" fill="white" fill-opacity="0.01" shape-rendering="crispEdges"/>
<path d="M287.336 199.014C286.979 200.393 286.932 201.789 287.196 203.169C287.219 203.288 287.31 203.393 287.447 203.472M295.17 203.536C292.781 203.743 290.362 203.77 287.972 203.617C287.767 203.604 287.584 203.551 287.447 203.472M287.447 203.472L301.155 195.558M289.516 188.71C291.905 188.504 294.324 188.477 296.714 188.629C296.919 188.642 297.102 188.695 297.239 188.774M297.349 193.233C297.707 191.854 297.754 190.457 297.49 189.077C297.467 188.959 297.376 188.853 297.239 188.774M297.239 188.774L283.53 196.688" stroke="white" stroke-width="2.26125" stroke-linecap="round" stroke-linejoin="round"/>
</g>
<circle cx="91.7896" cy="91.7896" r="91.7896" transform="matrix(0.866025 0.5 -0.866025 0.5 293.318 -4.60889)" fill="#663FFF" fill-opacity="0.15" stroke="#987EFF" stroke-opacity="0.1" stroke-width="1.90003"/>
<path d="M180.912 87.1802C180.912 105.103 193.495 121.329 213.839 133.075V144.696C193.495 132.95 180.912 116.724 180.912 98.801V87.1802Z" fill="#663FFF" fill-opacity="0.15" stroke="#987EFF" stroke-opacity="0.1" stroke-width="1.90003"/>
<path d="M213.836 133.075C257.738 158.422 328.918 158.422 372.82 133.075V144.696C328.918 170.043 257.738 170.043 213.836 144.696V133.075Z" fill="#663FFF" fill-opacity="0.15" stroke="#987EFF" stroke-opacity="0.1" stroke-width="1.90003"/>
<path d="M405.757 87.1802C405.757 105.103 393.174 121.329 372.83 133.075V144.696C393.174 132.95 405.757 116.724 405.757 98.801V87.1802Z" fill="#663FFF" fill-opacity="0.15" stroke="#987EFF" stroke-opacity="0.1" stroke-width="1.90003"/>
<path d="M332.159 106.958C330.805 107.74 329.324 108.483 327.717 109.186C326.108 109.89 324.264 110.626 322.183 111.394C321.087 116.465 317.014 120.5 309.963 123.499C302.912 126.498 295.227 127.377 286.907 126.135C280.103 125.155 274.745 122.987 270.835 119.631C266.924 116.275 265.177 112.571 265.594 108.521C265.275 108.363 264.937 108.181 264.578 107.974L263.597 107.408C256.815 107.692 250.536 106.708 244.757 104.454C238.979 102.2 235.204 99.1841 233.433 95.407C231.872 91.957 232.228 88.5951 234.501 85.3214C236.773 82.0473 240.49 79.4482 245.65 77.5241C243.635 74.5968 243.164 71.5988 244.237 68.5301C245.31 65.4618 247.81 62.7939 251.738 60.5265C255.665 58.2591 260.286 56.8157 265.6 56.1963C270.915 55.5765 276.108 55.8484 281.178 57.012C284.511 54.0327 289.018 51.8836 294.701 50.5649C300.383 49.2458 306.2 49.0436 312.152 49.9581C318.671 50.9673 323.882 53.1399 327.786 56.4759C331.69 59.812 333.408 63.4445 332.939 67.3736L333.919 67.9397C334.278 68.1469 334.594 68.3425 334.866 68.5264C341.881 68.2855 348.29 69.2906 354.091 71.5418C359.894 73.7931 363.655 76.8897 365.375 80.8318C367.526 85.635 366.004 90.072 360.809 94.1428C355.614 98.2136 348.625 100.565 339.843 101.198C338.512 102.399 337.237 103.464 336.018 104.393C334.8 105.321 333.513 106.176 332.159 106.958ZM326.676 103.792C334.84 99.0786 338.922 93.4506 338.922 86.908C338.922 80.3654 334.84 74.7373 326.676 70.0239C324.768 68.9225 322.765 67.9578 320.665 67.1298C318.566 66.3018 316.363 65.6066 314.057 65.0441C313.555 66.7132 312.609 68.3298 311.217 69.8941C309.825 71.458 307.972 72.9082 305.657 74.2449C299.7 77.684 292.541 79.4033 284.18 79.403C275.82 79.4033 268.661 77.684 262.704 74.2449L262.493 74.123C257.366 78.75 255.286 83.843 256.255 89.4021C257.222 94.9612 261.2 99.7578 268.187 103.792C276.351 108.506 286.1 110.862 297.432 110.862C308.764 110.862 318.512 108.506 326.676 103.792ZM294.69 97.9882C293.411 98.7268 291.887 99.0962 290.121 99.0962C288.354 99.0962 286.831 98.7268 285.551 97.9882C284.272 97.2495 283.632 96.3701 283.632 95.35C283.632 94.3299 284.272 93.4506 285.551 92.7119C286.831 91.9732 288.354 91.6039 290.121 91.6039C291.887 91.6039 293.411 91.9732 294.69 92.7119C295.969 93.4506 296.609 94.3299 296.609 95.35C296.609 96.3701 295.969 97.2495 294.69 97.9882ZM316.623 85.3251C315.344 86.0638 313.821 86.4331 312.054 86.4331C310.287 86.4331 308.764 86.0638 307.484 85.3251C306.205 84.5864 305.565 83.707 305.565 82.6869C305.565 81.6669 306.205 80.7875 307.484 80.0488C308.764 79.3101 310.287 78.9408 312.054 78.9408C313.821 78.9408 315.344 79.3101 316.623 80.0488C317.903 80.7875 318.542 81.6669 318.542 82.6869C318.542 83.707 317.903 84.5864 316.623 85.3251Z" fill="white"/>
<path d="M127.312 121.966L127.792 120.609L131.564 121.942L135.504 110.798L130.79 112.25L131.377 110.59L135.422 109.348L137.44 110.061L133.053 122.469L136.165 123.569L135.685 124.926L127.312 121.966Z" fill="white" fill-opacity="0.6"/>
<path d="M124.149 143.334C123.319 143.041 122.654 142.622 122.154 142.077C121.658 141.52 121.347 140.88 121.221 140.156C121.112 139.425 121.202 138.651 121.49 137.833L123.624 131.799C123.917 130.97 124.334 130.311 124.874 129.823C125.427 129.34 126.069 129.043 126.8 128.934C127.536 128.813 128.319 128.899 129.149 129.192C129.991 129.49 130.654 129.915 131.137 130.468C131.638 131.012 131.945 131.644 132.058 132.363C132.184 133.086 132.101 133.863 131.807 134.693L129.674 140.727C129.381 141.556 128.958 142.213 128.405 142.696C127.865 143.184 127.227 143.489 126.491 143.61C125.759 143.72 124.979 143.627 124.149 143.334ZM124.616 142.014C125.408 142.294 126.125 142.265 126.768 141.927C127.423 141.593 127.896 141.017 128.184 140.2L130.318 134.166C130.607 133.349 130.601 132.604 130.301 131.933C130.014 131.265 129.474 130.792 128.682 130.512C127.89 130.232 127.166 130.259 126.511 130.593C125.868 130.931 125.402 131.509 125.113 132.326L122.98 138.36C122.691 139.177 122.691 139.919 122.978 140.587C123.278 141.258 123.824 141.734 124.616 142.014ZM126.276 137.319C125.949 137.203 125.72 137.01 125.59 136.737C125.477 136.457 125.479 136.153 125.594 135.826C125.71 135.5 125.895 135.275 126.15 135.153C126.423 135.023 126.722 135.016 127.049 135.132C127.376 135.247 127.598 135.439 127.715 135.707C127.85 135.966 127.859 136.26 127.744 136.586C127.628 136.913 127.432 137.148 127.155 137.291C126.896 137.425 126.602 137.434 126.276 137.319Z" fill="white" fill-opacity="0.6"/>
<path d="M86.1659 188.236L87.2269 187.263L89.9312 190.21L98.6406 182.219L93.7971 181.289L95.0939 180.099L99.2494 180.9L100.696 182.477L90.9994 191.374L93.2304 193.806L92.1694 194.779L86.1659 188.236Z" fill="white" fill-opacity="0.6"/>
<path d="M73.3448 205.619C72.7498 204.971 72.3592 204.289 72.173 203.573C71.9965 202.848 72.0224 202.137 72.2506 201.439C72.4976 200.742 72.9404 200.1 73.579 199.514L78.2948 195.187C78.9432 194.592 79.6204 194.206 80.3263 194.029C81.0413 193.862 81.7473 193.901 82.4445 194.148C83.1514 194.386 83.8024 194.83 84.3973 195.478C85.0013 196.136 85.387 196.823 85.5544 197.538C85.7407 198.254 85.7152 198.956 85.478 199.644C85.2498 200.342 84.8115 200.988 84.1631 201.583L79.4473 205.91C78.7989 206.505 78.1172 206.886 77.4023 207.053C76.6963 207.231 75.9899 207.2 75.2829 206.962C74.5858 206.715 73.9397 206.268 73.3448 205.619ZM74.3763 204.673C74.9442 205.292 75.5914 205.603 76.318 205.605C77.0535 205.618 77.7405 205.332 78.3791 204.746L83.0949 200.419C83.7335 199.833 84.078 199.173 84.1284 198.439C84.1879 197.715 83.9337 197.044 83.3658 196.425C82.7979 195.806 82.1462 195.49 81.4106 195.477C80.6841 195.474 80.0016 195.766 79.363 196.352L74.6472 200.678C74.0086 201.264 73.6596 201.919 73.6002 202.643C73.5497 203.377 73.8084 204.054 74.3763 204.673ZM78.0458 201.306C77.8114 201.05 77.7007 200.772 77.7137 200.471C77.7455 200.17 77.8891 199.902 78.1445 199.668C78.4 199.434 78.669 199.323 78.9516 199.335C79.253 199.348 79.5209 199.482 79.7553 199.737C79.9896 199.993 80.0958 200.266 80.0738 200.558C80.0707 200.85 79.9414 201.114 79.686 201.348C79.4305 201.582 79.1472 201.698 78.836 201.694C78.5436 201.691 78.2802 201.561 78.0458 201.306Z" fill="white" fill-opacity="0.6"/>
<path d="M85.1222 110.961L86.4506 110.405L87.9944 114.095L98.8986 109.534L94.6581 107.015L96.2817 106.336L99.9187 108.5L100.745 110.474L88.6042 115.553L89.8778 118.597L88.5493 119.153L85.1222 110.961Z" fill="white" fill-opacity="0.6"/>
<path d="M67.1624 122.962C66.8228 122.151 66.6868 121.376 66.7545 120.64C66.8344 119.898 67.1002 119.238 67.5516 118.659C68.0206 118.087 68.6548 117.634 69.4543 117.299L75.3584 114.829C76.1703 114.49 76.9383 114.356 77.6625 114.429C78.3918 114.514 79.0425 114.791 79.6145 115.26C80.1987 115.724 80.6607 116.362 81.0003 117.173C81.3451 117.997 81.4749 118.774 81.3898 119.504C81.3221 120.24 81.06 120.892 80.6034 121.459C80.1519 122.038 79.5202 122.497 78.7084 122.837L72.8043 125.307C71.9924 125.646 71.2219 125.774 70.4925 125.688C69.7683 125.616 69.1141 125.347 68.5298 124.884C67.9579 124.415 67.5021 123.774 67.1624 122.962ZM68.454 122.422C68.7782 123.197 69.2815 123.709 69.9639 123.958C70.6514 124.22 71.395 124.184 72.1945 123.849L78.0986 121.379C78.8981 121.045 79.4461 120.541 79.7426 119.867C80.0442 119.207 80.0329 118.489 79.7087 117.714C79.3846 116.939 78.8787 116.421 78.1911 116.159C77.5087 115.91 76.7678 115.952 75.9682 116.287L70.0641 118.757C69.2646 119.091 68.714 119.589 68.4124 120.25C68.1159 120.923 68.1298 121.647 68.454 122.422ZM73.0481 120.5C72.9143 120.18 72.9047 119.881 73.0191 119.602C73.1511 119.33 73.3769 119.127 73.6967 118.993C74.0165 118.859 74.3073 118.846 74.569 118.953C74.8481 119.068 75.0546 119.285 75.1884 119.605C75.3222 119.925 75.3293 120.218 75.2096 120.485C75.1075 120.759 74.8965 120.963 74.5767 121.096C74.2569 121.23 73.9512 121.242 73.6598 121.133C73.3858 121.031 73.1819 120.82 73.0481 120.5Z" fill="white" fill-opacity="0.6"/>
<path d="M436.771 269.169L437.251 267.812L441.023 269.145L444.962 258.001L440.249 259.453L440.836 257.794L444.881 256.551L446.899 257.264L442.512 269.672L445.624 270.772L445.144 272.129L436.771 269.169Z" fill="white" fill-opacity="0.6"/>
<path d="M433.608 290.537C432.778 290.244 432.113 289.825 431.613 289.28C431.117 288.723 430.806 288.083 430.68 287.359C430.571 286.628 430.661 285.854 430.949 285.037L433.083 279.003C433.376 278.173 433.793 277.514 434.333 277.026C434.886 276.543 435.528 276.247 436.259 276.138C436.995 276.016 437.778 276.102 438.608 276.395C439.45 276.693 440.113 277.118 440.596 277.671C441.097 278.215 441.404 278.847 441.517 279.566C441.643 280.29 441.56 281.066 441.266 281.896L439.133 287.93C438.84 288.759 438.417 289.416 437.864 289.899C437.324 290.387 436.686 290.692 435.95 290.814C435.218 290.923 434.438 290.831 433.608 290.537ZM434.075 289.217C434.867 289.497 435.584 289.468 436.227 289.13C436.882 288.796 437.355 288.22 437.643 287.403L439.777 281.369C440.066 280.552 440.06 279.808 439.76 279.136C439.473 278.469 438.933 277.995 438.141 277.715C437.349 277.435 436.625 277.462 435.97 277.796C435.327 278.134 434.861 278.712 434.572 279.529L432.439 285.563C432.15 286.38 432.149 287.122 432.437 287.79C432.737 288.461 433.283 288.937 434.075 289.217ZM435.735 284.522C435.408 284.407 435.179 284.213 435.049 283.94C434.936 283.66 434.938 283.356 435.053 283.03C435.169 282.703 435.354 282.478 435.609 282.356C435.882 282.226 436.181 282.219 436.508 282.335C436.835 282.45 437.057 282.642 437.174 282.91C437.309 283.169 437.318 283.463 437.203 283.79C437.087 284.116 436.891 284.351 436.614 284.494C436.355 284.628 436.061 284.638 435.735 284.522Z" fill="white" fill-opacity="0.6"/>
<path d="M462.954 169.413L462.012 168.324L465.037 165.707L457.305 156.767L456.233 161.581L455.082 160.25L456.005 156.12L457.623 154.72L466.232 164.673L468.728 162.515L469.67 163.604L462.954 169.413Z" fill="white" fill-opacity="0.6"/>
<path d="M479.954 182.739C479.288 183.315 478.595 183.685 477.874 183.85C477.145 184.005 476.434 183.959 475.743 183.71C475.054 183.443 474.426 182.981 473.859 182.326L469.672 177.485C469.096 176.82 468.73 176.131 468.574 175.42C468.427 174.701 468.488 173.996 468.755 173.307C469.014 172.607 469.476 171.969 470.142 171.394C470.817 170.809 471.515 170.444 472.234 170.298C472.955 170.132 473.656 170.178 474.337 170.436C475.028 170.684 475.661 171.141 476.237 171.807L480.424 176.648C480.999 177.313 481.36 178.006 481.507 178.725C481.663 179.436 481.612 180.141 481.354 180.841C481.086 181.531 480.62 182.163 479.954 182.739ZM479.038 181.68C479.674 181.131 480.003 180.493 480.028 179.767C480.062 179.032 479.796 178.337 479.229 177.681L475.042 172.841C474.475 172.185 473.826 171.821 473.093 171.749C472.371 171.669 471.693 171.903 471.057 172.453C470.422 173.002 470.087 173.644 470.053 174.379C470.029 175.105 470.3 175.796 470.867 176.452L475.054 181.292C475.621 181.948 476.265 182.316 476.987 182.396C477.719 182.468 478.403 182.23 479.038 181.68ZM475.781 177.913C475.518 178.14 475.237 178.243 474.936 178.221C474.636 178.18 474.373 178.029 474.146 177.767C473.92 177.505 473.816 177.232 473.837 176.95C473.859 176.649 474.001 176.386 474.263 176.159C474.525 175.932 474.802 175.834 475.092 175.864C475.385 175.876 475.644 176.013 475.871 176.275C476.098 176.537 476.204 176.824 476.191 177.135C476.18 177.427 476.043 177.687 475.781 177.913Z" fill="white" fill-opacity="0.6"/>
<path d="M128.418 237.957L127.946 236.597L131.725 235.286L127.851 224.119L125.073 228.195L124.496 226.532L126.882 223.037L128.904 222.335L133.218 234.768L136.336 233.686L136.808 235.047L128.418 237.957Z" fill="white" fill-opacity="0.2"/>
<path d="M139.28 256.629C138.449 256.918 137.668 257.005 136.937 256.892C136.201 256.766 135.559 256.46 135.009 255.973C134.467 255.469 134.054 254.808 133.77 253.989L131.672 247.943C131.384 247.112 131.298 246.337 131.416 245.619C131.546 244.896 131.863 244.264 132.367 243.722C132.866 243.168 133.532 242.746 134.363 242.458C135.207 242.165 135.99 242.084 136.713 242.214C137.444 242.327 138.078 242.63 138.615 243.121C139.165 243.607 139.584 244.266 139.873 245.098L141.971 251.144C142.259 251.975 142.338 252.752 142.208 253.475C142.09 254.193 141.782 254.83 141.282 255.384C140.779 255.926 140.111 256.341 139.28 256.629ZM138.821 255.306C139.615 255.031 140.157 254.561 140.448 253.895C140.752 253.225 140.762 252.481 140.478 251.662L138.38 245.616C138.096 244.797 137.627 244.219 136.974 243.881C136.333 243.539 135.615 243.505 134.822 243.781C134.028 244.056 133.48 244.529 133.176 245.199C132.884 245.864 132.881 246.606 133.165 247.425L135.263 253.471C135.547 254.29 136.01 254.871 136.65 255.213C137.304 255.551 138.028 255.582 138.821 255.306ZM137.189 250.602C136.861 250.715 136.562 250.706 136.29 250.575C136.027 250.426 135.838 250.188 135.725 249.861C135.611 249.533 135.616 249.242 135.739 248.988C135.871 248.716 136.101 248.523 136.428 248.41C136.756 248.296 137.049 248.307 137.308 248.443C137.575 248.562 137.765 248.786 137.879 249.113C137.992 249.441 137.986 249.746 137.858 250.031C137.739 250.298 137.516 250.488 137.189 250.602Z" fill="white" fill-opacity="0.2"/>
<path d="M70.2915 282.14L69.8195 280.78L73.5985 279.468L69.7238 268.302L66.9463 272.377L66.3694 270.714L68.7555 267.219L70.7772 266.518L75.0912 278.95L78.2088 277.869L78.6809 279.229L70.2915 282.14Z" fill="white" fill-opacity="0.2"/>
<path d="M81.1531 300.812C80.3217 301.1 79.5406 301.188 78.8097 301.074C78.0745 300.948 77.4319 300.642 76.882 300.156C76.3403 299.652 75.9274 298.991 75.6433 298.172L73.5454 292.126C73.2569 291.294 73.1715 290.519 73.2892 289.801C73.4195 289.079 73.7365 288.446 74.2401 287.905C74.7393 287.35 75.4046 286.929 76.236 286.641C77.08 286.348 77.8633 286.266 78.5859 286.397C79.3168 286.51 79.9509 286.812 80.4882 287.303C81.0381 287.79 81.4573 288.449 81.7457 289.28L83.8437 295.327C84.1322 296.158 84.2113 296.935 84.0809 297.658C83.9632 298.376 83.6548 299.012 83.1555 299.567C82.652 300.108 81.9845 300.523 81.1531 300.812ZM80.6942 299.489C81.4877 299.214 82.0302 298.743 82.3214 298.078C82.6252 297.408 82.6351 296.663 82.351 295.845L80.253 289.798C79.9689 288.979 79.5001 288.401 78.8466 288.063C78.2057 287.721 77.4885 287.688 76.6949 287.963C75.9013 288.239 75.3526 288.711 75.0488 289.381C74.7575 290.047 74.754 290.789 75.0381 291.608L77.136 297.654C77.4201 298.473 77.8826 299.053 78.5235 299.395C79.177 299.733 79.9006 299.764 80.6942 299.489ZM79.0617 294.784C78.7342 294.898 78.4347 294.889 78.1632 294.757C77.8999 294.609 77.7115 294.371 77.5979 294.043C77.4842 293.716 77.4891 293.425 77.6125 293.17C77.7441 292.899 77.9737 292.706 78.3012 292.592C78.6287 292.479 78.9219 292.49 79.1808 292.626C79.4479 292.745 79.6382 292.968 79.7519 293.296C79.8655 293.623 79.8587 293.929 79.7315 294.213C79.6125 294.48 79.3892 294.671 79.0617 294.784Z" fill="white" fill-opacity="0.2"/>
<path d="M493.77 123.869L493.298 122.509L497.077 121.197L493.202 110.031L490.425 114.106L489.848 112.443L492.234 108.948L494.256 108.247L498.57 120.679L501.687 119.598L502.159 120.958L493.77 123.869Z" fill="white" fill-opacity="0.2"/>
<path d="M504.632 142.541C503.8 142.829 503.019 142.917 502.288 142.803C501.553 142.677 500.91 142.371 500.361 141.885C499.819 141.381 499.406 140.72 499.122 139.901L497.024 133.855C496.735 133.023 496.65 132.248 496.768 131.53C496.898 130.808 497.215 130.175 497.719 129.634C498.218 129.079 498.883 128.658 499.714 128.37C500.558 128.077 501.342 127.995 502.064 128.126C502.795 128.239 503.429 128.541 503.967 129.032C504.517 129.519 504.936 130.178 505.224 131.009L507.322 137.056C507.611 137.887 507.69 138.664 507.559 139.387C507.442 140.105 507.133 140.741 506.634 141.296C506.13 141.837 505.463 142.252 504.632 142.541ZM504.173 141.218C504.966 140.943 505.509 140.472 505.8 139.807C506.104 139.137 506.114 138.392 505.83 137.574L503.732 131.527C503.447 130.708 502.979 130.13 502.325 129.792C501.684 129.45 500.967 129.417 500.173 129.692C499.38 129.968 498.831 130.44 498.527 131.11C498.236 131.776 498.232 132.518 498.517 133.337L500.615 139.383C500.899 140.202 501.361 140.782 502.002 141.124C502.656 141.462 503.379 141.493 504.173 141.218ZM502.54 136.513C502.213 136.627 501.913 136.618 501.642 136.486C501.378 136.338 501.19 136.1 501.076 135.772C500.963 135.445 500.968 135.154 501.091 134.899C501.223 134.628 501.452 134.435 501.78 134.321C502.107 134.208 502.4 134.219 502.659 134.355C502.926 134.474 503.117 134.697 503.23 135.025C503.344 135.352 503.337 135.658 503.21 135.942C503.091 136.209 502.868 136.4 502.54 136.513Z" fill="white" fill-opacity="0.2"/>
<path d="M83.7427 49.8251L83.2707 48.4647L87.0496 47.1535L83.1749 35.9866L80.3975 40.0622L79.8206 38.3995L82.2066 34.9042L84.2284 34.2027L88.5423 46.6355L91.66 45.5538L92.132 46.9142L83.7427 49.8251Z" fill="white" fill-opacity="0.2"/>
<path d="M94.6043 68.4968C93.7729 68.7853 92.9918 68.8728 92.2609 68.7595C91.5256 68.6335 90.8831 68.3273 90.3332 67.8406C89.7915 67.337 89.3786 66.6759 89.0945 65.8571L86.9965 59.8107C86.7081 58.9793 86.6227 58.2045 86.7404 57.4862C86.8707 56.7636 87.1877 56.1314 87.6913 55.5897C88.1905 55.0355 88.8558 54.6141 89.6872 54.3256C90.5311 54.0328 91.3144 53.9515 92.0371 54.0818C92.768 54.1952 93.402 54.4973 93.9394 54.9883C94.4893 55.475 94.9084 56.134 95.1969 56.9653L97.2949 63.0117C97.5834 63.8431 97.6624 64.6201 97.5321 65.3427C97.4144 66.061 97.1059 66.6973 96.6067 67.2516C96.1031 67.7932 95.4356 68.2083 94.6043 68.4968ZM94.1453 67.1741C94.9389 66.8988 95.4813 66.4283 95.7726 65.7627C96.0764 65.0928 96.0863 64.3484 95.8022 63.5296L93.7042 57.4833C93.4201 56.6645 92.9513 56.0862 92.2978 55.7484C91.6569 55.4063 90.9397 55.3729 90.1461 55.6483C89.3525 55.9236 88.8038 56.3963 88.4999 57.0662C88.2087 57.7318 88.2051 58.474 88.4892 59.2928L90.5872 65.3391C90.8713 66.1579 91.3338 66.7384 91.9747 67.0805C92.6282 67.4183 93.3517 67.4495 94.1453 67.1741ZM92.5129 62.4693C92.1853 62.583 91.8858 62.574 91.6144 62.4424C91.3511 62.2938 91.1627 62.0557 91.049 61.7282C90.9354 61.4007 90.9403 61.1097 91.0637 60.8552C91.1953 60.5837 91.4248 60.3912 91.7523 60.2775C92.0799 60.1639 92.373 60.175 92.6319 60.311C92.899 60.43 93.0894 60.6533 93.203 60.9808C93.3167 61.3083 93.3099 61.6141 93.1826 61.8982C93.0636 62.1653 92.8404 62.3557 92.5129 62.4693Z" fill="white" fill-opacity="0.2"/>
<path d="M494.002 267.969L493.53 266.608L497.309 265.297L493.435 254.13L490.657 258.206L490.08 256.543L492.466 253.048L494.488 252.346L498.802 264.779L501.92 263.697L502.392 265.058L494.002 267.969Z" fill="white" fill-opacity="0.2"/>
<path d="M504.864 286.64C504.033 286.929 503.252 287.016 502.521 286.903C501.785 286.777 501.143 286.471 500.593 285.984C500.051 285.481 499.638 284.819 499.354 284.001L497.256 277.954C496.968 277.123 496.882 276.348 497 275.63C497.13 274.907 497.447 274.275 497.951 273.733C498.45 273.179 499.116 272.758 499.947 272.469C500.791 272.176 501.574 272.095 502.297 272.225C503.028 272.339 503.662 272.641 504.199 273.132C504.749 273.619 505.168 274.278 505.457 275.109L507.555 281.155C507.843 281.987 507.922 282.764 507.792 283.486C507.674 284.205 507.366 284.841 506.866 285.395C506.363 285.937 505.695 286.352 504.864 286.64ZM504.405 285.318C505.199 285.042 505.741 284.572 506.032 283.906C506.336 283.236 506.346 282.492 506.062 281.673L503.964 275.627C503.68 274.808 503.211 274.23 502.558 273.892C501.917 273.55 501.199 273.516 500.406 273.792C499.612 274.067 499.064 274.54 498.76 275.21C498.468 275.875 498.465 276.618 498.749 277.436L500.847 283.483C501.131 284.301 501.594 284.882 502.234 285.224C502.888 285.562 503.612 285.593 504.405 285.318ZM502.773 280.613C502.445 280.727 502.146 280.718 501.874 280.586C501.611 280.437 501.422 280.199 501.309 279.872C501.195 279.544 501.2 279.253 501.323 278.999C501.455 278.727 501.685 278.535 502.012 278.421C502.34 278.307 502.633 278.319 502.892 278.455C503.159 278.574 503.349 278.797 503.463 279.124C503.576 279.452 503.57 279.758 503.442 280.042C503.323 280.309 503.1 280.499 502.773 280.613Z" fill="white" fill-opacity="0.2"/>
<path d="M453.716 61.4301L454.264 60.0985L457.963 61.6209L462.462 50.6904L457.681 51.902L458.351 50.2744L462.454 49.2381L464.433 50.0526L459.424 62.2222L462.476 63.4781L461.928 64.8098L453.716 61.4301Z" fill="white" fill-opacity="0.2"/>
<path d="M449.476 82.6102C448.663 82.2752 448.02 81.8232 447.547 81.2539C447.08 80.6724 446.802 80.0172 446.713 79.2883C446.641 78.5522 446.77 77.7834 447.1 76.982L449.535 71.0636C449.87 70.2499 450.32 69.613 450.884 69.1531C451.46 68.6983 452.117 68.4349 452.853 68.363C453.594 68.2787 454.371 68.4041 455.185 68.739C456.011 69.079 456.652 69.5372 457.107 70.1137C457.579 70.683 457.853 71.3295 457.93 72.0532C458.02 72.7821 457.897 73.5534 457.562 74.3672L455.126 80.2855C454.791 81.0993 454.336 81.7336 453.759 82.1884C453.195 82.6483 452.542 82.9204 451.801 83.0046C451.065 83.0766 450.29 82.9451 449.476 82.6102ZM450.009 81.3155C450.786 81.6352 451.504 81.6423 452.163 81.3369C452.835 81.0365 453.335 80.4856 453.665 79.6842L456.101 73.7658C456.431 72.9644 456.463 72.2206 456.197 71.5346C455.944 70.8537 455.429 70.3533 454.652 70.0336C453.876 69.7139 453.151 69.7043 452.48 70.0046C451.821 70.3101 451.326 70.8635 450.996 71.665L448.561 77.5833C448.231 78.3848 448.192 79.126 448.446 79.8069C448.711 80.493 449.232 80.9958 450.009 81.3155ZM451.905 76.7103C451.584 76.5784 451.366 76.3731 451.25 76.0947C451.151 75.8089 451.167 75.5058 451.299 75.1852C451.431 74.8646 451.628 74.6499 451.889 74.5411C452.167 74.425 452.467 74.4329 452.788 74.5649C453.108 74.6968 453.32 74.8995 453.424 75.1729C453.545 75.439 453.54 75.7324 453.408 76.053C453.276 76.3735 453.068 76.598 452.785 76.7265C452.518 76.8476 452.225 76.8422 451.905 76.7103Z" fill="white" fill-opacity="0.2"/>
</g>
<defs>
<filter id="filter0_di_1447_3232" x="221.609" y="153.16" width="143.422" height="124.369" filterUnits="userSpaceOnUse" color-interpolation-filters="sRGB">
<feFlood flood-opacity="0" result="BackgroundImageFix"/>
<feColorMatrix in="SourceAlpha" type="matrix" values="0 0 0 0 0 0 0 0 0 0 0 0 0 0 0 0 0 0 127 0" result="hardAlpha"/>
<feMorphology radius="18.09" operator="erode" in="SourceAlpha" result="effect1_dropShadow_1447_3232"/>
<feOffset dy="36.18"/>
<feGaussianBlur stdDeviation="13.5675"/>
<feComposite in2="hardAlpha" operator="out"/>
<feColorMatrix type="matrix" values="0 0 0 0 0 0 0 0 0 0 0 0 0 0 0 0 0 0 0.4 0"/>
<feBlend mode="normal" in2="BackgroundImageFix" result="effect1_dropShadow_1447_3232"/>
<feBlend mode="normal" in="SourceGraphic" in2="effect1_dropShadow_1447_3232" result="shape"/>
<feColorMatrix in="SourceAlpha" type="matrix" values="0 0 0 0 0 0 0 0 0 0 0 0 0 0 0 0 0 0 127 0" result="hardAlpha"/>
<feOffset/>
<feGaussianBlur stdDeviation="4.5225"/>
<feComposite in2="hardAlpha" operator="arithmetic" k2="-1" k3="1"/>
<feColorMatrix type="matrix" values="0 0 0 0 0.972549 0 0 0 0 0.972549 0 0 0 0 0.972549 0 0 0 0.25 0"/>
<feBlend mode="normal" in2="shape" result="effect2_innerShadow_1447_3232"/>
</filter>
<linearGradient id="paint0_linear_1447_3232" x1="291.035" y1="238.527" x2="300.259" y2="316.437" gradientUnits="userSpaceOnUse">
<stop stop-color="white"/>
<stop offset="0.371382" stop-color="white" stop-opacity="0.3"/>
<stop offset="1" stop-color="white" stop-opacity="0"/>
</linearGradient>
<clipPath id="clip0_1447_3232">
<rect width="584" height="368" fill="white" transform="translate(0.833984)"/>
</clipPath>
</defs>
</svg>
