<svg width="1136" height="526" viewBox="0 0 1136 526" fill="none" xmlns="http://www.w3.org/2000/svg">
<path fill-rule="evenodd" clip-rule="evenodd" d="M176.567 348.814C180.273 356.622 188.942 362.073 201.698 363.317C227.209 365.806 259.402 350.525 273.603 329.186C280.704 318.517 281.962 308.353 278.256 300.546L270.533 284.276C266.827 276.468 258.157 271.017 245.402 269.773C219.891 267.284 187.698 282.565 173.497 303.904C166.396 314.573 165.138 324.736 168.844 332.544L176.567 348.814Z" fill="#663FFF" fill-opacity="0.2" stroke="#987EFF" stroke-opacity="0.2" stroke-width="1.12563"/>
<circle cx="29.939" cy="29.939" r="29.939" transform="matrix(0.567985 -0.823039 0.99677 0.0803062 172.646 330.231)" fill="#987EFF" fill-opacity="0.2"/>
<path d="M177.69 304.036C190.753 285.107 219.928 271.259 242.853 273.106C265.778 274.953 273.773 291.795 260.709 310.725C247.646 329.654 218.471 343.502 195.546 341.655C172.622 339.808 164.627 322.966 177.69 304.036Z" stroke="#987EFF" stroke-opacity="0.2" stroke-width="2.25127"/>
<g clip-path="url(#clip0_1447_3181)">
<path d="M221.459 325.363C225.425 323.931 229.25 321.998 232.684 319.689C236.165 317.353 239.186 314.696 241.561 311.882C237.915 313.104 234.002 315.013 230.281 317.511C226.563 320.004 223.555 322.735 221.459 325.363ZM225.577 313.234C218.407 318.041 213.558 323.52 212.304 327.649C214.076 327.407 215.875 327.039 217.701 326.546C220.066 323.078 223.854 319.409 228.756 316.121C233.655 312.837 238.876 310.463 243.629 309.159C244.525 307.828 245.265 306.49 245.84 305.161C240.418 305.504 232.744 308.429 225.577 313.234ZM228.746 287.385C225.135 287.748 221.352 288.652 217.633 290.04C213.862 291.451 210.232 293.312 206.958 295.512C203.643 297.737 200.744 300.254 198.422 302.922C196.09 305.599 194.379 308.376 193.384 311.098C197.145 306.761 202.56 302.063 209.237 297.584C215.914 293.106 222.683 289.634 228.746 287.385ZM235.653 294.874C229.657 296.706 222.702 300.163 216.074 304.608C209.452 309.049 204.027 313.893 200.802 318.243C197.966 322.067 197.232 325.07 198.784 326.479L198.809 326.505C199.18 326.654 199.563 326.791 199.956 326.915C200.365 325.194 201.298 323.242 202.763 321.109C206.022 316.373 211.561 311.254 218.369 306.686C225.177 302.122 232.504 298.616 238.993 296.813C241.91 296.01 244.525 295.581 246.773 295.526C246.672 295.206 246.557 294.89 246.428 294.579L246.395 294.556C244.84 293.147 240.927 293.262 235.653 294.874Z" fill="white"/>
<path d="M220.826 308.918C210.674 315.722 204.177 323.689 204.896 327.884C205.989 327.98 207.121 328.012 208.293 327.981C208.698 326.803 209.276 325.608 210.017 324.414C212.711 320.057 217.512 315.428 223.543 311.385C229.57 307.344 236.162 304.333 242.081 302.911C243.708 302.517 245.311 302.251 246.86 302.118C247.079 301.221 247.209 300.34 247.251 299.482C242.042 298.298 230.972 302.113 220.823 308.917M230.961 290.435C224.948 292.294 217.958 295.783 211.288 300.26C204.618 304.736 199.151 309.593 195.887 313.954C193.401 317.277 192.516 319.949 193.358 321.459C196.207 315.793 203.286 308.637 213.198 301.99C223.11 295.343 233.243 290.955 240.848 289.613C239.063 288.736 235.544 289.019 230.961 290.435Z" fill="white"/>
</g>
<path fill-rule="evenodd" clip-rule="evenodd" d="M82.3798 151.433C76.7403 159.51 76.2366 171.173 82.2055 184.508C94.1431 211.176 127.45 234.43 156.599 236.446C171.173 237.455 181.948 232.963 187.588 224.885L199.34 208.052C204.979 199.974 205.483 188.311 199.514 174.977C187.577 148.309 154.27 125.055 125.121 123.038C110.547 122.03 99.7717 126.522 94.1322 134.599L82.3798 151.433Z" fill="#663FFF" fill-opacity="0.2" stroke="#987EFF" stroke-opacity="0.2" stroke-width="1.28312"/>
<ellipse cx="34.1277" cy="34.1277" rx="34.1277" ry="34.1277" transform="matrix(0.996311 0.0858217 0.423889 0.905714 98.5684 137.058)" fill="#987EFF" fill-opacity="0.2"/>
<path d="M127.36 127.267C153.481 129.517 183.665 150.591 194.778 174.336C205.891 198.082 193.725 215.507 167.605 213.257C141.484 211.007 111.3 189.934 100.187 166.188C89.0736 142.443 101.24 125.017 127.36 127.267Z" stroke="#987EFF" stroke-opacity="0.2" stroke-width="2.56624"/>
<path d="M145.016 177.245C148.15 177.56 149.682 175.584 148.442 172.834C147.202 170.081 143.657 167.598 140.529 167.283C137.394 166.968 135.863 168.944 137.102 171.694C138.343 174.447 141.887 176.931 145.016 177.245ZM159.84 178.735C162.969 179.05 164.503 177.074 163.264 174.324C162.023 171.571 158.479 169.088 155.351 168.773C152.222 168.459 150.684 170.434 151.924 173.184C153.165 175.937 156.712 178.421 159.84 178.735Z" fill="white"/>
<path d="M140.905 152.444C125.507 150.897 118.06 160.816 124.274 174.596L131.398 175.312C126.744 164.987 132.189 157.54 143.724 158.7C155.259 159.859 168.251 169.158 172.904 179.484L180.029 180.2C173.819 166.42 156.3 153.992 140.905 152.444Z" fill="white"/>
<path fill-rule="evenodd" clip-rule="evenodd" d="M719.672 252.395C722.242 258.877 728.932 263.724 739.135 265.401C759.54 268.756 786.265 258.16 798.828 241.734C805.109 233.521 806.66 225.406 804.091 218.925L798.735 205.418C796.166 198.936 789.475 194.089 779.272 192.411C758.867 189.057 732.142 199.653 719.579 216.079C713.298 224.291 711.747 232.407 714.317 238.888L719.672 252.395Z" fill="#663FFF" fill-opacity="0.2" stroke="#987EFF" stroke-opacity="0.2" stroke-width="0.908119"/>
<circle cx="24.1537" cy="24.1537" r="24.1537" transform="matrix(0.620798 -0.78397 0.989347 0.145579 717.496 237.228)" fill="#987EFF" fill-opacity="0.2"/>
<circle cx="34.5052" cy="34.5052" r="33.5971" transform="matrix(0.620798 -0.78397 0.989347 0.145579 700.629 243.326)" stroke="#987EFF" stroke-opacity="0.2" stroke-width="1.81624"/>
<g clip-path="url(#clip1_1447_3181)">
<path fill-rule="evenodd" clip-rule="evenodd" d="M742.174 218.109L733.806 228.373L743.661 229.967L741.559 232.546L745.937 233.255L748.04 230.676L750.231 231.03L748.128 233.609L752.506 234.318L754.609 231.739L764.463 233.333L772.831 223.069C774.827 220.626 775.834 218.086 775.718 215.785C775.603 213.485 774.372 211.53 772.186 210.18L774.232 207.67L769.854 206.962L768.423 208.716C767.728 208.556 766.996 208.438 766.232 208.362L767.663 206.607L763.284 205.899L761.239 208.408C757.617 208.821 753.858 209.969 750.456 211.7C747.053 213.432 744.167 215.666 742.176 218.109M765.606 212.171C764.926 211.994 764.197 211.876 763.419 211.818L750.847 227.237L753.035 227.591L765.614 212.163L765.606 212.171ZM757.415 228.3L762.888 229.186L768.298 222.55C770.962 219.283 771.095 216.066 769.062 214.014L757.415 228.3ZM746.467 226.529L758.122 212.234C755.796 212.756 753.494 213.654 751.441 214.84C749.387 216.026 747.653 217.459 746.408 218.999L740.992 225.643L746.467 226.529Z" fill="white"/>
</g>
<path fill-rule="evenodd" clip-rule="evenodd" d="M890.52 180.269C886.881 188.282 888.337 198.609 895.749 209.35C910.574 230.832 943.614 245.838 969.546 242.866C982.512 241.38 991.246 235.682 994.885 227.669L1002.47 210.971C1006.11 202.958 1004.65 192.631 997.24 181.89C982.415 160.408 949.375 145.402 923.443 148.373C910.477 149.859 901.744 155.558 898.104 163.571L890.52 180.269Z" fill="#663FFF" fill-opacity="0.2" stroke="#987EFF" stroke-opacity="0.2" stroke-width="1.14624"/>
<ellipse cx="30.487" cy="30.487" rx="30.487" ry="30.487" transform="matrix(0.995275 -0.0970941 0.581775 0.81335 902.402 165.008)" fill="#987EFF" fill-opacity="0.2"/>
<path d="M926.096 151.724C949.406 149.45 979.348 163.048 992.974 182.097C1006.6 201.146 998.748 218.433 975.438 220.707C952.129 222.981 922.186 209.381 908.561 190.332C894.936 171.283 902.786 153.998 926.096 151.724Z" stroke="#987EFF" stroke-opacity="0.2" stroke-width="2.29248"/>
<g clip-path="url(#clip2_1447_3181)">
<path fill-rule="evenodd" clip-rule="evenodd" d="M962.99 204.01C974.979 203.012 979.102 194.268 972.244 184.384C965.385 174.5 950.24 167.358 938.25 168.356C926.261 169.353 922.138 178.098 928.997 187.982C935.855 197.866 951.001 205.007 962.99 204.01ZM958.521 188.505C956.721 185.91 954.211 185.176 950.171 185.122C947.26 185.046 946.309 184.501 945.584 183.455C944.865 182.419 945.308 181.676 947.105 181.527C948.726 181.392 949.94 181.76 951.158 182.838C951.408 183.052 951.778 183.174 952.049 183.152L953.481 183.033C953.566 183.028 953.64 183.009 953.7 182.978C953.76 182.947 953.805 182.903 953.831 182.85C953.857 182.797 953.864 182.736 953.852 182.67C953.839 182.604 953.808 182.535 953.76 182.467L953.706 182.39C952.204 180.782 949.501 179.358 947.334 179.385L946.198 177.747C945.989 177.446 945.562 177.245 945.072 177.216L943.883 177.315C943.518 177.346 943.333 177.596 943.495 177.972L944.631 179.61C942.136 180.134 941.522 181.989 942.813 183.849C944.514 186.301 946.977 187.11 951.023 187.174C953.805 187.33 954.926 187.708 955.754 188.901C956.574 190.083 955.873 191.013 954.172 191.155C951.817 191.35 950.438 190.594 949.393 189.501C949.11 189.219 948.733 189.084 948.461 189.107L946.921 189.235C946.837 189.241 946.764 189.261 946.706 189.294C946.647 189.326 946.604 189.371 946.58 189.424C946.556 189.478 946.55 189.54 946.564 189.606C946.579 189.672 946.612 189.742 946.662 189.81L946.717 189.889C948.351 191.71 950.678 192.859 953.907 192.978L955.052 194.628C955.261 194.929 955.669 195.107 956.171 195.149L957.468 195.041C957.819 195.012 957.924 194.79 957.755 194.403L956.61 192.753C959.059 192.162 959.913 190.511 958.521 188.505ZM947.328 195.309C949.32 196.187 951.381 196.823 953.393 197.182C953.771 197.316 954.243 197.583 954.398 197.807L955.124 198.852C955.224 198.997 955.279 199.076 955.229 199.15C955.358 199.457 955.093 199.632 954.628 199.518C950.752 198.929 946.712 197.468 943.093 195.347C939.474 193.226 936.463 190.554 934.495 187.717C932.526 184.881 931.703 182.026 932.144 179.567C932.585 177.108 934.267 175.172 936.947 174.037C936.997 173.962 937.17 173.948 937.266 173.94C937.678 173.976 938.009 174.186 938.216 174.485L938.936 175.523C939.197 175.899 939.177 176.138 938.912 176.312C937.45 177.014 936.385 178.03 935.792 179.287C935.199 180.544 935.093 182.013 935.482 183.587C935.984 185.728 937.379 187.986 939.488 190.074C941.598 192.162 944.327 193.984 947.326 195.309M946.262 173.581C946.135 173.273 946.4 173.098 946.865 173.212C949.803 173.669 952.845 174.624 955.737 175.997C958.629 177.369 961.287 179.121 963.49 181.104C971.086 187.931 971.608 195.832 964.601 198.772C964.55 198.845 964.375 198.86 964.281 198.868C963.87 198.833 963.54 198.624 963.331 198.323L962.612 197.287C962.349 196.908 962.371 196.672 962.634 196.495C964.096 195.793 965.161 194.778 965.754 193.521C966.346 192.264 966.452 190.796 966.063 189.222C965.731 187.801 965.003 186.321 963.921 184.866C962.839 183.412 961.425 182.012 959.76 180.748C958.095 179.484 956.212 178.38 954.22 177.501C952.228 176.623 950.167 175.986 948.155 175.627C947.775 175.493 947.305 175.227 947.096 174.926L946.377 173.89C946.269 173.733 946.222 173.666 946.265 173.581" fill="white"/>
</g>
<path fill-rule="evenodd" clip-rule="evenodd" d="M973.712 347.95C971.73 357.549 975.851 368.408 986.544 378.253C1007.93 397.943 1047.51 406.117 1074.95 396.511C1088.67 391.708 1096.76 383.37 1098.74 373.771L1102.87 353.767C1104.85 344.167 1100.73 333.308 1090.04 323.463C1068.65 303.774 1029.07 295.599 1001.63 305.205C987.912 310.008 979.826 318.347 977.844 327.946L973.712 347.95Z" fill="#663FFF" fill-opacity="0.2" stroke="#987EFF" stroke-opacity="0.2" stroke-width="1.27664"/>
<ellipse cx="33.9555" cy="33.9555" rx="33.9555" ry="33.9555" transform="matrix(0.949265 -0.314478 0.747021 0.664801 982.865 328.45)" fill="#987EFF" fill-opacity="0.2"/>
<path d="M1005.34 308.192C1030.1 299.989 1065.97 307.397 1085.45 324.738C1104.94 342.08 1100.66 362.788 1075.9 370.991C1051.14 379.194 1015.27 371.786 995.784 354.445C976.298 337.103 980.575 316.395 1005.34 308.192Z" stroke="#987EFF" stroke-opacity="0.2" stroke-width="2.55329"/>
<path d="M1041.11 346.944C1044.1 346.001 1044.73 343.593 1042.51 341.566C1040.3 339.537 1036.08 338.659 1033.1 339.6C1030.11 340.543 1029.49 342.951 1031.7 344.978C1033.92 347.007 1038.13 347.885 1041.11 346.944ZM1055.25 342.483C1058.23 341.542 1058.86 339.133 1056.65 337.106C1054.43 335.076 1050.22 334.199 1047.23 335.14C1044.25 336.081 1043.62 338.491 1045.83 340.518C1048.05 342.547 1052.27 343.424 1055.25 342.483Z" fill="white"/>
<path d="M1027.61 325.888C1012.93 330.521 1010.02 342.514 1021.11 352.67L1027.91 350.526C1019.6 342.915 1021.65 333.97 1032.65 330.499C1043.65 327.028 1059.18 330.425 1067.49 338.036L1074.28 335.892C1063.19 325.736 1042.29 321.256 1027.61 325.888Z" fill="white"/>
<path fill-rule="evenodd" clip-rule="evenodd" d="M324.653 240.531C323.056 247.354 325.798 255.191 333.256 262.427C348.172 276.899 376.305 283.482 396.094 277.132C405.988 273.956 411.922 268.148 413.519 261.326L416.846 247.107C418.443 240.284 415.701 232.446 408.243 225.21C393.327 210.739 365.194 204.155 345.406 210.506C335.511 213.682 329.577 219.489 327.98 226.312L324.653 240.531Z" fill="#663FFF" fill-opacity="0.2" stroke="#987EFF" stroke-opacity="0.2" stroke-width="0.912665"/>
<ellipse cx="24.2746" cy="24.2746" rx="24.2746" ry="24.2746" transform="matrix(0.95718 -0.289495 0.729343 0.684148 331.561 226.767)" fill="#987EFF" fill-opacity="0.2"/>
<path d="M347.999 212.711C365.849 207.313 391.344 213.278 404.945 226.036C418.546 238.794 415.102 253.513 397.252 258.912C379.403 264.31 353.907 258.344 340.307 245.586C326.706 232.828 330.15 218.11 347.999 212.711Z" stroke="#987EFF" stroke-opacity="0.2" stroke-width="1.82533"/>
<g clip-path="url(#clip3_1447_3181)">
<path d="M384.671 247.228L355.8 240.155L354.51 230.978L375.054 225.082L389.013 230.624L384.671 247.228ZM375.144 235.953L373.628 234.489C376.727 233.738 379.954 233.358 381.382 233.656C381.037 234.58 377.92 236.074 374.217 237.137C370.514 238.2 366.438 238.769 364.776 238.421C365.064 237.629 367.435 236.413 370.299 235.435L371.823 236.906L375.144 235.953ZM364.77 238.416L365.683 239.297C367.104 239.599 370.322 239.211 373.444 238.471L376.795 241.705L380.116 240.752L376.76 237.512C379.637 236.547 382 235.324 382.289 234.532L380.469 232.775C379.047 232.474 375.814 232.856 372.708 233.601L371.415 232.353L376.397 230.923L374.532 229.123L361.247 232.936L363.112 234.736L368.094 233.306L369.386 234.554C366.505 235.528 364.151 236.748 363.863 237.54L364.77 238.416Z" fill="white"/>
</g>
<mask id="path-28-inside-1_1447_3181" fill="white">
<path d="M212.578 -70.9863L238.223 -18.9515C313.804 134.404 469.932 231.516 640.9 231.516C466.348 246.836 310.864 348.014 226.156 501.401L212.578 525.987C249.329 331.347 249.813 131.594 214.005 -63.2214L212.578 -70.9863Z"/>
</mask>
<path d="M212.578 -70.9863L238.223 -18.9515C313.804 134.404 469.932 231.516 640.9 231.516C466.348 246.836 310.864 348.014 226.156 501.401L212.578 525.987C249.329 331.347 249.813 131.594 214.005 -63.2214L212.578 -70.9863Z" fill="url(#paint0_linear_1447_3181)" fill-opacity="0.4"/>
<path d="M212.578 -70.9863L214.365 -71.8672L210.618 -70.6261L212.578 -70.9863ZM226.156 501.401L224.412 500.438L226.156 501.401ZM226.156 501.401L224.412 500.438L210.834 525.024L212.578 525.987L214.322 526.95L227.9 502.364L226.156 501.401ZM212.578 -70.9863L210.791 -70.1055L236.436 -18.0706L238.223 -18.9515L240.011 -19.8323L214.365 -71.8672L212.578 -70.9863ZM214.005 -63.2214L215.965 -63.5816L214.538 -71.3465L212.578 -70.9863L210.618 -70.6261L212.046 -62.8612L214.005 -63.2214ZM212.578 525.987L214.536 526.357C251.333 331.476 251.817 131.475 215.965 -63.5816L214.005 -63.2214L212.046 -62.8612C247.809 131.713 247.326 331.219 210.62 525.617L212.578 525.987ZM238.223 -18.9515L236.436 -18.0706C312.353 135.965 469.173 233.508 640.9 233.508V231.516V229.523C470.69 229.523 315.256 132.842 240.011 -19.8323L238.223 -18.9515ZM640.9 231.516L640.726 229.531C465.513 244.909 309.441 346.47 224.412 500.438L226.156 501.401L227.9 502.364C312.288 349.558 467.183 248.763 641.075 233.501L640.9 231.516Z" fill="url(#paint1_linear_1447_3181)" fill-opacity="0.2" mask="url(#path-28-inside-1_1447_3181)"/>
<mask id="path-30-inside-2_1447_3181" fill="white">
<path d="M919.805 -70.9863L894.159 -18.9515C818.578 134.404 662.451 231.516 491.482 231.516C666.035 246.836 821.518 348.014 906.227 501.401L919.805 525.987C883.053 331.347 882.57 131.594 918.377 -63.2214L919.805 -70.9863Z"/>
</mask>
<path d="M919.805 -70.9863L894.159 -18.9515C818.578 134.404 662.451 231.516 491.482 231.516C666.035 246.836 821.518 348.014 906.227 501.401L919.805 525.987C883.053 331.347 882.57 131.594 918.377 -63.2214L919.805 -70.9863Z" fill="url(#paint2_linear_1447_3181)" fill-opacity="0.4"/>
<path d="M919.805 -70.9863L918.017 -71.8672L921.764 -70.6261L919.805 -70.9863ZM906.227 501.401L907.971 500.438L921.549 525.024L919.805 525.987L918.06 526.95L904.483 502.364L906.227 501.401ZM919.805 -70.9863L921.592 -70.1055L895.947 -18.0706L894.159 -18.9515L892.372 -19.8324L918.017 -71.8672L919.805 -70.9863ZM918.377 -63.2214L916.418 -63.5816L917.845 -71.3465L919.805 -70.9863L921.764 -70.6261L920.337 -62.8611L918.377 -63.2214ZM919.805 525.987L917.847 526.357C881.05 331.476 880.565 131.475 916.418 -63.5816L918.377 -63.2214L920.337 -62.8611C884.574 131.713 885.057 331.219 921.763 525.617L919.805 525.987ZM894.159 -18.9515L895.947 -18.0706C820.03 135.965 663.21 233.508 491.482 233.508V231.516V229.523C661.692 229.523 817.127 132.842 892.372 -19.8324L894.159 -18.9515ZM491.482 231.516L491.657 229.531C666.87 244.909 822.942 346.47 907.971 500.438L906.227 501.401L904.483 502.364C820.095 349.558 665.2 248.763 491.308 233.501L491.482 231.516Z" fill="url(#paint3_linear_1447_3181)" fill-opacity="0.2" mask="url(#path-30-inside-2_1447_3181)"/>
<rect x="546.035" y="208.814" width="47.0898" height="49.2871" fill="#281966" fill-opacity="0.4"/>
<path fill-rule="evenodd" clip-rule="evenodd" d="M538.706 198.161C539.616 180.44 552.796 165.832 569.583 165.832C586.369 165.832 599.549 180.44 600.459 198.161C605.433 201.123 609.154 206.048 610.936 211.872C611.75 214.532 611.961 217.326 611.925 220.494C611.889 223.592 611.606 227.401 611.252 232.159L611.165 233.341C610.613 240.798 610.241 245.834 608.446 249.945C606.056 255.42 601.872 259.788 596.634 262.077C594.439 263.037 592.159 263.433 589.631 263.619C587.193 263.799 584.22 263.799 580.586 263.799H558.579C554.945 263.799 551.972 263.799 549.534 263.619C547.006 263.433 544.726 263.037 542.531 262.077C537.293 259.788 533.109 255.42 530.719 249.945C528.924 245.833 528.552 240.798 528 233.341L527.913 232.16C527.559 227.401 527.276 223.592 527.24 220.494C527.204 217.326 527.415 214.532 528.229 211.872C530.011 206.048 533.732 201.123 538.706 198.161ZM548.458 195.415C548.658 195.401 548.86 195.388 549.064 195.376C551.663 195.222 554.815 195.222 558.616 195.222H580.549C584.35 195.222 587.502 195.222 590.101 195.376C590.305 195.388 590.507 195.401 590.707 195.415C588.758 183.917 579.798 175.628 569.583 175.628C559.367 175.628 550.407 183.917 548.458 195.415ZM569.583 214.815C564.25 214.815 560.508 219.548 560.508 224.612C560.508 227.995 562.178 231.231 564.878 233.006V239.307C564.878 242.012 566.985 244.206 569.583 244.206C572.182 244.206 574.288 242.012 574.288 239.307V233.006C576.988 231.231 578.659 227.995 578.659 224.612C578.659 219.548 574.916 214.815 569.583 214.815Z" fill="white" stroke="#987EFF" stroke-opacity="0.2" stroke-width="1.99256" stroke-linecap="round" stroke-linejoin="round"/>
<defs>
<linearGradient id="paint0_linear_1447_3181" x1="499.63" y1="227.5" x2="242.617" y2="227.5" gradientUnits="userSpaceOnUse">
<stop stop-color="#663FFF" stop-opacity="0.4"/>
<stop offset="1" stop-color="#663FFF" stop-opacity="0"/>
</linearGradient>
<linearGradient id="paint1_linear_1447_3181" x1="561.285" y1="235.618" x2="231.469" y2="230.444" gradientUnits="userSpaceOnUse">
<stop stop-color="#987EFF" stop-opacity="0"/>
<stop offset="0.25767" stop-color="#987EFF"/>
<stop offset="1" stop-color="#987EFF" stop-opacity="0"/>
</linearGradient>
<linearGradient id="paint2_linear_1447_3181" x1="632.753" y1="227.5" x2="889.766" y2="227.5" gradientUnits="userSpaceOnUse">
<stop stop-color="#663FFF" stop-opacity="0.4"/>
<stop offset="1" stop-color="#663FFF" stop-opacity="0"/>
</linearGradient>
<linearGradient id="paint3_linear_1447_3181" x1="571.097" y1="235.618" x2="900.914" y2="230.444" gradientUnits="userSpaceOnUse">
<stop stop-color="#987EFF" stop-opacity="0"/>
<stop offset="0.25767" stop-color="#987EFF"/>
<stop offset="1" stop-color="#987EFF" stop-opacity="0"/>
</linearGradient>
<clipPath id="clip0_1447_3181">
<rect width="65.5445" height="65.5445" fill="white" transform="matrix(0.579649 -0.814866 0.995519 0.0945576 167.986 331.504)"/>
</clipPath>
<clipPath id="clip1_1447_3181">
<rect width="45.8417" height="45.8417" fill="white" transform="matrix(0.631901 -0.775049 0.987163 0.159717 720.787 234.211)"/>
</clipPath>
<clipPath id="clip2_1447_3181">
<rect width="57.8619" height="57.8619" fill="white" transform="matrix(0.996557 -0.0829093 0.57008 0.821589 905.297 164.813)"/>
</clipPath>
<clipPath id="clip3_1447_3181">
<rect width="46.0712" height="46.0712" fill="white" transform="matrix(0.961205 -0.275833 0.719481 0.694512 336.01 227.985)"/>
</clipPath>
</defs>
</svg>
