<svg width="1121" height="387" viewBox="0 0 1121 387" fill="none" xmlns="http://www.w3.org/2000/svg">
<g clip-path="url(#clip0_1447_3499)">
<g filter="url(#filter0_d_1447_3499)">
<rect x="65.9883" y="78.3652" width="250.864" height="49.6214" rx="24.8107" fill="#352185" fill-opacity="0.4" shape-rendering="crispEdges"/>
<rect x="66.6775" y="79.0544" width="249.486" height="48.2431" rx="24.1215" stroke="#987EFF" stroke-opacity="0.2" stroke-width="1.37837" shape-rendering="crispEdges"/>
<path d="M105.994 112.563C105.431 112.563 104.95 112.363 104.55 111.963C104.149 111.562 103.949 111.081 103.949 110.519V96.208C103.949 95.6458 104.149 95.1645 104.55 94.7641C104.95 94.3638 105.431 94.1636 105.994 94.1636H120.304C120.867 94.1636 121.348 94.3638 121.748 94.7641C122.149 95.1645 122.349 95.6458 122.349 96.208H114.171C112.962 96.208 111.978 96.5871 111.22 97.3452C110.462 98.1033 110.082 99.0872 110.082 100.297V106.43C110.082 107.64 110.462 108.624 111.22 109.382C111.978 110.14 112.962 110.519 114.171 110.519H122.349C122.349 111.081 122.149 111.562 121.748 111.963C121.348 112.363 120.867 112.563 120.304 112.563H105.994ZM114.171 108.474C113.609 108.474 113.128 108.274 112.727 107.874C112.327 107.474 112.127 106.992 112.127 106.43V100.297C112.127 99.7346 112.327 99.2533 112.727 98.8529C113.128 98.4526 113.609 98.2524 114.171 98.2524H121.327C121.889 98.2524 122.37 98.4526 122.771 98.8529C123.171 99.2533 123.371 99.7346 123.371 100.297V106.43C123.371 106.992 123.171 107.474 122.771 107.874C122.37 108.274 121.889 108.474 121.327 108.474H114.171ZM117.238 104.897C117.681 104.897 118.047 104.752 118.337 104.462C118.626 104.173 118.771 103.806 118.771 103.363C118.771 102.92 118.626 102.554 118.337 102.265C118.047 101.975 117.681 101.83 117.238 101.83C116.795 101.83 116.429 101.975 116.139 102.265C115.849 102.554 115.705 102.92 115.705 103.363C115.705 103.806 115.849 104.173 116.139 104.462C116.429 104.752 116.795 104.897 117.238 104.897Z" fill="white"/>
<path d="M134.961 110.176V96.2017H139.536C140.442 96.2017 141.227 96.374 141.891 96.7185C142.567 97.0631 143.084 97.5544 143.442 98.1925C143.812 98.8178 143.997 99.558 143.997 100.413C143.997 101.255 143.812 101.996 143.442 102.634C143.071 103.272 142.555 103.763 141.891 104.108C141.227 104.452 140.442 104.624 139.536 104.624H137.029V110.176H134.961ZM137.029 102.768H139.536C140.251 102.768 140.819 102.557 141.24 102.136C141.674 101.702 141.891 101.128 141.891 100.413C141.891 99.6856 141.674 99.1113 141.24 98.6902C140.819 98.2691 140.251 98.0585 139.536 98.0585H137.029V102.768ZM146.439 110.176V96.2017H150.823C151.704 96.2017 152.469 96.374 153.12 96.7185C153.771 97.0503 154.275 97.5225 154.632 98.1351C155.003 98.7476 155.188 99.4687 155.188 100.298C155.188 101.23 154.945 102.04 154.46 102.729C153.988 103.406 153.344 103.884 152.527 104.165L155.379 110.176H153.024L150.479 104.433H148.507V110.176H146.439ZM148.507 102.614H150.823C151.512 102.614 152.061 102.41 152.469 102.002C152.878 101.581 153.082 101.026 153.082 100.336C153.082 99.6218 152.878 99.0603 152.469 98.6519C152.061 98.2436 151.512 98.0394 150.823 98.0394H148.507V102.614ZM158.186 110.176V108.338H160.999V98.0394H158.186V96.2017H165.919V98.0394H163.105V108.338H165.919V110.176H158.186ZM172.152 110.176L168.611 96.2017H170.736L172.975 105.505C173.116 106.054 173.237 106.602 173.339 107.151C173.454 107.687 173.537 108.108 173.588 108.415C173.639 108.108 173.709 107.687 173.798 107.151C173.9 106.602 174.022 106.047 174.162 105.486L176.383 96.2017H178.45L174.89 110.176H172.152ZM181.065 110.176V96.2017H189.277V98.0394H183.094V102.002H188.607V103.82H183.094V108.338H189.277V110.176H181.065ZM195.453 110.176V98.0968H191.72V96.1825H201.253V98.0968H197.52V110.176H195.453ZM219.519 110.367C218.652 110.367 217.892 110.208 217.241 109.889C216.603 109.557 216.106 109.085 215.748 108.472C215.404 107.847 215.231 107.119 215.231 106.29V100.088C215.231 99.2453 215.404 98.5179 215.748 97.9054C216.106 97.2928 216.603 96.827 217.241 96.508C217.892 96.1761 218.652 96.0102 219.519 96.0102C220.387 96.0102 221.14 96.1761 221.778 96.508C222.416 96.8398 222.908 97.3119 223.252 97.9245C223.609 98.5243 223.788 99.2453 223.788 100.088H221.721C221.721 99.3602 221.529 98.8051 221.146 98.4222C220.764 98.0394 220.221 97.8479 219.519 97.8479C218.817 97.8479 218.269 98.0394 217.873 98.4222C217.49 98.8051 217.299 99.3538 217.299 100.068V106.29C217.299 107.004 217.49 107.56 217.873 107.955C218.269 108.338 218.817 108.53 219.519 108.53C220.221 108.53 220.764 108.338 221.146 107.955C221.529 107.56 221.721 107.004 221.721 106.29H223.788C223.788 107.119 223.609 107.84 223.252 108.453C222.908 109.066 222.416 109.538 221.778 109.869C221.14 110.201 220.387 110.367 219.519 110.367ZM226.786 110.176V96.2017H231.17C232.05 96.2017 232.816 96.374 233.467 96.7185C234.118 97.0503 234.622 97.5225 234.979 98.1351C235.349 98.7476 235.534 99.4687 235.534 100.298C235.534 101.23 235.292 102.04 234.807 102.729C234.335 103.406 233.69 103.884 232.873 104.165L235.726 110.176H233.371L230.825 104.433H228.853V110.176H226.786ZM228.853 102.614H231.17C231.859 102.614 232.408 102.41 232.816 102.002C233.224 101.581 233.429 101.026 233.429 100.336C233.429 99.6218 233.224 99.0603 232.816 98.6519C232.408 98.2436 231.859 98.0394 231.17 98.0394H228.853V102.614ZM238.456 110.176V96.2017H246.668V98.0394H240.485V102.002H245.998V103.82H240.485V108.338H246.668V110.176H238.456ZM249.723 110.176V96.2017H253.628C254.547 96.2017 255.345 96.3803 256.021 96.7377C256.697 97.0822 257.221 97.5736 257.591 98.2116C257.974 98.8497 258.165 99.6027 258.165 100.47V105.888C258.165 106.743 257.974 107.496 257.591 108.147C257.221 108.798 256.697 109.302 256.021 109.659C255.345 110.003 254.547 110.176 253.628 110.176H249.723ZM251.791 108.3H253.628C254.394 108.3 254.994 108.089 255.428 107.668C255.874 107.234 256.098 106.641 256.098 105.888V100.47C256.098 99.7303 255.874 99.1496 255.428 98.7285C254.994 98.2946 254.394 98.0776 253.628 98.0776H251.791V108.3ZM261.488 110.176V108.338H264.302V98.0394H261.488V96.2017H269.222V98.0394H266.408V108.338H269.222V110.176H261.488ZM275.8 110.176V98.0968H272.067V96.1825H281.6V98.0968H277.867V110.176H275.8Z" fill="white"/>
</g>
<g filter="url(#filter1_d_1447_3499)">
<rect x="65.9883" y="159.689" width="250.864" height="49.6214" rx="24.8107" fill="#352185" fill-opacity="0.4" shape-rendering="crispEdges"/>
<rect x="66.6775" y="160.378" width="249.486" height="48.2431" rx="24.1215" stroke="#987EFF" stroke-opacity="0.2" stroke-width="1.37837" shape-rendering="crispEdges"/>
<path d="M87.4609 193.7V179.388H91.55V175.299H101.773V183.478H105.862V193.7H97.6837V189.611H95.6391V193.7H87.4609ZM89.5055 191.656H91.55V189.611H89.5055V191.656ZM89.5055 187.567H91.55V185.522H89.5055V187.567ZM89.5055 183.478H91.55V181.433H89.5055V183.478ZM93.5946 187.567H95.6391V185.522H93.5946V187.567ZM93.5946 183.478H95.6391V181.433H93.5946V183.478ZM93.5946 179.388H95.6391V177.344H93.5946V179.388ZM97.6837 187.567H99.7282V185.522H97.6837V187.567ZM97.6837 183.478H99.7282V181.433H97.6837V183.478ZM97.6837 179.388H99.7282V177.344H97.6837V179.388ZM101.773 191.656H103.817V189.611H101.773V191.656ZM101.773 187.567H103.817V185.522H101.773V187.567Z" fill="white"/>
<path d="M117.744 191.5V177.525H122.128C123.008 177.525 123.774 177.698 124.425 178.042C125.076 178.374 125.58 178.846 125.937 179.459C126.307 180.071 126.492 180.792 126.492 181.622C126.492 182.554 126.25 183.364 125.765 184.053C125.293 184.729 124.648 185.208 123.832 185.489L126.684 191.5H124.329L121.783 185.757H119.812V191.5H117.744ZM119.812 183.938H122.128C122.817 183.938 123.366 183.734 123.774 183.326C124.182 182.904 124.387 182.349 124.387 181.66C124.387 180.946 124.182 180.384 123.774 179.976C123.366 179.567 122.817 179.363 122.128 179.363H119.812V183.938ZM129.414 191.5V177.525H137.626V179.363H131.443V183.326H136.956V185.144H131.443V189.662H137.626V191.5H129.414ZM139.916 191.5L143.476 177.525H146.194L149.755 191.5H147.668L146.826 187.958H142.863L142.021 191.5H139.916ZM143.246 186.254H146.424L145.467 182.215C145.301 181.501 145.161 180.882 145.046 180.359C144.944 179.823 144.873 179.459 144.835 179.267C144.797 179.459 144.727 179.823 144.625 180.359C144.523 180.882 144.382 181.494 144.203 182.196L143.246 186.254ZM152.657 191.5V177.525H154.724V189.604H160.831V191.5H152.657ZM175.441 191.5L173.929 177.525H175.785L176.723 187.556C176.749 187.811 176.768 188.092 176.781 188.398C176.806 188.705 176.826 189.005 176.838 189.298C176.864 189.592 176.877 189.847 176.877 190.064C176.902 189.847 176.928 189.592 176.953 189.298C176.979 189.005 177.004 188.705 177.03 188.398C177.068 188.092 177.106 187.811 177.145 187.556L178.351 177.525H180.265L181.394 187.556C181.42 187.811 181.445 188.092 181.471 188.398C181.509 188.705 181.547 189.005 181.586 189.298C181.624 189.592 181.65 189.847 181.662 190.064C181.675 189.847 181.688 189.592 181.701 189.298C181.726 189.005 181.752 188.705 181.777 188.398C181.803 188.092 181.828 187.811 181.854 187.556L182.811 177.525H184.61L183.041 191.5H180.648L179.518 181.335C179.493 181.067 179.467 180.786 179.442 180.493C179.416 180.186 179.391 179.893 179.365 179.612C179.34 179.318 179.314 179.076 179.289 178.885C179.276 179.076 179.257 179.318 179.231 179.612C179.206 179.893 179.18 180.186 179.155 180.493C179.129 180.786 179.097 181.067 179.059 181.335L177.853 191.5H175.441ZM190.748 191.691C189.88 191.691 189.127 191.531 188.489 191.212C187.863 190.881 187.378 190.408 187.034 189.796C186.702 189.17 186.536 188.443 186.536 187.614V181.411C186.536 180.569 186.702 179.842 187.034 179.229C187.378 178.617 187.863 178.151 188.489 177.832C189.127 177.5 189.88 177.334 190.748 177.334C191.615 177.334 192.362 177.5 192.987 177.832C193.625 178.151 194.11 178.617 194.442 179.229C194.787 179.842 194.959 180.563 194.959 181.392V187.614C194.959 188.443 194.787 189.17 194.442 189.796C194.11 190.408 193.625 190.881 192.987 191.212C192.362 191.531 191.615 191.691 190.748 191.691ZM190.748 189.853C191.449 189.853 191.979 189.662 192.336 189.279C192.706 188.883 192.892 188.328 192.892 187.614V181.411C192.892 180.684 192.706 180.129 192.336 179.746C191.979 179.363 191.449 179.172 190.748 179.172C190.058 179.172 189.529 179.363 189.159 179.746C188.789 180.129 188.604 180.684 188.604 181.411V187.614C188.604 188.328 188.789 188.883 189.159 189.279C189.529 189.662 190.058 189.853 190.748 189.853ZM198.091 191.5V177.525H202.474C203.355 177.525 204.121 177.698 204.772 178.042C205.422 178.374 205.927 178.846 206.284 179.459C206.654 180.071 206.839 180.792 206.839 181.622C206.839 182.554 206.597 183.364 206.112 184.053C205.639 184.729 204.995 185.208 204.178 185.489L207.03 191.5H204.676L202.13 185.757H200.158V191.5H198.091ZM200.158 183.938H202.474C203.164 183.938 203.712 183.734 204.121 183.326C204.529 182.904 204.733 182.349 204.733 181.66C204.733 180.946 204.529 180.384 204.121 179.976C203.712 179.567 203.164 179.363 202.474 179.363H200.158V183.938ZM210.047 191.5V177.525H212.115V189.604H218.221V191.5H210.047ZM221.028 191.5V177.525H224.933C225.852 177.525 226.649 177.704 227.326 178.061C228.002 178.406 228.525 178.897 228.895 179.535C229.278 180.173 229.47 180.926 229.47 181.794V187.212C229.47 188.067 229.278 188.82 228.895 189.47C228.525 190.121 228.002 190.625 227.326 190.983C226.649 191.327 225.852 191.5 224.933 191.5H221.028ZM223.095 189.624H224.933C225.699 189.624 226.298 189.413 226.732 188.992C227.179 188.558 227.402 187.965 227.402 187.212V181.794C227.402 181.054 227.179 180.473 226.732 180.052C226.298 179.618 225.699 179.401 224.933 179.401H223.095V189.624ZM243.218 191.5L246.779 177.525H249.497L253.058 191.5H250.971L250.129 187.958H246.166L245.324 191.5H243.218ZM246.549 186.254H249.727L248.77 182.215C248.604 181.501 248.463 180.882 248.349 180.359C248.246 179.823 248.176 179.459 248.138 179.267C248.1 179.459 248.03 179.823 247.927 180.359C247.825 180.882 247.685 181.494 247.506 182.196L246.549 186.254ZM259.674 191.691C258.729 191.691 257.919 191.538 257.242 191.232C256.566 190.912 256.043 190.466 255.673 189.892C255.303 189.304 255.118 188.609 255.118 187.805H257.166C257.166 188.443 257.389 188.947 257.836 189.317C258.282 189.675 258.901 189.853 259.693 189.853C260.433 189.853 261.013 189.675 261.435 189.317C261.856 188.96 262.066 188.469 262.066 187.843C262.066 187.32 261.92 186.867 261.626 186.484C261.345 186.101 260.937 185.84 260.401 185.699L258.64 185.182C257.619 184.889 256.828 184.391 256.266 183.689C255.717 182.975 255.443 182.126 255.443 181.143C255.443 180.378 255.615 179.708 255.96 179.133C256.304 178.559 256.796 178.112 257.434 177.793C258.072 177.474 258.825 177.315 259.693 177.315C260.969 177.315 261.99 177.659 262.755 178.349C263.534 179.038 263.93 179.963 263.942 181.124H261.875C261.875 180.512 261.677 180.033 261.281 179.689C260.899 179.331 260.356 179.153 259.654 179.153C258.978 179.153 258.448 179.318 258.066 179.65C257.683 179.969 257.491 180.422 257.491 181.009C257.491 181.533 257.632 181.986 257.912 182.368C258.206 182.751 258.621 183.019 259.157 183.172L260.937 183.708C261.958 183.989 262.743 184.487 263.291 185.202C263.84 185.916 264.115 186.771 264.115 187.767C264.115 188.545 263.93 189.234 263.559 189.834C263.189 190.421 262.673 190.881 262.009 191.212C261.345 191.531 260.567 191.691 259.674 191.691ZM271.152 191.691C270.207 191.691 269.397 191.538 268.72 191.232C268.044 190.912 267.521 190.466 267.151 189.892C266.781 189.304 266.596 188.609 266.596 187.805H268.644C268.644 188.443 268.867 188.947 269.314 189.317C269.761 189.675 270.38 189.853 271.171 189.853C271.911 189.853 272.492 189.675 272.913 189.317C273.334 188.96 273.544 188.469 273.544 187.843C273.544 187.32 273.398 186.867 273.104 186.484C272.823 186.101 272.415 185.84 271.879 185.699L270.118 185.182C269.097 184.889 268.306 184.391 267.744 183.689C267.195 182.975 266.921 182.126 266.921 181.143C266.921 180.378 267.093 179.708 267.438 179.133C267.782 178.559 268.274 178.112 268.912 177.793C269.55 177.474 270.303 177.315 271.171 177.315C272.447 177.315 273.468 177.659 274.234 178.349C275.012 179.038 275.408 179.963 275.42 181.124H273.353C273.353 180.512 273.155 180.033 272.76 179.689C272.377 179.331 271.834 179.153 271.132 179.153C270.456 179.153 269.926 179.318 269.544 179.65C269.161 179.969 268.969 180.422 268.969 181.009C268.969 181.533 269.11 181.986 269.39 182.368C269.684 182.751 270.099 183.019 270.635 183.172L272.415 183.708C273.436 183.989 274.221 184.487 274.77 185.202C275.318 185.916 275.593 186.771 275.593 187.767C275.593 188.545 275.408 189.234 275.038 189.834C274.667 190.421 274.151 190.881 273.487 191.212C272.823 191.531 272.045 191.691 271.152 191.691ZM278.629 191.5V177.525H286.841V179.363H280.658V183.326H286.171V185.144H280.658V189.662H286.841V191.5H278.629ZM293.017 191.5V179.421H289.284V177.506H298.817V179.421H295.084V191.5H293.017Z" fill="white"/>
</g>
<g filter="url(#filter2_d_1447_3499)">
<rect x="65.9883" y="241.013" width="250.864" height="49.6214" rx="24.8107" fill="#352185" fill-opacity="0.4" shape-rendering="crispEdges"/>
<rect x="66.6775" y="241.702" width="249.486" height="48.2431" rx="24.1215" stroke="#987EFF" stroke-opacity="0.2" stroke-width="1.37837" shape-rendering="crispEdges"/>
<path d="M134.159 270.412V262.109H135.631C135.738 262.109 135.846 262.12 135.953 262.143C136.06 262.166 136.168 262.193 136.275 262.224L142.646 264.593C142.861 264.67 143.034 264.808 143.164 265.007C143.294 265.206 143.359 265.413 143.359 265.628C143.359 265.95 143.248 266.211 143.026 266.41C142.804 266.609 142.547 266.709 142.255 266.709H139.84C139.764 266.709 139.706 266.705 139.668 266.698C139.629 266.69 139.58 266.671 139.518 266.64L138.046 266.065L137.747 266.962L139.518 267.583C139.549 267.599 139.595 267.61 139.656 267.618C139.718 267.625 139.771 267.629 139.817 267.629H146.12C146.61 267.629 147.04 267.806 147.408 268.158C147.776 268.511 147.96 268.948 147.96 269.469L140.622 272.229L134.159 270.412ZM128.639 272.229V262.109H132.319V272.229H128.639Z" fill="white"/>
<path d="M158.186 272.824V270.986H160.999V260.687H158.186V258.85H165.919V260.687H163.105V270.986H165.919V272.824H158.186ZM169.396 272.824V258.85H173.971C174.877 258.85 175.662 259.022 176.325 259.366C177.002 259.711 177.518 260.202 177.876 260.84C178.246 261.466 178.431 262.206 178.431 263.061C178.431 263.903 178.246 264.643 177.876 265.282C177.506 265.92 176.989 266.411 176.325 266.756C175.662 267.1 174.877 267.272 173.971 267.272H171.463V272.824H169.396ZM171.463 265.416H173.971C174.685 265.416 175.253 265.205 175.674 264.784C176.108 264.35 176.325 263.776 176.325 263.061C176.325 262.334 176.108 261.759 175.674 261.338C175.253 260.917 174.685 260.706 173.971 260.706H171.463V265.416ZM192.352 272.824V258.85H196.735C197.616 258.85 198.382 259.022 199.033 259.366C199.683 259.698 200.187 260.17 200.545 260.783C200.915 261.396 201.1 262.117 201.1 262.946C201.1 263.878 200.857 264.688 200.373 265.377C199.9 266.054 199.256 266.532 198.439 266.813L201.291 272.824H198.937L196.391 267.081H194.419V272.824H192.352ZM194.419 265.262H196.735C197.425 265.262 197.973 265.058 198.382 264.65C198.79 264.229 198.994 263.674 198.994 262.984C198.994 262.27 198.79 261.708 198.382 261.3C197.973 260.892 197.425 260.687 196.735 260.687H194.419V265.262ZM204.098 272.824V270.986H206.912V260.687H204.098V258.85H211.831V260.687H209.018V270.986H211.831V272.824H204.098ZM219.519 273.015C218.652 273.015 217.892 272.856 217.241 272.537C216.603 272.205 216.106 271.733 215.748 271.12C215.404 270.495 215.231 269.767 215.231 268.938V262.736C215.231 261.893 215.404 261.166 215.748 260.553C216.106 259.941 216.603 259.475 217.241 259.156C217.892 258.824 218.652 258.658 219.519 258.658C220.387 258.658 221.14 258.824 221.778 259.156C222.416 259.488 222.908 259.96 223.252 260.572C223.609 261.172 223.788 261.893 223.788 262.736H221.721C221.721 262.008 221.529 261.453 221.146 261.07C220.764 260.687 220.221 260.496 219.519 260.496C218.817 260.496 218.269 260.687 217.873 261.07C217.49 261.453 217.299 262.002 217.299 262.716V268.938C217.299 269.652 217.49 270.208 217.873 270.603C218.269 270.999 218.817 271.197 219.519 271.197C220.221 271.197 220.764 270.999 221.146 270.603C221.529 270.208 221.721 269.652 221.721 268.938V267.368H219.117V265.55H223.788V268.938C223.788 269.767 223.609 270.488 223.252 271.101C222.908 271.713 222.416 272.186 221.778 272.517C221.14 272.849 220.387 273.015 219.519 273.015ZM226.805 272.824V258.85H228.873V264.631H232.969V258.85H235.037V272.824H232.969V266.545H228.873V272.824H226.805ZM241.365 272.824V260.745H237.632V258.83H247.165V260.745H243.433V272.824H241.365ZM253.934 273.015C252.99 273.015 252.18 272.862 251.503 272.556C250.827 272.237 250.304 271.79 249.934 271.216C249.564 270.629 249.379 269.933 249.379 269.129H251.427C251.427 269.767 251.65 270.271 252.097 270.641C252.543 270.999 253.162 271.177 253.954 271.177C254.694 271.177 255.274 270.999 255.696 270.641C256.117 270.284 256.327 269.793 256.327 269.167C256.327 268.644 256.181 268.191 255.887 267.808C255.606 267.426 255.198 267.164 254.662 267.024L252.901 266.507C251.88 266.213 251.089 265.715 250.527 265.014C249.978 264.299 249.704 263.45 249.704 262.468C249.704 261.702 249.876 261.032 250.221 260.458C250.565 259.883 251.057 259.437 251.695 259.118C252.333 258.799 253.086 258.639 253.954 258.639C255.23 258.639 256.251 258.984 257.016 259.673C257.795 260.362 258.191 261.287 258.203 262.448H256.136C256.136 261.836 255.938 261.357 255.542 261.013C255.16 260.655 254.617 260.477 253.915 260.477C253.239 260.477 252.709 260.643 252.326 260.974C251.944 261.293 251.752 261.747 251.752 262.334C251.752 262.857 251.893 263.31 252.173 263.693C252.467 264.076 252.882 264.344 253.418 264.497L255.198 265.033C256.219 265.313 257.004 265.811 257.552 266.526C258.101 267.24 258.376 268.096 258.376 269.091C258.376 269.869 258.191 270.559 257.82 271.158C257.45 271.745 256.933 272.205 256.27 272.537C255.606 272.856 254.828 273.015 253.934 273.015Z" fill="white"/>
</g>
<rect x="916.916" y="114.864" width="137.891" height="138.39" rx="68.9454" stroke="white" stroke-opacity="0.1" stroke-width="1.74545"/>
<rect x="933.498" y="131.446" width="105.226" height="105.226" rx="52.613" fill="#352185" fill-opacity="0.4"/>
<rect x="934.745" y="132.693" width="102.732" height="102.732" rx="51.3662" stroke="#987EFF" stroke-opacity="0.2" stroke-width="2.49351"/>
<path d="M974.699 204.031C973.653 204.031 972.757 203.659 972.012 202.914C971.267 202.169 970.895 201.273 970.895 200.227V181.205C970.895 180.159 971.267 179.264 972.012 178.519C972.757 177.774 973.653 177.401 974.699 177.401H976.601V173.597C976.601 170.965 977.528 168.722 979.383 166.868C981.237 165.013 983.48 164.086 986.112 164.086C988.743 164.086 990.986 165.013 992.841 166.868C994.695 168.722 995.623 170.965 995.623 173.597V177.401H997.525C998.571 177.401 999.466 177.774 1000.21 178.519C1000.96 179.264 1001.33 180.159 1001.33 181.205V200.227C1001.33 201.273 1000.96 202.169 1000.21 202.914C999.466 203.659 998.571 204.031 997.525 204.031H974.699ZM986.112 194.52C987.158 194.52 988.054 194.148 988.799 193.403C989.544 192.658 989.916 191.762 989.916 190.716C989.916 189.67 989.544 188.774 988.799 188.029C988.054 187.284 987.158 186.912 986.112 186.912C985.066 186.912 984.17 187.284 983.425 188.029C982.68 188.774 982.307 189.67 982.307 190.716C982.307 191.762 982.68 192.658 983.425 193.403C984.17 194.148 985.066 194.52 986.112 194.52ZM980.405 177.401H991.818V173.597C991.818 172.012 991.263 170.664 990.154 169.555C989.044 168.445 987.697 167.89 986.112 167.89C984.527 167.89 983.179 168.445 982.07 169.555C980.96 170.664 980.405 172.012 980.405 173.597V177.401Z" fill="white"/>
<path d="M938.919 290.181V278.102H935.186V276.187H944.719V278.102H940.986V290.181H938.919ZM951.431 290.372C950.563 290.372 949.81 290.213 949.172 289.894C948.546 289.562 948.062 289.09 947.717 288.477C947.385 287.852 947.219 287.124 947.219 286.295V280.093C947.219 279.25 947.385 278.523 947.717 277.91C948.062 277.298 948.546 276.832 949.172 276.513C949.81 276.181 950.563 276.015 951.431 276.015C952.298 276.015 953.045 276.181 953.67 276.513C954.308 276.832 954.793 277.298 955.125 277.91C955.47 278.523 955.642 279.244 955.642 280.073V286.295C955.642 287.124 955.47 287.852 955.125 288.477C954.793 289.09 954.308 289.562 953.67 289.894C953.045 290.213 952.298 290.372 951.431 290.372ZM951.431 288.534C952.133 288.534 952.662 288.343 953.019 287.96C953.39 287.565 953.575 287.009 953.575 286.295V280.093C953.575 279.365 953.39 278.81 953.019 278.427C952.662 278.044 952.133 277.853 951.431 277.853C950.742 277.853 950.212 278.044 949.842 278.427C949.472 278.81 949.287 279.365 949.287 280.093V286.295C949.287 287.009 949.472 287.565 949.842 287.96C950.212 288.343 950.742 288.534 951.431 288.534ZM958.774 290.181V276.207H960.841V282.026H962.698L965.55 276.207H967.809L964.517 282.906L967.962 290.181H965.646L962.66 283.883H960.841V290.181H958.774ZM970.443 290.181V276.207H978.656V278.044H972.473V282.007H977.986V283.825H972.473V288.343H978.656V290.181H970.443ZM981.673 290.181V276.207H984.276L988.353 287.826C988.328 287.456 988.296 287.016 988.258 286.505C988.219 285.995 988.188 285.465 988.162 284.916C988.149 284.368 988.143 283.87 988.143 283.423V276.207H990.057V290.181H987.454L983.396 278.561C983.421 278.893 983.447 279.308 983.472 279.805C983.51 280.303 983.536 280.82 983.549 281.356C983.574 281.892 983.587 282.39 983.587 282.849V290.181H981.673ZM993.476 290.181V288.343H996.29V278.044H993.476V276.207H1001.21V278.044H998.396V288.343H1001.21V290.181H993.476ZM1004.65 290.181V288.171L1010.6 278.102H1004.76V276.207H1012.8V278.217L1006.85 288.286H1012.99V290.181H1004.65ZM1016.36 290.181V276.207H1024.57V278.044H1018.38V282.007H1023.9V283.825H1018.38V288.343H1024.57V290.181H1016.36ZM1027.62 290.181V276.207H1031.53C1032.45 276.207 1033.24 276.385 1033.92 276.743C1034.6 277.087 1035.12 277.578 1035.49 278.217C1035.87 278.855 1036.07 279.608 1036.07 280.475V285.893C1036.07 286.748 1035.87 287.501 1035.49 288.152C1035.12 288.802 1034.6 289.306 1033.92 289.664C1033.24 290.008 1032.45 290.181 1031.53 290.181H1027.62ZM1029.69 288.305H1031.53C1032.29 288.305 1032.89 288.094 1033.33 287.673C1033.77 287.239 1034 286.646 1034 285.893V280.475C1034 279.735 1033.77 279.155 1033.33 278.733C1032.89 278.299 1032.29 278.083 1031.53 278.083H1029.69V288.305ZM957.989 314.181L961.55 300.207H964.268L967.828 314.181H965.742L964.9 310.639H960.937L960.095 314.181H957.989ZM961.32 308.936H964.498L963.54 304.896C963.375 304.182 963.234 303.563 963.119 303.04C963.017 302.504 962.947 302.14 962.909 301.949C962.87 302.14 962.8 302.504 962.698 303.04C962.596 303.563 962.456 304.175 962.277 304.877L961.32 308.936ZM974.444 314.372C973.5 314.372 972.69 314.219 972.013 313.913C971.337 313.594 970.814 313.147 970.443 312.573C970.073 311.986 969.888 311.29 969.888 310.486H971.937C971.937 311.124 972.16 311.628 972.607 311.998C973.053 312.356 973.672 312.534 974.463 312.534C975.204 312.534 975.784 312.356 976.205 311.998C976.627 311.641 976.837 311.15 976.837 310.524C976.837 310.001 976.69 309.548 976.397 309.165C976.116 308.782 975.708 308.521 975.172 308.38L973.411 307.864C972.39 307.57 971.598 307.072 971.037 306.37C970.488 305.656 970.214 304.807 970.214 303.825C970.214 303.059 970.386 302.389 970.731 301.815C971.075 301.24 971.566 300.794 972.205 300.475C972.843 300.156 973.596 299.996 974.463 299.996C975.74 299.996 976.761 300.341 977.526 301.03C978.305 301.719 978.7 302.644 978.713 303.805H976.646C976.646 303.193 976.448 302.714 976.052 302.37C975.669 302.012 975.127 301.834 974.425 301.834C973.749 301.834 973.219 302 972.836 302.331C972.453 302.65 972.262 303.103 972.262 303.691C972.262 304.214 972.402 304.667 972.683 305.05C972.977 305.432 973.391 305.7 973.927 305.854L975.708 306.39C976.729 306.67 977.513 307.168 978.062 307.883C978.611 308.597 978.885 309.452 978.885 310.448C978.885 311.226 978.7 311.915 978.33 312.515C977.96 313.102 977.443 313.562 976.78 313.894C976.116 314.213 975.338 314.372 974.444 314.372ZM985.922 314.372C984.978 314.372 984.168 314.219 983.491 313.913C982.815 313.594 982.292 313.147 981.922 312.573C981.551 311.986 981.366 311.29 981.366 310.486H983.415C983.415 311.124 983.638 311.628 984.085 311.998C984.531 312.356 985.15 312.534 985.941 312.534C986.682 312.534 987.262 312.356 987.683 311.998C988.105 311.641 988.315 311.15 988.315 310.524C988.315 310.001 988.168 309.548 987.875 309.165C987.594 308.782 987.186 308.521 986.65 308.38L984.889 307.864C983.868 307.57 983.076 307.072 982.515 306.37C981.966 305.656 981.692 304.807 981.692 303.825C981.692 303.059 981.864 302.389 982.209 301.815C982.553 301.24 983.045 300.794 983.683 300.475C984.321 300.156 985.074 299.996 985.941 299.996C987.218 299.996 988.239 300.341 989.004 301.03C989.783 301.719 990.178 302.644 990.191 303.805H988.124C988.124 303.193 987.926 302.714 987.53 302.37C987.147 302.012 986.605 301.834 985.903 301.834C985.227 301.834 984.697 302 984.314 302.331C983.932 302.65 983.74 303.103 983.74 303.691C983.74 304.214 983.88 304.667 984.161 305.05C984.455 305.432 984.87 305.7 985.405 305.854L987.186 306.39C988.207 306.67 988.992 307.168 989.54 307.883C990.089 308.597 990.363 309.452 990.363 310.448C990.363 311.226 990.178 311.915 989.808 312.515C989.438 313.102 988.921 313.562 988.258 313.894C987.594 314.213 986.816 314.372 985.922 314.372ZM993.4 314.181V300.207H1001.61V302.044H995.429V306.007H1000.94V307.825H995.429V312.343H1001.61V314.181H993.4ZM1007.79 314.181V302.102H1004.05V300.187H1013.59V302.102H1009.85V314.181H1007.79Z" fill="white"/>
<mask id="path-19-inside-1_1447_3499" fill="white">
<path d="M325.656 -226.926L361.005 -155.203C465.184 56.1786 680.385 190.035 916.044 190.035C675.446 211.152 461.131 350.613 344.371 562.037L325.656 595.926C376.313 327.64 376.98 52.3053 327.624 -216.223L325.656 -226.926Z"/>
</mask>
<path d="M325.656 -226.926L361.005 -155.203C465.184 56.1786 680.385 190.035 916.044 190.035C675.446 211.152 461.131 350.613 344.371 562.037L325.656 595.926C376.313 327.64 376.98 52.3053 327.624 -216.223L325.656 -226.926Z" fill="url(#paint0_linear_1447_3499)" fill-opacity="0.4"/>
<path d="M325.656 -226.926L328.12 -228.14L322.955 -226.429L325.656 -226.926ZM344.371 562.037L341.967 560.71L344.371 562.037ZM344.371 562.037L341.967 560.71L323.252 594.598L325.656 595.926L328.06 597.254L346.776 563.365L344.371 562.037ZM325.656 -226.926L323.193 -225.712L358.541 -153.988L361.005 -155.203L363.468 -156.417L328.12 -228.14L325.656 -226.926ZM327.624 -216.223L330.325 -216.719L328.357 -227.422L325.656 -226.926L322.955 -226.429L324.922 -215.726L327.624 -216.223ZM325.656 595.926L328.355 596.436C379.075 327.817 379.743 52.1414 330.325 -216.719L327.624 -216.223L324.922 -215.726C374.218 52.4691 373.552 327.463 322.957 595.416L325.656 595.926ZM361.005 -155.203L358.541 -153.988C463.183 58.3309 679.339 192.781 916.044 192.781V190.035V187.289C681.431 187.289 467.185 54.0262 363.468 -156.417L361.005 -155.203ZM916.044 190.035L915.804 187.299C674.295 208.496 459.169 348.484 341.967 560.71L344.371 562.037L346.776 563.365C463.094 352.741 676.597 213.808 916.284 192.771L916.044 190.035Z" fill="url(#paint1_linear_1447_3499)" fill-opacity="0.4" mask="url(#path-19-inside-1_1447_3499)"/>
<path d="M316.16 102.078L375.538 126.23C478.526 168.122 588.656 189.664 699.839 189.664V189.664" stroke="url(#paint2_linear_1447_3499)" stroke-opacity="0.4" stroke-width="1.37837"/>
<path d="M316.24 267.199L372.793 247.167C477.818 209.965 588.421 190.955 699.841 190.955V190.955" stroke="url(#paint3_linear_1447_3499)" stroke-opacity="0.4" stroke-width="1.37837"/>
<path d="M316.332 182.784L675.875 190.476" stroke="url(#paint4_linear_1447_3499)" stroke-opacity="0.4" stroke-width="1.37837"/>
</g>
<defs>
<filter id="filter0_d_1447_3499" x="65.9883" y="78.3652" width="250.863" height="57.8918" filterUnits="userSpaceOnUse" color-interpolation-filters="sRGB">
<feFlood flood-opacity="0" result="BackgroundImageFix"/>
<feColorMatrix in="SourceAlpha" type="matrix" values="0 0 0 0 0 0 0 0 0 0 0 0 0 0 0 0 0 0 127 0" result="hardAlpha"/>
<feOffset dy="8.27024"/>
<feComposite in2="hardAlpha" operator="out"/>
<feColorMatrix type="matrix" values="0 0 0 0 0.4 0 0 0 0 0.247059 0 0 0 0 1 0 0 0 0.3 0"/>
<feBlend mode="normal" in2="BackgroundImageFix" result="effect1_dropShadow_1447_3499"/>
<feBlend mode="normal" in="SourceGraphic" in2="effect1_dropShadow_1447_3499" result="shape"/>
</filter>
<filter id="filter1_d_1447_3499" x="65.9883" y="159.689" width="250.863" height="57.8918" filterUnits="userSpaceOnUse" color-interpolation-filters="sRGB">
<feFlood flood-opacity="0" result="BackgroundImageFix"/>
<feColorMatrix in="SourceAlpha" type="matrix" values="0 0 0 0 0 0 0 0 0 0 0 0 0 0 0 0 0 0 127 0" result="hardAlpha"/>
<feOffset dy="8.27024"/>
<feComposite in2="hardAlpha" operator="out"/>
<feColorMatrix type="matrix" values="0 0 0 0 0.4 0 0 0 0 0.247059 0 0 0 0 1 0 0 0 0.3 0"/>
<feBlend mode="normal" in2="BackgroundImageFix" result="effect1_dropShadow_1447_3499"/>
<feBlend mode="normal" in="SourceGraphic" in2="effect1_dropShadow_1447_3499" result="shape"/>
</filter>
<filter id="filter2_d_1447_3499" x="65.9883" y="241.013" width="250.863" height="57.8918" filterUnits="userSpaceOnUse" color-interpolation-filters="sRGB">
<feFlood flood-opacity="0" result="BackgroundImageFix"/>
<feColorMatrix in="SourceAlpha" type="matrix" values="0 0 0 0 0 0 0 0 0 0 0 0 0 0 0 0 0 0 127 0" result="hardAlpha"/>
<feOffset dy="8.27024"/>
<feComposite in2="hardAlpha" operator="out"/>
<feColorMatrix type="matrix" values="0 0 0 0 0.4 0 0 0 0 0.247059 0 0 0 0 1 0 0 0 0.3 0"/>
<feBlend mode="normal" in2="BackgroundImageFix" result="effect1_dropShadow_1447_3499"/>
<feBlend mode="normal" in="SourceGraphic" in2="effect1_dropShadow_1447_3499" result="shape"/>
</filter>
<linearGradient id="paint0_linear_1447_3499" x1="721.32" y1="184.5" x2="367.061" y2="184.5" gradientUnits="userSpaceOnUse">
<stop stop-color="#663FFF" stop-opacity="0.4"/>
<stop offset="1" stop-color="#663FFF" stop-opacity="0"/>
</linearGradient>
<linearGradient id="paint1_linear_1447_3499" x1="806.305" y1="195.69" x2="351.695" y2="188.557" gradientUnits="userSpaceOnUse">
<stop stop-color="#987EFF" stop-opacity="0"/>
<stop offset="0.25767" stop-color="#987EFF"/>
<stop offset="1" stop-color="#987EFF" stop-opacity="0"/>
</linearGradient>
<linearGradient id="paint2_linear_1447_3499" x1="313.409" y1="134.255" x2="700.268" y2="186.492" gradientUnits="userSpaceOnUse">
<stop stop-color="#5C46B6"/>
<stop offset="1" stop-color="#987EFF" stop-opacity="0"/>
</linearGradient>
<linearGradient id="paint3_linear_1447_3499" x1="313.409" y1="246.363" x2="700.268" y2="194.127" gradientUnits="userSpaceOnUse">
<stop stop-color="#5C46B6"/>
<stop offset="1" stop-color="#987EFF" stop-opacity="0"/>
</linearGradient>
<linearGradient id="paint4_linear_1447_3499" x1="316.852" y1="191.666" x2="675.875" y2="191.666" gradientUnits="userSpaceOnUse">
<stop stop-color="#5C46B6"/>
<stop offset="1" stop-color="#987EFF" stop-opacity="0"/>
</linearGradient>
<clipPath id="clip0_1447_3499">
<rect width="1120" height="387" fill="white" transform="translate(0.833984)"/>
</clipPath>
</defs>
</svg>
