<svg width="17" height="16" viewBox="0 0 17 16" fill="none" xmlns="http://www.w3.org/2000/svg">
<mask id="mask0_525_2121" style="mask-type:alpha" maskUnits="userSpaceOnUse" x="0" y="0" width="17" height="16">
<rect x="0.837402" width="16" height="16" fill="#D9D9D9"/>
</mask>
<g mask="url(#mask0_525_2121)">
<path d="M11.1526 11.0178L11.8552 10.3152L9.33724 7.79717V4.6665H8.33724V8.20234L11.1526 11.0178ZM8.83841 14.3332C7.96241 14.3332 7.13902 14.1669 6.36824 13.8345C5.59746 13.5021 4.92702 13.0509 4.35691 12.481C3.7868 11.9111 3.33541 11.2409 3.00274 10.4705C2.67018 9.70006 2.50391 8.87689 2.50391 8.001C2.50391 7.125 2.67013 6.30161 3.00257 5.53084C3.33502 4.76006 3.78618 4.08961 4.35607 3.5195C4.92596 2.94939 5.59613 2.498 6.36657 2.16534C7.13702 1.83278 7.96018 1.6665 8.83607 1.6665C9.71207 1.6665 10.5355 1.83273 11.3062 2.16517C12.077 2.49761 12.7475 2.94878 13.3176 3.51867C13.8877 4.08856 14.3391 4.75873 14.6717 5.52917C15.0043 6.29962 15.1706 7.12278 15.1706 7.99867C15.1706 8.87467 15.0044 9.69806 14.6719 10.4688C14.3395 11.2396 13.8883 11.9101 13.3184 12.4802C12.7485 13.0503 12.0784 13.5017 11.3079 13.8343C10.5375 14.1669 9.7143 14.3332 8.83841 14.3332ZM8.83724 13.3332C10.315 13.3332 11.5734 12.8137 12.6122 11.7748C13.6511 10.7359 14.1706 9.47762 14.1706 7.99984C14.1706 6.52206 13.6511 5.26373 12.6122 4.22484C11.5734 3.18595 10.315 2.6665 8.83724 2.6665C7.35946 2.6665 6.10113 3.18595 5.06224 4.22484C4.02335 5.26373 3.50391 6.52206 3.50391 7.99984C3.50391 9.47762 4.02335 10.7359 5.06224 11.7748C6.10113 12.8137 7.35946 13.3332 8.83724 13.3332Z" fill="white" fill-opacity="0.5"/>
</g>
</svg>
