<svg width="300" height="300" viewBox="0 0 300 300" fill="none" xmlns="http://www.w3.org/2000/svg">
<path fill-rule="evenodd" clip-rule="evenodd" d="M299.366 150C299.366 232.492 232.492 299.366 150 299.366C67.5076 299.366 0.63425 232.492 0.63425 150C0.63425 67.5076 67.5076 0.63425 150 0.63425C232.492 0.63425 299.366 67.5076 299.366 150ZM300 150C300 232.843 232.843 300 150 300C67.1573 300 0 232.843 0 150C0 67.1573 67.1573 0 150 0C232.843 0 300 67.1573 300 150ZM150.317 265.116C213.719 265.116 265.116 213.719 265.116 150.317C265.116 86.9153 213.719 35.518 150.317 35.518C86.9153 35.518 35.518 86.9153 35.518 150.317C35.518 213.719 86.9153 265.116 150.317 265.116ZM150.317 265.751C214.069 265.751 265.751 214.069 265.751 150.317C265.751 86.565 214.069 34.8837 150.317 34.8837C86.565 34.8837 34.8837 86.565 34.8837 150.317C34.8837 214.069 86.565 265.751 150.317 265.751ZM150.317 233.404C196.205 233.404 233.404 196.205 233.404 150.317C233.404 104.43 196.205 67.2304 150.317 67.2304C104.43 67.2304 67.2304 104.43 67.2304 150.317C67.2304 196.205 104.43 233.404 150.317 233.404ZM150.317 234.038C196.555 234.038 234.038 196.555 234.038 150.317C234.038 104.079 196.555 66.5962 150.317 66.5962C104.079 66.5962 66.5962 104.079 66.5962 150.317C66.5962 196.555 104.079 234.038 150.317 234.038ZM205.497 150C205.497 180.65 180.65 205.497 150 205.497C119.35 205.497 94.5032 180.65 94.5032 150C94.5032 119.35 119.35 94.5032 150 94.5032C180.65 94.5032 205.497 119.35 205.497 150ZM206.131 150C206.131 181 181 206.131 150 206.131C119 206.131 93.8689 181 93.8689 150C93.8689 119 119 93.8689 150 93.8689C181 93.8689 206.131 119 206.131 150ZM150 176.321C164.537 176.321 176.321 164.537 176.321 150C176.321 135.463 164.537 123.679 150 123.679C135.463 123.679 123.679 135.463 123.679 150C123.679 164.537 135.463 176.321 150 176.321ZM150 176.956C164.887 176.956 176.956 164.887 176.956 150C176.956 135.113 164.887 123.044 150 123.044C135.113 123.044 123.044 135.113 123.044 150C123.044 164.887 135.113 176.956 150 176.956Z" fill="url(#paint0_radial_65_209)"/>
<defs>
<radialGradient id="paint0_radial_65_209" cx="0" cy="0" r="1" gradientUnits="userSpaceOnUse" gradientTransform="translate(150.317 1.12342e-05) rotate(90.0606) scale(300 527.098)">
<stop stop-color="white" stop-opacity="0.3"/>
<stop offset="0.334005" stop-color="white" stop-opacity="0.04"/>
<stop offset="0.697347" stop-color="white" stop-opacity="0.04"/>
<stop offset="1" stop-color="white" stop-opacity="0.3"/>
</radialGradient>
</defs>
</svg>
