<svg xmlns="http://www.w3.org/2000/svg" width="32" height="32" viewBox="0 0 32 32" fill="none">
  <path d="M25.6932 7.10634C23.9199 6.27967 21.9999 5.67967 19.9999 5.33301C19.9647 5.33351 19.9312 5.34789 19.9065 5.37301C19.6665 5.81301 19.3865 6.38634 19.1999 6.82634C17.0785 6.50654 14.9212 6.50654 12.7999 6.82634C12.6132 6.37301 12.3332 5.81301 12.0799 5.37301C12.0665 5.34634 12.0265 5.33301 11.9865 5.33301C9.98654 5.67967 8.07987 6.27967 6.2932 7.10634C6.27987 7.10634 6.26654 7.11967 6.2532 7.13301C2.62654 12.5597 1.62654 17.8397 2.11987 23.0663C2.11987 23.093 2.1332 23.1197 2.15987 23.133C4.55987 24.893 6.86654 25.9597 9.14654 26.6663C9.18654 26.6797 9.22654 26.6663 9.23987 26.6397C9.7732 25.9063 10.2532 25.133 10.6665 24.3197C10.6932 24.2663 10.6665 24.213 10.6132 24.1997C9.8532 23.9063 9.1332 23.5597 8.42654 23.1597C8.3732 23.133 8.3732 23.053 8.4132 23.013C8.55987 22.9063 8.70654 22.7863 8.8532 22.6797C8.87987 22.653 8.91987 22.653 8.94654 22.6663C13.5332 24.7597 18.4799 24.7597 23.0132 22.6663C23.0399 22.653 23.0799 22.653 23.1065 22.6797C23.2532 22.7997 23.3999 22.9063 23.5465 23.0263C23.5999 23.0663 23.5999 23.1463 23.5332 23.173C22.8399 23.5863 22.1065 23.9197 21.3465 24.213C21.2932 24.2263 21.2799 24.293 21.2932 24.333C21.7199 25.1463 22.1999 25.9197 22.7199 26.653C22.7599 26.6663 22.7999 26.6797 22.8399 26.6663C25.1332 25.9597 27.4399 24.893 29.8399 23.133C29.8665 23.1197 29.8799 23.093 29.8799 23.0663C30.4665 17.0263 28.9065 11.7863 25.7465 7.13301C25.7332 7.11967 25.7199 7.10634 25.6932 7.10634ZM11.3599 19.8797C9.98654 19.8797 8.83987 18.613 8.83987 17.053C8.83987 15.493 9.95987 14.2263 11.3599 14.2263C12.7732 14.2263 13.8932 15.5063 13.8799 17.053C13.8799 18.613 12.7599 19.8797 11.3599 19.8797ZM20.6532 19.8797C19.2799 19.8797 18.1332 18.613 18.1332 17.053C18.1332 15.493 19.2532 14.2263 20.6532 14.2263C22.0665 14.2263 23.1865 15.5063 23.1732 17.053C23.1732 18.613 22.0665 19.8797 20.6532 19.8797Z" fill="url(#paint0_linear_65_500)"/>
  <defs>
    <linearGradient id="paint0_linear_65_500" x1="16.0019" y1="5.33301" x2="16.0019" y2="26.6719" gradientUnits="userSpaceOnUse">
      <stop stop-color="white" stop-opacity="0.6"/>
      <stop offset="1" stop-color="white"/>
    </linearGradient>
  </defs>
</svg>