<svg width="20" height="20" viewBox="0 0 20 20" fill="none" xmlns="http://www.w3.org/2000/svg">
<mask id="mask0_1_3454" style="mask-type:alpha" maskUnits="userSpaceOnUse" x="0" y="0" width="20" height="21">
<rect y="0.000366211" width="20" height="20" fill="#D9D9D9"/>
</mask>
<g mask="url(#mask0_1_3454)">
<path d="M6.82687 10.5452H13.1731V9.2952H6.82687V10.5452ZM6.82687 12.9492H13.1731V11.6992H6.82687V12.9492ZM6.82687 15.3529H10.6731V14.1029H6.82687V15.3529ZM5.25646 17.9171C4.83549 17.9171 4.47917 17.7712 4.1875 17.4796C3.89583 17.1879 3.75 16.8316 3.75 16.4106V3.5902C3.75 3.16923 3.89583 2.81291 4.1875 2.52124C4.47917 2.22957 4.83549 2.08374 5.25646 2.08374H11.875L16.25 6.45874V16.4106C16.25 16.8316 16.1042 17.1879 15.8125 17.4796C15.5208 17.7712 15.1645 17.9171 14.7435 17.9171H5.25646ZM11.25 7.08374V3.33374H5.25646C5.19229 3.33374 5.13354 3.36048 5.08021 3.41395C5.02674 3.46728 5 3.52603 5 3.5902V16.4106C5 16.4748 5.02674 16.5335 5.08021 16.5869C5.13354 16.6403 5.19229 16.6671 5.25646 16.6671H14.7435C14.8077 16.6671 14.8665 16.6403 14.9198 16.5869C14.9733 16.5335 15 16.4748 15 16.4106V7.08374H11.25Z" fill="white" fill-opacity="0.8"/>
</g>
</svg>
