<svg width="22" height="22" viewBox="0 0 22 22" fill="none" xmlns="http://www.w3.org/2000/svg">
<path id="Vector" d="M19.961 6.37795C21.9652 10.2521 21.2465 15.0085 18.1291 18.1288C16.2241 20.0308 13.6939 21.0768 11.0031 21.0768C8.7709 21.0768 6.57672 20.3259 4.82078 18.9615L4.51693 18.7248L4.24229 18.9965L1.23879 22L0 20.7612L2.94214 17.8162L3.00349 17.7578L16.2475 4.51394L15.8239 4.21301C14.4098 3.20797 12.7415 2.67331 10.9972 2.67331C8.77382 2.67331 6.68482 3.54104 5.11295 5.11288C2.69672 7.52908 2.01012 11.187 3.35702 14.3044L2.04226 15.6191C0.0379819 11.745 0.756717 6.98858 3.87123 3.87118C5.77617 1.96919 8.30635 0.92324 10.9972 0.92324C13.2294 0.92324 15.4236 1.6741 17.1795 3.03851L17.4834 3.27517L17.758 3.00345L20.7615 0L22.0003 1.23878L18.9968 4.24223L18.5936 4.64834L17.1182 6.12085L16.2679 6.97105L6.12093 17.1179L5.7528 17.4861L6.17644 17.787C7.59054 18.792 9.25882 19.3267 11.0031 19.3267C13.2265 19.3267 15.3155 18.459 16.8873 16.8871C19.3036 14.4709 19.9902 10.813 18.6433 7.69562L19.961 6.37795Z" fill="#7C3AED"/>
</svg>
