<svg width="139" height="24" viewBox="0 0 139 24" fill="none" xmlns="http://www.w3.org/2000/svg">
<path d="M21.7756 6.95813C23.9621 11.1844 23.178 16.3733 19.7772 19.7773C17.699 21.8522 14.9388 22.9932 12.0033 22.9932C9.56826 22.9932 7.1746 22.1741 5.25904 20.6856L4.92756 20.4275L4.62795 20.7239L1.35141 24.0004L0 22.649L3.2096 19.4362L3.27654 19.3725L17.7245 4.92467L17.2624 4.59638C15.7197 3.49997 13.8998 2.9167 11.997 2.9167C9.57144 2.9167 7.29253 3.86331 5.57776 5.57805C2.94187 8.21391 2.19286 12.2043 3.6622 15.6051L2.22792 17.0394C0.0414348 12.8131 0.825509 7.62427 4.22316 4.22347C6.30128 2.14857 9.06148 1.00754 11.997 1.00754C14.4321 1.00754 16.8257 1.82666 18.7413 3.31511L19.0728 3.57327L19.3724 3.27686L22.6489 0.000366211L24.0003 1.35176L20.7238 4.62825L20.2839 5.07128L18.6744 6.67766L17.7469 7.60515L6.67738 18.6745L6.27578 19.0761L6.73794 19.4044C8.28059 20.5008 10.1005 21.084 12.0033 21.084C14.4289 21.084 16.7078 20.1374 18.4226 18.4227C21.0585 15.7868 21.8075 11.7964 20.3381 8.39559L21.7756 6.95813Z" fill="#987FFF"/>
<path d="M35.8119 20.0004V4.07309H44.801V5.644H37.5355V10.9022H44.0374V12.4513H37.5355V18.4295H44.801V20.0004H35.8119ZM48.6761 20.0004V4.07309H50.9888L56.1161 17.9931C56.1016 17.6585 56.0797 17.2513 56.0507 16.7713C56.0216 16.2767 55.9925 15.7749 55.9634 15.2658C55.9488 14.7567 55.9416 14.2985 55.9416 13.8913V4.07309H57.6216V20.0004H55.287L50.2034 6.08037C50.2325 6.37128 50.2543 6.74946 50.2688 7.21491C50.2834 7.66582 50.2979 8.15309 50.3125 8.67673C50.3416 9.18582 50.3561 9.68764 50.3561 10.1822V20.0004H48.6761ZM66.3403 20.2185C65.3949 20.2185 64.573 20.0367 63.8749 19.6731C63.1912 19.3095 62.6603 18.7858 62.2821 18.1022C61.9039 17.4185 61.7149 16.6185 61.7149 15.7022V8.37128C61.7149 7.44037 61.9039 6.64037 62.2821 5.97128C62.6603 5.28764 63.1912 4.764 63.8749 4.40037C64.573 4.03673 65.3949 3.85491 66.3403 3.85491C67.2712 3.85491 68.0785 4.044 68.7621 4.42218C69.4603 4.78582 69.9985 5.30946 70.3767 5.99309C70.7549 6.67673 70.9439 7.49128 70.9439 8.43673H69.2203C69.2203 7.47673 68.9658 6.73491 68.4567 6.21128C67.9476 5.67309 67.2421 5.404 66.3403 5.404C65.4385 5.404 64.7258 5.66582 64.2021 6.18946C63.693 6.69855 63.4385 7.42582 63.4385 8.37128V15.7022C63.4385 16.6331 63.693 17.3604 64.2021 17.884C64.7258 18.4076 65.4385 18.6695 66.3403 18.6695C67.2421 18.6695 67.9476 18.4076 68.4567 17.884C68.9658 17.3458 69.2203 16.5967 69.2203 15.6367H70.9439C70.9439 16.5676 70.7549 17.3822 70.3767 18.0804C69.9985 18.764 69.4603 19.2949 68.7621 19.6731C68.0785 20.0367 67.2712 20.2185 66.3403 20.2185ZM75.1463 20.0004V18.4295H78.4409V5.644H75.1463V4.07309H83.4809V5.644H80.2082V18.4295H83.4809V20.0004H75.1463ZM88.0324 20.0004V4.05128H97.3051V5.644H89.7342V11.2295H96.6942V12.8004H89.7778V20.0004H88.0324ZM101.071 20.0004V4.07309H102.795V10.9676H108.162V4.07309H109.886V20.0004H108.162V12.5604H102.795V20.0004H101.071ZM114.306 20.0004V4.07309H123.295V5.644H116.03V10.9022H122.532V12.4513H116.03V18.4295H123.295V20.0004H114.306ZM127.214 20.0004V4.07309H132.014C132.96 4.07309 133.781 4.26218 134.48 4.64037C135.192 5.01855 135.738 5.54946 136.116 6.23309C136.509 6.90218 136.705 7.69491 136.705 8.61128C136.705 9.70218 136.414 10.6331 135.832 11.404C135.25 12.1749 134.458 12.6913 133.454 12.9531L136.901 20.0004H134.85L131.665 13.1276H128.938V20.0004H127.214ZM128.938 11.5567H132.014C132.901 11.5567 133.607 11.2876 134.13 10.7495C134.669 10.2113 134.938 9.49128 134.938 8.58946C134.938 7.68764 134.669 6.97491 134.13 6.45128C133.607 5.91309 132.901 5.644 132.014 5.644H128.938V11.5567Z" fill="white"/>
</svg>
