<svg width="638" height="388" viewBox="0 0 638 388" fill="none" xmlns="http://www.w3.org/2000/svg">
<path opacity="0.2" d="M320.209 230.761C375.331 230.761 420.016 186.076 420.016 130.954C420.016 75.8326 375.331 31.1475 320.209 31.1475C265.087 31.1475 220.402 75.8326 220.402 130.954C220.402 186.076 265.087 230.761 320.209 230.761Z" fill="#663FFF" fill-opacity="0.4"/>
<path opacity="0.2" d="M324.813 457.435C415.916 457.435 489.77 414.796 489.77 362.197C489.77 309.599 415.916 266.959 324.813 266.959C233.709 266.959 159.855 309.599 159.855 362.197C159.855 414.796 233.709 457.435 324.813 457.435Z" fill="#663FFF" fill-opacity="0.2"/>
<path d="M322.351 380.769C321.384 380.749 320.418 380.717 319.454 380.672L319.587 377.814C320.526 377.857 321.467 377.89 322.409 377.909L322.351 380.769ZM328.143 380.749L328.061 377.889C329.003 377.862 329.944 377.824 330.883 377.774L331.036 380.631C330.073 380.682 329.11 380.721 328.143 380.749ZM313.676 380.264C312.712 380.172 311.753 380.067 310.797 379.951L311.142 377.111C312.072 377.225 313.01 377.327 313.95 377.417L313.676 380.264ZM336.811 380.178L336.516 377.334C337.453 377.236 338.389 377.127 339.322 377.005L339.689 379.843C338.732 379.966 337.773 380.079 336.811 380.178ZM305.059 379.098C304.103 378.929 303.152 378.75 302.209 378.555L302.783 375.752C303.702 375.94 304.626 376.116 305.556 376.28L305.059 379.098ZM345.415 378.946L344.9 376.132C345.827 375.963 346.749 375.78 347.664 375.583L348.261 378.381C347.317 378.582 346.368 378.771 345.415 378.946ZM296.559 377.233C295.618 376.984 294.687 376.721 293.762 376.445L294.58 373.704C295.474 373.97 296.379 374.225 297.289 374.467L296.559 377.233ZM353.898 377.008L353.14 374.249C354.048 374 354.95 373.737 355.842 373.461L356.686 376.195C355.764 376.48 354.834 376.752 353.898 377.008ZM288.245 374.602C287.33 374.262 286.426 373.908 285.535 373.541L286.625 370.896C287.487 371.25 288.359 371.592 289.241 371.92L288.245 374.602ZM362.186 374.301L361.162 371.629C362.041 371.292 362.91 370.941 363.767 370.578L364.887 373.21C363.997 373.588 363.096 373.951 362.186 374.301ZM280.231 371.114C279.356 370.671 278.497 370.214 277.654 369.742L279.051 367.244C279.86 367.698 280.684 368.137 281.522 368.562L280.231 371.114ZM370.163 370.723L368.837 368.188C369.67 367.752 370.49 367.304 371.293 366.841C371.88 366.5 372.454 366.158 373.013 365.809L374.524 368.24C373.937 368.604 373.337 368.963 372.723 369.318C371.885 369.8 371.03 370.268 370.163 370.723ZM272.682 366.649C271.861 366.081 271.071 365.501 270.313 364.913L272.066 362.653C272.783 363.208 273.532 363.759 274.309 364.297L272.682 366.649ZM379.345 364.889L377.587 362.632C378.325 362.057 379.043 361.463 379.725 360.865L381.613 363.014C380.891 363.649 380.128 364.281 379.345 364.889ZM265.886 361.011C265.176 360.297 264.497 359.562 263.873 358.831L266.048 356.972C266.626 357.649 267.254 358.329 267.914 358.994L265.886 361.011ZM385.782 358.805L383.605 356.948C384.21 356.238 384.781 355.512 385.298 354.794L387.621 356.462C387.059 357.247 386.438 358.035 385.782 358.805ZM260.391 353.991C259.881 353.124 259.413 352.228 258.998 351.331L261.599 350.136C261.971 350.948 262.394 351.756 262.856 352.54L260.391 353.991ZM390.642 351.295L388.042 350.105C388.419 349.281 388.75 348.436 389.026 347.594L391.745 348.486C391.435 349.429 391.063 350.374 390.642 351.295ZM257.116 345.593C256.916 344.603 256.776 343.59 256.703 342.585L259.555 342.373C259.622 343.26 259.745 344.153 259.921 345.028L257.116 345.593ZM392.926 342.545L390.071 342.343C390.107 341.84 390.126 341.336 390.126 340.833C390.124 340.448 390.114 340.059 390.093 339.668L392.95 339.508C392.976 339.948 392.987 340.389 392.988 340.829C392.988 341.402 392.967 341.974 392.926 342.545ZM259.844 337.038L257.03 336.525C257.21 335.541 257.453 334.55 257.753 333.583L260.484 334.431C260.218 335.288 260.003 336.166 259.844 337.038ZM389.13 334.397C388.87 333.558 388.552 332.709 388.183 331.873L390.801 330.72C391.212 331.654 391.57 332.606 391.864 333.549L389.13 334.397ZM262.648 329.483L260.16 328.068C260.641 327.224 261.18 326.373 261.763 325.54L264.107 327.18C263.576 327.939 263.084 328.714 262.648 329.483ZM385.5 327.154C384.985 326.42 384.424 325.69 383.833 324.984L386.027 323.147C386.669 323.915 387.28 324.71 387.843 325.51L385.5 327.154ZM267.618 322.967L265.567 320.973C266.246 320.273 266.964 319.584 267.702 318.924L269.61 321.057C268.921 321.672 268.251 322.314 267.618 322.967ZM379.992 321.033C379.31 320.425 378.595 319.824 377.867 319.25L379.642 317.005C380.412 317.614 381.171 318.252 381.897 318.899L379.992 321.033ZM273.96 317.608L272.31 315.269C273.094 314.716 273.909 314.175 274.752 313.644L276.278 316.062C275.477 316.567 274.704 317.083 273.96 317.608ZM373.319 316.043C372.662 315.629 371.986 315.221 371.293 314.82L370.917 314.604L372.339 312.122L372.724 312.342C373.451 312.763 374.159 313.191 374.846 313.625L373.319 316.043ZM281.14 313.293L279.833 310.746C280.694 310.305 281.566 309.878 282.453 309.465L283.659 312.061C282.806 312.457 281.965 312.867 281.14 313.293ZM365.935 312.048C365.092 311.657 364.235 311.281 363.367 310.916L364.474 308.279C365.375 308.656 366.264 309.047 367.138 309.454L365.935 312.048ZM288.836 309.89L287.825 307.213C288.727 306.873 289.641 306.546 290.565 306.234L291.482 308.942C290.591 309.245 289.709 309.561 288.836 309.89ZM358.108 308.931C357.226 308.632 356.332 308.345 355.43 308.07L356.26 305.334C357.192 305.617 358.115 305.912 359.027 306.221L358.108 308.931ZM296.87 307.305L296.123 304.544C297.053 304.293 297.994 304.053 298.938 303.828L299.6 306.611C298.683 306.83 297.773 307.061 296.87 307.305ZM349.99 306.601C349.079 306.385 348.16 306.18 347.235 305.987L347.819 303.186C348.771 303.384 349.715 303.595 350.65 303.818L349.99 306.601ZM305.122 305.457L304.614 302.642C305.563 302.47 306.518 302.311 307.476 302.166L307.905 304.996C306.971 305.136 306.043 305.29 305.122 305.457ZM341.678 304.987C340.752 304.847 339.818 304.717 338.881 304.598L339.238 301.761C340.2 301.882 341.158 302.014 342.108 302.159L341.678 304.987ZM313.507 304.288L313.221 301.441C314.181 301.345 315.141 301.26 316.106 301.189L316.32 304.042C315.383 304.112 314.442 304.194 313.507 304.288ZM333.259 304.038C332.322 303.969 331.381 303.91 330.439 303.864L330.579 301.006C331.546 301.053 332.509 301.114 333.471 301.186L333.259 304.038ZM321.963 303.76L321.891 300.9C322.857 300.876 323.821 300.864 324.788 300.864V303.726C323.847 303.726 322.905 303.736 321.963 303.76Z" fill="#663FFF" fill-opacity="0.4"/>
<path opacity="0.5" d="M391.555 41.9229H258.068V339.858H258.148C257.706 350.042 264.157 360.305 277.617 368.076C303.683 383.125 345.942 383.125 372.007 368.077C385.039 360.553 391.555 350.691 391.555 340.829V41.9229Z" fill="url(#paint0_linear_1374_2194)" fill-opacity="0.4"/>
<path opacity="0.1" d="M390.923 340.83C390.923 351.15 383.673 360.613 371.69 367.532C359.724 374.44 343.151 378.733 324.811 378.733C306.471 378.733 289.898 374.44 277.932 367.532C265.95 360.613 258.699 351.15 258.699 340.83C258.699 330.51 265.95 321.047 277.932 314.129C289.898 307.221 306.471 302.927 324.811 302.927C343.151 302.927 359.724 307.221 371.69 314.129C383.673 321.047 390.923 330.51 390.923 340.83Z" fill="#663FFF" fill-opacity="0.4" stroke="#987EFF" stroke-width="1.26209"/>
<path d="M258.204 283.851V283.851C258.205 294.173 265.224 303.786 277.685 310.981L278.001 310.434L277.685 310.981C290.71 318.501 307.779 322.242 324.813 322.241C341.846 322.241 358.914 318.5 371.938 310.981C384.399 303.787 391.417 294.174 391.417 283.854C391.417 273.53 384.399 263.919 371.937 256.724C358.912 249.203 341.842 245.461 324.809 245.461C307.774 245.461 290.709 249.201 277.684 256.721C265.223 263.915 258.204 273.529 258.204 283.851ZM324.812 322.492C307.663 322.492 290.547 318.722 277.548 311.217C264.801 303.858 257.93 294.117 257.93 283.85C257.93 273.582 264.801 263.842 277.546 256.483C290.545 248.978 307.66 245.208 324.809 245.208C341.959 245.209 359.074 248.98 372.074 256.484C384.82 263.844 391.692 273.584 391.692 283.852C391.692 294.12 384.821 303.858 372.075 311.217C359.077 318.722 341.963 322.492 324.812 322.492Z" fill="#663FFF" fill-opacity="0.4" stroke="#987EFF" stroke-width="1.26209"/>
<path opacity="0.5" d="M324.812 284.589C307.582 284.589 290.35 280.803 277.232 273.229C264.378 265.808 257.299 255.894 257.299 245.316C257.299 234.737 264.378 224.823 277.231 217.402C303.466 202.256 346.152 202.254 372.39 217.403C385.243 224.826 392.323 234.738 392.323 245.318C392.323 255.897 385.244 265.808 372.391 273.229C359.274 280.803 342.044 284.589 324.812 284.589ZM324.808 207.555C307.855 207.555 290.904 211.281 278 218.731C265.641 225.866 258.835 235.307 258.835 245.314C258.836 255.321 265.642 264.762 278.001 271.898C303.813 286.799 345.813 286.799 371.622 271.898C383.981 264.763 390.786 255.323 390.786 245.317C390.786 235.308 383.981 225.869 371.621 218.734C358.715 211.282 341.761 207.555 324.808 207.555Z" fill="#987EFF"/>
<path opacity="0.3" d="M324.814 246.054C307.582 246.054 290.352 242.268 277.232 234.693C264.378 227.272 257.3 217.359 257.299 206.78C257.299 196.202 264.377 186.288 277.231 178.867C303.466 163.721 346.152 163.719 372.39 178.868C385.243 186.29 392.323 196.203 392.323 206.783C392.323 217.362 385.244 227.273 372.391 234.694C359.275 242.266 342.044 246.054 324.814 246.054ZM324.808 169.021C307.855 169.021 290.904 172.747 278 180.197C265.641 187.332 258.835 196.773 258.835 206.78C258.836 216.787 265.642 226.227 278.001 233.361C303.812 248.265 345.813 248.264 371.622 233.362C383.981 226.228 390.786 216.787 390.786 206.782C390.786 196.773 383.981 187.334 371.621 180.198C358.715 172.747 341.761 169.021 324.808 169.021Z" fill="#987EFF"/>
<path opacity="0.1" d="M324.814 207.52C307.582 207.52 290.352 203.734 277.232 196.159C264.378 188.738 257.299 178.824 257.299 168.245C257.299 157.666 264.378 147.754 277.231 140.333C303.466 125.185 346.152 125.185 372.39 140.333C385.243 147.755 392.323 157.668 392.323 168.248C392.323 178.826 385.245 188.739 372.391 196.16C359.275 203.732 342.044 207.52 324.814 207.52ZM324.809 130.487C307.855 130.487 290.904 134.213 278 141.663C265.641 148.798 258.836 158.238 258.835 168.245C258.835 178.252 265.642 187.693 278.001 194.828C303.81 209.732 345.813 209.731 371.622 194.83C383.981 187.695 390.786 178.253 390.786 168.249C390.786 158.241 383.981 148.8 371.621 141.664C358.715 134.213 341.761 130.487 324.809 130.487Z" fill="#987EFF"/>
<path d="M264.092 272.926C264.092 274.747 262.615 276.224 260.794 276.224C258.973 276.224 257.496 274.747 257.496 272.926C257.496 271.105 258.973 269.628 260.794 269.628C262.615 269.628 264.092 271.105 264.092 272.926Z" fill="#663FFF" fill-opacity="0.4"/>
<path d="M364.034 256.114C365.855 256.114 367.332 254.638 367.332 252.816C367.332 250.995 365.855 249.519 364.034 249.519C362.213 249.519 360.736 250.995 360.736 252.816C360.736 254.638 362.213 256.114 364.034 256.114Z" fill="#663FFF" fill-opacity="0.4"/>
<path d="M333.193 206.78C333.193 208.601 331.717 210.078 329.895 210.078C328.074 210.078 326.598 208.601 326.598 206.78C326.598 204.959 328.074 203.482 329.895 203.482C331.717 203.482 333.193 204.959 333.193 206.78Z" fill="#663FFF" fill-opacity="0.4"/>
<path d="M281.314 179.369C281.314 181.19 279.838 182.667 278.017 182.667C276.195 182.667 274.719 181.19 274.719 179.369C274.719 177.548 276.195 176.071 278.017 176.071C279.838 176.071 281.314 177.548 281.314 179.369Z" fill="#663FFF" fill-opacity="0.4"/>
<path d="M359.836 173.349C359.836 175.17 358.359 176.647 356.538 176.647C354.717 176.647 353.24 175.17 353.24 173.349C353.24 171.528 354.717 170.051 356.538 170.051C358.359 170.051 359.836 171.528 359.836 173.349Z" fill="#663FFF" fill-opacity="0.4"/>
<path d="M387.76 151.061C387.76 152.882 386.283 154.358 384.462 154.358C382.641 154.358 381.164 152.882 381.164 151.061C381.164 149.239 382.641 147.763 384.462 147.763C386.283 147.763 387.76 149.239 387.76 151.061Z" fill="#663FFF" fill-opacity="0.4"/>
<path d="M325.782 130.422C325.782 133.5 323.286 135.995 320.208 135.995C317.13 135.995 314.635 133.5 314.635 130.422C314.635 127.344 317.13 124.849 320.208 124.849C323.286 124.849 325.782 127.344 325.782 130.422Z" fill="#663FFF" fill-opacity="0.4"/>
<path d="M324.112 44.8551L324.719 44.683L324.112 44.8552C324.964 47.8599 323.961 50.2017 322.566 51.8872C321.152 53.5966 319.365 54.5866 318.819 54.8025C318.43 54.956 317.842 55.3223 317.184 55.7495C316.872 55.9524 316.549 56.166 316.208 56.392C315.774 56.679 315.31 56.986 314.799 57.3168C313.012 58.4727 310.983 59.6961 309.238 60.3361L309.238 60.3362C308.316 60.6746 306.824 61.3031 305.004 62.07C303.228 62.8182 301.139 63.6981 298.962 64.5689C294.504 66.3525 289.621 68.1213 285.966 68.8073L284.387 69.1037L285.746 69.9612L286.083 69.4275C285.746 69.9612 285.746 69.9612 285.746 69.9613L285.746 69.9616L285.748 69.9627L285.755 69.9671L285.783 69.9848L285.893 70.0541L286.314 70.3199C286.678 70.5505 287.204 70.8833 287.849 71.2921C289.139 72.1098 290.904 73.2317 292.807 74.4485C296.616 76.8848 300.963 79.6932 303.152 81.2057C304.091 81.8549 305.002 83.2992 305.923 85.4056C306.831 87.4808 307.697 90.0697 308.609 92.8741C308.72 93.217 308.833 93.5631 308.946 93.9119C310.669 99.225 312.586 105.139 315.244 109.376C318.02 113.803 319.964 117.446 320.865 120.293C321.774 123.168 321.548 124.987 320.389 126.063C318.999 127.354 317.938 127.895 317.263 128.12C316.925 128.233 316.68 128.268 316.534 128.278C316.461 128.283 316.411 128.281 316.387 128.28C316.38 128.28 316.375 128.279 316.372 128.279L315.048 128.036L315.724 129.215L315.724 129.216L315.724 129.216L315.725 129.217L315.73 129.227C315.736 129.236 315.744 129.251 315.755 129.271C315.777 129.312 315.809 129.373 315.851 129.455C315.934 129.618 316.051 129.86 316.184 130.167C316.45 130.782 316.775 131.652 317.015 132.673C317.496 134.724 317.612 137.307 316.288 139.653C315.466 141.108 313.738 142.149 311.441 142.884C309.163 143.612 306.446 143.999 303.814 144.235C301.104 144.478 294.836 145.903 288.732 147.551C285.67 148.378 282.63 149.266 280.074 150.098C277.534 150.926 275.427 151.713 274.259 152.343C274.012 152.476 273.776 152.603 273.549 152.726C271.724 153.713 270.503 154.374 268.887 155.008C267.067 155.723 264.737 156.408 260.503 157.454L260.337 157.495L260.215 157.613L260.654 158.066C260.215 157.613 260.215 157.613 260.215 157.613L260.214 157.614L260.212 157.616L260.202 157.625L260.163 157.664C260.127 157.697 260.075 157.748 260.005 157.814C259.866 157.947 259.66 158.142 259.393 158.392C258.858 158.892 258.078 159.612 257.1 160.488C255.142 162.24 252.393 164.613 249.224 167.102C242.863 172.098 234.899 177.484 228.285 179.299C224.553 180.323 220.281 180.792 215.544 181.31C214.322 181.444 213.069 181.582 211.786 181.733C205.799 182.438 199.235 183.441 192.384 185.826C192.333 184.657 192.256 183.464 192.136 182.237L191.508 182.298L192.136 182.237C189.753 157.859 175.025 131.753 157.595 119.43C173.327 106.309 193.209 88.038 206.135 69.9729L206.285 69.8716C206.444 69.7651 206.674 69.6106 206.961 69.4185C207.536 69.0342 208.339 68.4998 209.253 67.8992C211.083 66.6966 213.348 65.2339 215.109 64.1797L215.109 64.1796C216.114 63.5775 216.679 62.8494 217.139 62.0675C217.303 61.7877 217.46 61.4905 217.614 61.1974C217.668 61.0959 217.721 60.9948 217.774 60.8952C217.986 60.4984 218.211 60.0962 218.492 59.6804C219.589 58.0515 221.629 56.062 227.211 53.8794L227.211 53.8794C229.046 53.1618 230.71 52.8022 232.181 52.5272C232.428 52.481 232.672 52.4369 232.912 52.3935C234.074 52.1835 235.15 51.9892 236.032 51.6557L236.032 51.6556C239.366 50.3938 240.689 48.9965 242.243 47.3549C242.587 46.9915 242.943 46.616 243.334 46.2274C243.358 46.2186 243.384 46.2087 243.414 46.1978C243.549 46.1473 243.741 46.0734 243.976 45.9789C244.445 45.7901 245.085 45.5173 245.765 45.1819C246.443 44.8475 247.173 44.4451 247.818 43.9952C248.454 43.5522 249.055 43.0303 249.424 42.443C249.977 41.5637 250.958 40.5305 252.214 39.7976C253.464 39.0684 254.952 38.6545 256.548 38.9407C258.101 39.2192 258.97 40.1208 259.466 40.9696C259.717 41.3986 259.87 41.8123 259.961 42.1186C260.005 42.271 260.034 42.3948 260.051 42.4778C260.06 42.5193 260.065 42.5504 260.068 42.5696L260.072 42.5893L260.072 42.5899L260.072 42.5904L260.072 42.5909L260.072 42.5916L260.072 42.592L260.181 43.3945L260.934 43.0895L260.697 42.5047L260.934 43.0895L260.934 43.0894L260.935 43.0891L260.938 43.0878L260.951 43.0826L261.003 43.0616C261.028 43.0518 261.058 43.0394 261.095 43.0247C261.127 43.0119 261.163 42.9973 261.204 42.9811C261.379 42.9113 261.632 42.8108 261.945 42.6881C262.571 42.4426 263.435 42.1088 264.388 41.755C266.309 41.0426 268.546 40.2664 269.939 39.9552C270.765 39.7707 271.754 39.2776 272.775 38.6527C273.809 38.0196 274.928 37.218 276.025 36.37C278.22 34.6735 280.363 32.7642 281.624 31.5746C282.727 30.5337 284.807 29.8121 286.791 29.8054C288.795 29.7986 290.37 30.5038 290.871 31.9282L290.871 31.9284C291.14 32.6902 291.171 33.7335 290.938 34.9799C290.706 36.2172 290.222 37.6068 289.514 39.0291C288.095 41.8772 285.81 44.7925 282.981 46.826L281.548 47.8557L283.309 47.9682L283.349 47.3385C283.309 47.9682 283.309 47.9682 283.309 47.9682L283.309 47.9683L283.31 47.9683L283.314 47.9685L283.325 47.9692L283.364 47.9713C283.398 47.973 283.448 47.9753 283.513 47.9776C283.642 47.9823 283.833 47.9873 284.08 47.9891C284.576 47.9926 285.302 47.9829 286.236 47.9311C288.105 47.8276 290.805 47.5553 294.154 46.8818L294.03 46.2632L294.154 46.8818C297.4 46.2292 299.367 46.0913 301.118 45.9687L301.17 45.965C302.954 45.84 304.542 45.7246 306.991 45.0907C309.392 44.4696 310.466 44.0704 311.223 43.6747C311.525 43.5175 311.775 43.3609 312.017 43.2091C312.074 43.1731 312.132 43.1373 312.189 43.1019C312.49 42.9152 312.835 42.7121 313.355 42.4631C314.409 41.9589 316.756 41.073 319.024 41.0864C320.15 41.093 321.213 41.321 322.088 41.8845C322.95 42.44 323.687 43.3576 324.112 44.8551ZM289.336 100.36L289.263 99.9447L288.852 99.8527L288.852 99.8526L288.851 99.8524L288.846 99.8513L288.825 99.8466L288.742 99.8275C288.669 99.8104 288.561 99.7847 288.422 99.7507C288.144 99.6827 287.743 99.5817 287.258 99.45C286.286 99.1863 284.977 98.8011 283.622 98.3142C282.264 97.826 280.88 97.2423 279.749 96.5859C278.592 95.9145 277.808 95.2276 277.504 94.5784L277.301 94.1452L276.829 94.2233H276.829L276.829 94.2234L276.826 94.2238L276.815 94.2257L276.77 94.233C276.751 94.2359 276.728 94.2396 276.701 94.2438C276.67 94.2486 276.634 94.2542 276.592 94.2604C276.439 94.2837 276.217 94.316 275.948 94.3519C275.408 94.4238 274.679 94.5095 273.921 94.5655C273.159 94.6219 272.386 94.6469 271.75 94.6029C271.431 94.5809 271.165 94.5427 270.96 94.4897C270.743 94.4336 270.654 94.3759 270.633 94.3567L269.677 93.4906L269.58 94.777L269.58 94.7771L269.58 94.7772L269.58 94.7782L269.58 94.7827L269.578 94.8023L269.571 94.8816C269.566 94.9519 269.556 95.0564 269.543 95.1913C269.518 95.4613 269.477 95.8529 269.419 96.3361C269.302 97.3033 269.114 98.6344 268.828 100.091C268.25 103.04 267.296 106.371 265.814 108.296C264.86 109.536 264.813 111.038 265.258 112.503C265.7 113.959 266.644 115.449 267.797 116.801C268.955 118.158 270.352 119.411 271.746 120.388C273.129 121.358 274.554 122.089 275.767 122.353C277.975 122.833 280.202 123.26 283.148 123.227C286.084 123.193 289.707 122.702 294.732 121.382L294.754 121.378L294.885 121.355C295 121.334 295.164 121.306 295.366 121.272C295.768 121.204 296.314 121.115 296.892 121.032C297.471 120.949 298.075 120.872 298.594 120.826C299.138 120.778 299.517 120.772 299.688 120.8L300.885 120.996L300.359 119.903L299.79 120.177C300.359 119.903 300.358 119.903 300.358 119.903L300.358 119.903L300.358 119.902L300.357 119.9L300.352 119.891L300.336 119.856C300.321 119.826 300.299 119.781 300.271 119.725C300.216 119.611 300.135 119.448 300.034 119.248C299.833 118.849 299.551 118.301 299.23 117.707C298.6 116.542 297.779 115.13 297.107 114.361C296.499 113.666 294.816 111.683 293.151 109.103C291.479 106.512 289.862 103.373 289.336 100.36Z" fill="#663FFF" fill-opacity="0.4" stroke="#987EFF" stroke-width="1.26209"/>
<path d="M227.97 175.229C236.113 172.353 253.726 159.337 260.652 158.066C260.652 158.066 241.947 176.203 228.45 179.908C221.241 181.885 212.029 181.817 201.83 183.903L205.996 177.377C205.996 177.377 219.827 178.104 227.97 175.229Z" fill="#663FFF" fill-opacity="0.4"/>
<path d="M278.569 96.5801C277.807 96.0424 277.22 95.4619 276.931 94.846C276.931 94.846 276.596 94.9015 276.078 94.9709C281.338 93.3895 284.255 87.1094 284.255 87.1094C284.598 91.8662 278.582 96.57 278.569 96.5801Z" fill="#663FFF" fill-opacity="0.4"/>
<path d="M270.208 94.8229C270.208 94.8229 270.106 96.1734 269.816 98.0779C268.39 92.8718 270.259 85.8154 270.259 85.8154C269.881 88.9971 271.767 95.2218 271.771 95.2344C271.061 95.1902 270.481 95.0703 270.208 94.8229Z" fill="#663FFF" fill-opacity="0.4"/>
<path d="M289.199 102.408C289.001 101.762 288.83 101.113 288.718 100.468C288.718 100.468 287.831 100.268 286.555 99.9068C286.588 99.9068 295.115 99.7844 301.161 94.7676C301.161 94.7676 297.606 99.8361 289.199 102.408Z" fill="#663FFF" fill-opacity="0.4"/>
<g opacity="0.52">
<path d="M298.276 120.224C297.318 120.427 296.59 120.518 296.051 120.521C296.736 120.413 297.555 120.296 298.276 120.224Z" fill="#663FFF" fill-opacity="0.4"/>
</g>
<path d="M297.697 116.295C297.697 116.295 314.041 121.751 316.273 128.902C312.43 123.857 306.722 120.64 300.403 120.109L299.732 120.052C299.501 119.584 298.601 117.769 297.697 116.295Z" fill="#663FFF" fill-opacity="0.4"/>
<path d="M290.702 68.2365C290.702 68.2365 265.163 58.4352 262.223 57.5454L286.085 69.4267L290.702 68.2365Z" fill="#663FFF" fill-opacity="0.4"/>
<path d="M288.391 42.1284C287.037 44.0758 285.328 45.9147 283.346 47.3396C283.346 47.3396 285.164 47.4443 288.306 47.1301V47.1364L278.492 48.3808C284.415 46.9546 287.563 43.2365 288.391 42.1284Z" fill="#663FFF" fill-opacity="0.4"/>
<path d="M259.322 43.434C260.796 42.7184 260.053 40.853 259.869 40.4429C260.544 41.4866 260.702 42.5051 260.702 42.5051C260.702 42.5051 262.023 41.97 263.727 41.3314C262.392 41.8261 259.322 43.434 259.322 43.434Z" fill="#663FFF" fill-opacity="0.4"/>
<path d="M316.27 128.902C316.27 128.902 307.917 118.218 293.945 120.933C293.945 120.933 299.883 119.33 302.071 119.374C303.239 119.398 306.791 121.057 309.585 122.748C312.021 124.222 313.814 125.758 313.814 125.758L316.27 128.902Z" fill="#663FFF" fill-opacity="0.4"/>
<path d="M150.163 115.102C160.455 119.774 170.266 129.642 177.834 141.76C185.406 153.886 190.775 168.332 192.134 182.236C192.762 188.668 192.471 194.426 191.397 199.379L200.684 192.725L201.061 192.448C207.301 187.865 210.755 177.953 209.417 164.253C208.238 152.186 203.57 139.607 196.968 129.034C190.36 118.453 181.857 109.947 173.056 105.951C165.645 102.587 159.287 102.995 154.579 106.231L154.026 106.611L154.025 106.61L144.83 113.199C146.558 113.647 148.336 114.272 150.163 115.102ZM150.163 115.102L149.902 115.677M150.163 115.102L149.902 115.677M149.902 115.677C170.183 124.884 188.81 154.71 191.506 182.297C192.159 188.978 191.808 194.904 190.625 199.932L149.902 115.677ZM191.184 200.307L201.437 192.962L191.184 200.307Z" fill="#663FFF" fill-opacity="0.4" stroke="#987EFF" stroke-width="1.26209"/>
<path d="M57.7248 168.601L57.8013 168.542C57.806 168.539 57.811 168.536 57.8165 168.532L57.8187 168.53C57.8393 168.516 57.8666 168.496 57.8946 168.476C57.8952 168.475 57.8957 168.475 57.8963 168.474L128.225 116.859L128.635 116.577C133.998 112.891 141.232 112.432 149.646 116.252C159.635 120.786 169.278 130.436 176.768 142.429C184.253 154.415 189.545 168.676 190.882 182.359C192.4 197.89 188.486 209.156 181.385 214.372L180.921 214.713L180.925 214.719L111.334 265.793L111.327 265.799C111.308 265.813 111.287 265.828 111.257 265.849C111.242 265.86 111.225 265.872 111.206 265.886C111.191 265.896 111.176 265.907 111.161 265.918C111.159 265.92 111.157 265.922 111.154 265.923L110.977 266.051L110.554 266.335C105.207 269.932 98.0264 270.348 89.6864 266.562L89.4255 267.136L89.6864 266.562C79.698 262.027 70.0547 252.378 62.5648 240.384C55.08 228.399 49.7873 214.138 48.4502 200.454L48.4502 200.454C46.9462 185.083 50.7617 173.886 57.7248 168.601Z" fill="#663FFF" fill-opacity="0.4" stroke="#987EFF" stroke-width="1.26209"/>
<path d="M505.582 213.958L505.593 213.977C505.902 214.581 506.226 215.158 506.561 215.71C489.341 224.12 472.411 243.53 464.801 264.176C462.934 263.488 460.961 262.838 458.871 262.266C451.81 260.333 444.917 256.755 439.776 253.647C437.209 252.095 435.086 250.664 433.605 249.622C432.865 249.102 432.286 248.678 431.892 248.385C431.696 248.239 431.545 248.126 431.445 248.049C431.419 248.029 431.396 248.012 431.377 247.997C431.36 247.984 431.346 247.973 431.334 247.964C431.323 247.952 431.309 247.937 431.293 247.92C431.243 247.867 431.168 247.789 431.072 247.689C430.878 247.489 430.595 247.202 430.231 246.849C429.502 246.143 428.45 245.17 427.15 244.1C424.557 241.965 420.952 239.422 416.95 237.852C413.05 236.322 410.689 235.222 409.309 234.51C408.62 234.154 408.178 233.896 407.913 233.73C407.781 233.648 407.693 233.589 407.642 233.552C407.616 233.534 407.599 233.522 407.59 233.515L407.586 233.512L407.586 233.512L407.585 233.512L407.584 233.511L407.583 233.51L407.583 233.51L407.556 233.488L407.522 233.467C401.447 229.724 393.848 227.072 387.475 225.139C385.393 224.508 383.429 223.949 381.691 223.455C380.77 223.193 379.913 222.949 379.136 222.722C378.007 222.393 377.048 222.099 376.291 221.835C375.518 221.564 375.014 221.342 374.757 221.169L374.756 221.169C373.521 220.339 371.866 218.486 370.482 216.773C369.8 215.929 369.199 215.139 368.769 214.56C368.554 214.27 368.381 214.034 368.263 213.87C368.239 213.837 368.218 213.807 368.198 213.78C368.17 213.74 368.146 213.708 368.128 213.682L368.093 213.634L368.085 213.621L368.083 213.619L368.082 213.618L368.082 213.618L367.882 213.333L367.535 213.351L367.534 213.351L367.534 213.351L367.533 213.351L367.522 213.352L367.476 213.354C367.434 213.355 367.37 213.357 367.286 213.358C367.118 213.36 366.87 213.359 366.556 213.348C365.929 213.326 365.042 213.262 364.016 213.096C361.955 212.762 359.372 212.021 357.174 210.413C354.936 208.775 354.058 207.168 354.254 205.631C354.455 204.043 355.828 202.228 358.851 200.269C361.743 198.394 365.442 198.014 369.016 198.25C372.14 198.456 375.087 199.124 377.208 199.606C377.509 199.674 377.793 199.738 378.058 199.797C380.093 200.248 381.567 200.999 382.524 201.629C383.004 201.944 383.354 202.23 383.581 202.432C383.695 202.533 383.778 202.613 383.83 202.666C383.856 202.693 383.875 202.712 383.886 202.724L383.897 202.736L383.897 202.736L383.897 202.736L383.897 202.737L383.898 202.737L383.898 202.738L384.034 202.892L384.236 202.935C390.302 204.25 395.843 204.835 399.868 205.092C401.881 205.22 403.516 205.267 404.649 205.281C405.216 205.288 405.657 205.287 405.958 205.284C406.109 205.283 406.224 205.281 406.302 205.279L406.391 205.278L406.414 205.277L406.42 205.277L406.422 205.277L406.423 205.277C406.423 205.277 406.423 205.277 406.405 204.646L406.423 205.277L406.478 205.275L406.531 205.264C411.172 204.317 413.763 202.645 415.2 201.146C415.916 200.398 416.336 199.703 416.579 199.181C416.7 198.921 416.776 198.704 416.824 198.547C416.847 198.468 416.864 198.404 416.874 198.357C416.876 198.349 416.878 198.341 416.88 198.333C416.883 198.32 416.885 198.309 416.887 198.299L416.891 198.28L416.892 198.273L416.892 198.27L416.893 198.269C416.893 198.268 416.893 198.268 416.271 198.163L416.893 198.268L416.99 197.694L416.425 197.551C413.144 196.721 411.428 195.996 410.403 195.378C409.67 194.936 409.303 194.567 408.915 194.177C408.76 194.021 408.601 193.861 408.414 193.692C408.41 193.686 408.4 193.673 408.384 193.648C408.351 193.597 408.309 193.523 408.256 193.421C408.151 193.217 408.023 192.933 407.872 192.572C407.573 191.852 407.202 190.862 406.786 189.669C405.953 187.284 404.945 184.117 403.961 180.742C401.986 173.964 400.139 166.452 399.969 162.746C399.801 159.083 400.761 156.842 401.711 155.53C402.19 154.869 402.674 154.432 403.031 154.164C403.209 154.03 403.356 153.938 403.453 153.881C403.502 153.853 403.539 153.833 403.561 153.822C403.572 153.817 403.579 153.813 403.583 153.811C403.583 153.811 403.583 153.811 403.584 153.811C403.584 153.811 403.584 153.811 403.584 153.81C403.585 153.81 403.585 153.81 403.585 153.81L403.585 153.81L404.408 153.44L403.773 152.794C401.564 150.546 399.872 147.542 398.727 145.071C398.156 143.841 397.727 142.753 397.44 141.975C397.296 141.585 397.189 141.274 397.117 141.06C397.082 140.954 397.055 140.872 397.038 140.817L397.018 140.756L397.014 140.741L397.013 140.738L397.013 140.737L397.013 140.737L397.012 140.737L396.862 140.245L396.349 140.294C392.545 140.657 389.251 139.663 386.744 138.516C385.49 137.942 384.439 137.333 383.619 136.837C383.455 136.739 383.297 136.642 383.148 136.551C382.931 136.418 382.732 136.296 382.561 136.195C382.285 136.032 382.006 135.876 381.779 135.802C381.544 135.726 381.263 135.699 380.989 135.692C380.705 135.684 380.382 135.698 380.039 135.725C379.353 135.779 378.551 135.892 377.757 136.023C376.252 136.271 374.733 136.595 374.011 136.749C373.97 136.758 373.932 136.766 373.896 136.774C373.676 136.82 373.085 136.833 372.237 136.698C371.411 136.567 370.401 136.305 369.362 135.853C367.287 134.948 365.136 133.299 364.064 130.429C363.539 129.025 363.65 128.006 364.024 127.248C364.41 126.468 365.121 125.87 365.964 125.418C366.804 124.967 367.724 124.688 368.445 124.521C368.804 124.439 369.107 124.386 369.32 124.353C369.426 124.337 369.509 124.326 369.564 124.319C369.585 124.316 369.602 124.314 369.615 124.313C369.635 124.313 369.659 124.312 369.689 124.311C369.758 124.308 369.856 124.301 369.986 124.286C370.244 124.257 370.631 124.196 371.176 124.073C372.265 123.826 373.994 123.324 376.602 122.306L376.602 122.306C379.072 121.341 382.095 121.099 385.292 121.159C387.445 121.199 389.627 121.373 391.744 121.543C392.78 121.625 393.8 121.707 394.795 121.771C397.409 121.94 399.195 121.749 400.74 121.584C400.997 121.557 401.248 121.53 401.494 121.506C403.193 121.339 404.741 121.283 407.16 121.902C407.639 122.024 408.413 122.496 409.456 123.349C410.472 124.181 411.667 125.31 412.974 126.644C415.587 129.309 418.61 132.749 421.484 136.16C424.357 139.569 427.074 142.938 429.073 145.456C430.072 146.715 430.892 147.76 431.462 148.491C431.747 148.856 431.969 149.143 432.12 149.338L432.292 149.561L432.298 149.569C432.332 149.631 432.372 149.682 432.413 149.725C432.546 149.862 432.716 149.927 432.845 149.966C433.123 150.05 433.604 150.118 434.474 150.151C436.238 150.216 439.799 150.136 447.02 149.573C454.148 149.017 458.653 150.161 461.351 151.404C462.701 152.027 463.606 152.677 464.165 153.161C464.445 153.403 464.64 153.603 464.761 153.739C464.821 153.806 464.863 153.858 464.889 153.89C464.901 153.906 464.91 153.917 464.914 153.923L464.916 153.925L464.916 153.926L464.917 153.927L464.918 153.928L464.918 153.928L465.099 154.186L465.418 154.194C467.404 154.241 469.205 154.952 470.526 155.669C471.183 156.026 471.713 156.38 472.077 156.643C472.258 156.775 472.398 156.883 472.491 156.957C472.537 156.995 472.572 157.023 472.594 157.042L472.618 157.062L472.623 157.066L472.623 157.067L472.624 157.067L472.624 157.067L472.624 157.067L472.751 157.178L472.918 157.21C473.778 157.378 475.458 158.123 477.085 159.594C478.696 161.051 480.22 163.188 480.832 166.108L481.45 165.978L480.832 166.108C481.009 166.95 481.543 168.329 482.304 170.047C483.073 171.784 484.098 173.921 485.288 176.305C487.668 181.073 490.719 186.851 493.727 192.431C496.735 198.013 499.703 203.402 501.919 207.395C503.027 209.392 503.947 211.04 504.59 212.189C504.911 212.764 505.163 213.213 505.335 213.52L505.532 213.869L505.582 213.958Z" fill="#663FFF" fill-opacity="0.4" stroke="#987EFF" stroke-width="1.26209"/>
<path d="M419.573 190.743L419.509 187.279L416.843 177.845L413.582 168.489L411.394 162.986L407.763 158.326L402.957 153.449C401.922 154.117 399.052 156.541 399.338 162.777C399.687 170.366 406.823 193.114 407.977 194.151C409.112 195.171 409.65 196.446 415.927 198.075L416.341 197.598L418.383 194.467L419.573 190.743Z" fill="#663FFF" fill-opacity="0.4"/>
<path d="M403.325 153.237C403.325 153.237 410.11 159.621 411.904 163.432C413.697 167.244 419.249 183.106 419.359 184.937C419.469 186.767 422.032 191.4 416.273 198.165L415.41 197.94C415.41 197.94 419.953 192.99 419.007 187.88C417.645 180.521 411.899 164.692 410.896 162.87C409.893 161.047 402.842 153.528 402.842 153.528L403.325 153.237Z" fill="#663FFF" fill-opacity="0.4"/>
<path d="M415.3 174.018C415.3 174.018 406.645 167.879 405.051 167.104C405.051 167.104 413.533 173.132 413.489 174.558C413.445 175.984 412.082 176.611 412.082 176.611C412.082 176.611 415.198 175.135 416.171 176.32C417.144 177.504 415.3 174.018 415.3 174.018Z" fill="#663FFF" fill-opacity="0.4"/>
<path d="M418.144 182.828C418.144 182.828 410.311 186.929 409.203 189.04C409.203 189.04 416.237 184.977 418.483 185.482L418.144 182.828Z" fill="#663FFF" fill-opacity="0.4"/>
<path d="M396.779 141.998C396.779 141.998 395.951 138.702 395.701 135.202L395.779 140.971L396.298 141.198L396.779 141.998Z" fill="#663FFF" fill-opacity="0.4"/>
<path d="M453.965 255.873C453.965 255.873 436.289 250.196 428.633 243.148C420.978 236.103 413.87 236.906 407.93 234.479C409.013 235.11 411.499 236.395 416.721 238.443C424.55 241.514 430.908 248.435 430.908 248.435C430.908 248.435 443.393 258.162 457.045 262.391L453.965 255.873Z" fill="#663FFF" fill-opacity="0.4"/>
<path d="M513.861 203.44L513.388 202.958C509.484 198.987 503.475 197.413 495.752 199.256L513.861 203.44ZM513.861 203.44L513.865 203.444L521.408 211.424C519.678 211.533 517.869 211.801 515.974 212.253M513.861 203.44L495.752 199.256C486.582 201.446 476.855 208.011 468.557 216.918C460.266 225.817 453.456 236.999 450.083 248.339L450.083 248.339C446.251 261.213 447.718 271.347 452.838 276.891L453.145 277.224L460.78 285.3C460.678 280.363 461.47 274.804 463.264 268.773L463.866 268.952L463.264 268.773C467.154 255.703 474.986 242.861 484.498 232.65C494.004 222.447 505.241 214.816 515.974 212.253M515.974 212.253L516.121 212.867L515.974 212.253Z" fill="#663FFF" fill-opacity="0.4" stroke="#987EFF" stroke-width="1.26209"/>
<path d="M594.481 280.625L594.573 280.727C600.256 287.081 601.83 298.511 597.53 312.955L598.135 313.135L597.53 312.955C593.704 325.812 585.981 338.488 576.582 348.577C567.176 358.673 556.145 366.121 545.736 368.607C537.046 370.682 530.251 368.948 525.8 364.512L525.461 364.174L525.302 364.006C525.3 364.004 525.298 364.001 525.296 363.999C525.268 363.968 525.24 363.94 525.219 363.917L525.217 363.915C525.192 363.889 525.175 363.871 525.159 363.854L525.154 363.849L467.961 301.944L467.964 301.939L467.608 301.554C461.78 295.24 460.126 283.726 464.468 269.132C468.295 256.274 476.017 243.598 485.417 233.509C494.822 223.414 505.854 215.965 516.263 213.48C525.03 211.386 531.869 213.17 536.317 217.695L536.673 218.057L594.436 280.577L594.438 280.58C594.457 280.6 594.471 280.615 594.481 280.625Z" fill="#663FFF" fill-opacity="0.4" stroke="#987EFF" stroke-width="1.26209"/>
<defs>
<linearGradient id="paint0_linear_1374_2194" x1="324.812" y1="41.9229" x2="324.812" y2="379.363" gradientUnits="userSpaceOnUse">
<stop stop-color="#663FFF" stop-opacity="0"/>
<stop offset="1" stop-color="#3D2699"/>
</linearGradient>
</defs>
</svg>
