<svg xmlns="http://www.w3.org/2000/svg" width="32" height="32" viewBox="0 0 32 32" fill="none">
  <path d="M9.36535 3.07992C10.3671 3.41796 11.3198 3.88691 12.1987 4.47459C13.4407 4.15668 14.718 3.99719 16 3.99992C17.324 3.99992 18.6014 4.16525 19.7987 4.47325C20.6772 3.88615 21.6295 3.41765 22.6307 3.07992C23.56 2.76392 24.884 2.25192 25.6707 3.12259C26.204 3.71459 26.3374 4.70659 26.432 5.46392C26.5387 6.30925 26.564 7.41059 26.284 8.50392C27.3547 9.88659 28 11.5359 28 13.3333C28 16.0559 26.5254 18.4199 24.3427 20.0573C23.2918 20.8345 22.1269 21.4444 20.8894 21.8653C21.1747 22.5186 21.3334 23.2413 21.3334 23.9999V27.9999C21.3334 28.3535 21.1929 28.6927 20.9428 28.9427C20.6928 29.1928 20.3536 29.3333 20 29.3333H12C11.6464 29.3333 11.3073 29.1928 11.0572 28.9427C10.8072 28.6927 10.6667 28.3535 10.6667 27.9999V26.6786C9.39335 26.8346 8.32535 26.6959 7.41735 26.3106C6.46802 25.9079 5.80669 25.2839 5.30935 24.6866C4.83735 24.1213 4.32269 22.8466 3.57869 22.5986C3.41252 22.5433 3.25888 22.4557 3.12654 22.341C2.99419 22.2263 2.88574 22.0867 2.80737 21.9301C2.64909 21.6137 2.62294 21.2475 2.73469 20.9119C2.84643 20.5763 3.08691 20.2989 3.40322 20.1406C3.71953 19.9823 4.08577 19.9562 4.42135 20.0679C5.30935 20.3639 5.88802 21.0039 6.28402 21.5186C6.92402 22.3453 7.44402 23.4253 8.45735 23.8559C8.87469 24.0333 9.48669 24.1493 10.444 24.0186L10.6667 23.9733C10.6698 23.2477 10.8208 22.5304 11.1107 21.8653C9.87319 21.4444 8.70828 20.8345 7.65735 20.0573C5.47469 18.4199 4.00002 16.0573 4.00002 13.3333C4.00002 11.5386 4.64402 9.89059 5.71202 8.50925C5.43202 7.41592 5.45602 6.31192 5.56269 5.46525L5.56935 5.41459C5.66669 4.63859 5.78002 3.72525 6.32402 3.12259C7.11069 2.25192 8.43602 2.76525 9.36402 3.08125L9.36535 3.07992Z" fill="url(#paint0_linear_65_502)"/>
  <defs>
    <linearGradient id="paint0_linear_65_502" x1="15.3332" y1="2.64014" x2="15.3331" y2="29.3332" gradientUnits="userSpaceOnUse">
      <stop stop-color="white" stop-opacity="0.6"/>
      <stop offset="1" stop-color="white"/>
    </linearGradient>
  </defs>
</svg>