<svg xmlns="http://www.w3.org/2000/svg" width="159" height="160" viewBox="0 0 159 160" fill="none">
  <mask id="mask0_65_232" style="mask-type:alpha" maskUnits="userSpaceOnUse" x="0" y="0" width="159" height="160">
    <rect x="0.374023" y="0.79541" width="158.56" height="158.56" fill="#D9D9D9"/>
  </mask>
  <g mask="url(#mask0_65_232)">
    <g filter="url(#filter0_b_65_232)">
      <path d="M13.5881 126.322V113.109H145.721V126.322H13.5881ZM21.1857 86.352L12.5971 81.397L18.2127 71.487H6.98138V61.577H18.2127L12.5971 51.9973L21.1857 47.0423L26.8014 56.622L32.4171 47.0423L41.0057 51.9973L35.3901 61.577H46.6214V71.487H35.3901L41.0057 81.397L32.4171 86.352L26.8014 76.442L21.1857 86.352ZM74.0391 86.352L65.4504 81.397L71.066 71.487H59.8347V61.577H71.066L65.4504 51.9973L74.0391 47.0423L79.6547 56.622L85.2704 47.0423L93.8591 51.9973L88.2434 61.577H99.4747V71.487H88.2434L93.8591 81.397L85.2704 86.352L79.6547 76.442L74.0391 86.352ZM126.892 86.352L118.304 81.397L123.919 71.487H112.688V61.577H123.919L118.304 51.9973L126.892 47.0423L132.508 56.622L138.124 47.0423L146.712 51.9973L141.097 61.577H152.328V71.487H141.097L146.712 81.397L138.124 86.352L132.508 76.442L126.892 86.352Z" fill="url(#paint0_linear_65_232)"/>
      <path d="M12.4881 126.322V127.422H13.5881H145.721H146.821V126.322V113.109V112.009H145.721H13.5881H12.4881V113.109V126.322ZM20.636 87.3048L21.5962 87.8587L22.1427 86.8943L26.8014 78.6731L31.46 86.8943L32.0065 87.8587L32.9667 87.3048L41.5554 82.3498L42.5009 81.8043L41.9627 80.8547L37.2777 72.587H46.6214H47.7214V71.487V61.577V60.477H46.6214H37.3099L41.9547 52.5536L42.5149 51.598L41.5554 51.0445L32.9667 46.0895L32.0205 45.5436L31.4681 46.486L26.8014 54.4468L22.1347 46.486L21.5822 45.5436L20.636 46.0895L12.0474 51.0445L11.0879 51.598L11.6481 52.5536L16.2928 60.477H6.98138H5.88138V61.577V71.487V72.587H6.98138H16.325L11.64 80.8547L11.1019 81.8043L12.0474 82.3498L20.636 87.3048ZM73.4894 87.3048L74.4496 87.8587L74.9961 86.8943L79.6547 78.6731L84.3134 86.8943L84.8599 87.8587L85.8201 87.3048L94.4088 82.3498L95.3542 81.8043L94.8161 80.8547L90.1311 72.587H99.4747H100.575V71.487V61.577V60.477H99.4747H90.1633L94.808 52.5536L95.3682 51.598L94.4088 51.0445L85.8201 46.0895L84.8739 45.5436L84.3214 46.486L79.6547 54.4468L74.988 46.486L74.4356 45.5436L73.4894 46.0895L64.9007 51.0445L63.9413 51.598L64.5014 52.5536L69.1462 60.477H59.8347H58.7347V61.577V71.487V72.587H59.8347H69.1784L64.4934 80.8547L63.9552 81.8043L64.9007 82.3498L73.4894 87.3048ZM126.343 87.3048L127.303 87.8587L127.849 86.8943L132.508 78.6731L137.167 86.8943L137.713 87.8587L138.673 87.3048L147.262 82.3498L148.208 81.8043L147.669 80.8547L142.984 72.587H152.328H153.428V71.487V61.577V60.477H152.328H143.017L147.661 52.5536L148.222 51.598L147.262 51.0445L138.673 46.0895L137.727 45.5436L137.175 46.486L132.508 54.4468L127.841 46.486L127.289 45.5436L126.343 46.0895L117.754 51.0445L116.795 51.598L117.355 52.5536L121.999 60.477H112.688H111.588V61.577V71.487V72.587H112.688H122.032L117.347 80.8547L116.809 81.8043L117.754 82.3498L126.343 87.3048Z" stroke="url(#paint1_linear_65_232)" stroke-width="2.2"/>
    </g>
  </g>
  <defs>
    <filter id="filter0_b_65_232" x="-95.2186" y="-55.9551" width="349.747" height="284.477" filterUnits="userSpaceOnUse" color-interpolation-filters="sRGB">
      <feFlood flood-opacity="0" result="BackgroundImageFix"/>
      <feGaussianBlur in="BackgroundImageFix" stdDeviation="50"/>
      <feComposite in2="SourceAlpha" operator="in" result="effect1_backgroundBlur_65_232"/>
      <feBlend mode="normal" in="SourceGraphic" in2="effect1_backgroundBlur_65_232" result="shape"/>
    </filter>
    <linearGradient id="paint0_linear_65_232" x1="16.5521" y1="60.2581" x2="42.5054" y2="140.081" gradientUnits="userSpaceOnUse">
      <stop stop-color="white" stop-opacity="0.2"/>
      <stop offset="0.445491" stop-color="white" stop-opacity="0.6"/>
      <stop offset="0.707682" stop-color="white" stop-opacity="0.6"/>
      <stop offset="1" stop-color="white" stop-opacity="0.2"/>
    </linearGradient>
    <linearGradient id="paint1_linear_65_232" x1="136.408" y1="53.5809" x2="102.462" y2="147.924" gradientUnits="userSpaceOnUse">
      <stop stop-color="white" stop-opacity="0.8"/>
      <stop offset="0.371382" stop-color="white" stop-opacity="0.3"/>
      <stop offset="1" stop-color="white" stop-opacity="0"/>
    </linearGradient>
  </defs>
</svg>