<svg width="557" height="568" viewBox="0 0 557 568" fill="none" xmlns="http://www.w3.org/2000/svg">
<path opacity="0.2" d="M272.584 297.761C327.706 297.761 372.391 253.076 372.391 197.954C372.391 142.832 327.706 98.147 272.584 98.147C217.462 98.147 172.777 142.832 172.777 197.954C172.777 253.076 217.462 297.761 272.584 297.761Z" fill="#3FFFD9" fill-opacity="0.4"/>
<path opacity="0.2" d="M277.187 524.435C368.29 524.435 442.144 481.795 442.144 429.197C442.144 376.598 368.29 333.958 277.187 333.958C186.084 333.958 112.23 376.598 112.23 429.197C112.23 481.795 186.084 524.435 277.187 524.435Z" fill="#3FFF7F" fill-opacity="0.2"/>
<path d="M274.725 447.769C273.758 447.748 272.792 447.717 271.828 447.671L271.961 444.814C272.9 444.857 273.841 444.89 274.783 444.909L274.725 447.769ZM280.517 447.748L280.435 444.888C281.377 444.862 282.318 444.824 283.257 444.774L283.41 447.631C282.447 447.681 281.484 447.721 280.517 447.748ZM266.05 447.264C265.086 447.172 264.127 447.067 263.171 446.951L263.516 444.111C264.446 444.225 265.384 444.327 266.324 444.416L266.05 447.264ZM289.186 447.178L288.89 444.333C289.827 444.236 290.763 444.126 291.696 444.005L292.063 446.842C291.106 446.966 290.147 447.078 289.186 447.178ZM257.433 446.098C256.477 445.928 255.526 445.749 254.583 445.555L255.157 442.752C256.076 442.94 257 443.115 257.93 443.279L257.433 446.098ZM297.789 445.946L297.274 443.132C298.201 442.962 299.123 442.779 300.038 442.583L300.635 445.381C299.691 445.581 298.742 445.771 297.789 445.946ZM248.933 444.232C247.992 443.984 247.061 443.721 246.136 443.445L246.954 440.703C247.848 440.97 248.753 441.225 249.663 441.467L248.933 444.232ZM306.272 444.007L305.514 441.249C306.422 441 307.324 440.736 308.216 440.461L309.06 443.195C308.138 443.48 307.208 443.751 306.272 444.007ZM240.619 441.602C239.704 441.261 238.801 440.908 237.909 440.541L238.999 437.895C239.861 438.25 240.733 438.592 241.615 438.92L240.619 441.602ZM314.56 441.3L313.536 438.628C314.415 438.292 315.284 437.941 316.141 437.577L317.261 440.21C316.371 440.587 315.47 440.951 314.56 441.3ZM232.605 438.114C231.73 437.671 230.871 437.214 230.028 436.742L231.425 434.244C232.234 434.697 233.058 435.136 233.896 435.562L232.605 438.114ZM322.537 437.722L321.211 435.188C322.044 434.751 322.864 434.303 323.667 433.84C324.254 433.499 324.828 433.157 325.387 432.809L326.898 435.24C326.311 435.603 325.712 435.963 325.097 436.318C324.259 436.8 323.404 437.268 322.537 437.722ZM225.056 433.648C224.235 433.08 223.445 432.501 222.687 431.913L224.441 429.653C225.157 430.208 225.906 430.758 226.683 431.297L225.056 433.648ZM331.719 431.889L329.961 429.631C330.699 429.057 331.417 428.462 332.099 427.864L333.987 430.014C333.265 430.648 332.502 431.281 331.719 431.889ZM218.26 428.011C217.55 427.296 216.871 426.562 216.247 425.831L218.422 423.972C219 424.648 219.628 425.329 220.288 425.994L218.26 428.011ZM338.156 425.804L335.979 423.948C336.584 423.237 337.155 422.512 337.672 421.794L339.995 423.462C339.433 424.247 338.812 425.035 338.156 425.804ZM212.765 420.991C212.255 420.124 211.787 419.228 211.372 418.33L213.973 417.135C214.345 417.948 214.768 418.756 215.23 419.539L212.765 420.991ZM343.016 418.295L340.416 417.105C340.793 416.281 341.124 415.435 341.4 414.593L344.119 415.486C343.809 416.428 343.438 417.374 343.016 418.295ZM209.49 412.593C209.29 411.602 209.15 410.59 209.077 409.584L211.929 409.372C211.996 410.259 212.119 411.153 212.295 412.028L209.49 412.593ZM345.3 409.545L342.445 409.343C342.481 408.839 342.5 408.336 342.5 407.832C342.499 407.447 342.488 407.059 342.467 406.667L345.324 406.507C345.35 406.948 345.361 407.388 345.362 407.829C345.362 408.402 345.341 408.973 345.3 409.545ZM212.218 404.037L209.404 403.525C209.585 402.54 209.827 401.55 210.127 400.583L212.858 401.431C212.592 402.288 212.378 403.165 212.218 404.037ZM341.504 401.397C341.244 400.558 340.926 399.708 340.557 398.873L343.175 397.719C343.586 398.653 343.944 399.606 344.238 400.549L341.504 401.397ZM215.022 396.482L212.534 395.068C213.015 394.223 213.554 393.373 214.137 392.54L216.481 394.179C215.95 394.939 215.458 395.714 215.022 396.482ZM337.874 394.154C337.359 393.419 336.798 392.69 336.207 391.983L338.401 390.147C339.043 390.914 339.654 391.709 340.217 392.509L337.874 394.154ZM219.992 389.966L217.941 387.972C218.62 387.273 219.338 386.584 220.076 385.924L221.984 388.057C221.295 388.671 220.625 389.314 219.992 389.966ZM332.366 388.033C331.684 387.424 330.969 386.824 330.241 386.249L332.016 384.004C332.786 384.614 333.545 385.251 334.271 385.899L332.366 388.033ZM226.334 384.607L224.684 382.269C225.468 381.716 226.283 381.175 227.126 380.643L228.652 383.061C227.851 383.566 227.078 384.082 226.334 384.607ZM325.693 383.042C325.036 382.628 324.36 382.221 323.667 381.82L323.291 381.604L324.713 379.121L325.098 379.342C325.825 379.762 326.533 380.19 327.22 380.624L325.693 383.042ZM233.514 380.292L232.207 377.745C233.068 377.305 233.94 376.877 234.827 376.464L236.033 379.061C235.18 379.457 234.339 379.867 233.514 380.292ZM318.309 379.048C317.466 378.657 316.609 378.281 315.741 377.916L316.848 375.278C317.749 375.655 318.638 376.047 319.512 376.453L318.309 379.048ZM241.21 376.89L240.199 374.213C241.101 373.872 242.015 373.545 242.939 373.234L243.856 375.942C242.965 376.245 242.083 376.56 241.21 376.89ZM310.482 375.931C309.6 375.631 308.706 375.345 307.804 375.07L308.634 372.334C309.566 372.616 310.49 372.912 311.401 373.221L310.482 375.931ZM249.244 374.305L248.497 371.544C249.427 371.292 250.368 371.053 251.312 370.828L251.974 373.611C251.057 373.829 250.147 374.06 249.244 374.305ZM302.364 373.601C301.453 373.385 300.534 373.179 299.609 372.986L300.193 370.186C301.145 370.384 302.089 370.594 303.024 370.818L302.364 373.601ZM257.496 372.456L256.988 369.642C257.938 369.47 258.892 369.311 259.85 369.166L260.279 371.995C259.345 372.136 258.417 372.289 257.496 372.456ZM294.052 371.987C293.126 371.846 292.192 371.717 291.255 371.598L291.613 368.761C292.574 368.882 293.532 369.013 294.482 369.158L294.052 371.987ZM265.881 371.287L265.595 368.44C266.555 368.344 267.515 368.26 268.48 368.189L268.694 371.041C267.757 371.112 266.816 371.194 265.881 371.287ZM285.633 371.038C284.696 370.968 283.755 370.91 282.813 370.863L282.953 368.006C283.92 368.053 284.883 368.113 285.845 368.185L285.633 371.038ZM274.337 370.76L274.265 367.9C275.231 367.876 276.195 367.863 277.162 367.863V370.726C276.221 370.726 275.279 370.736 274.337 370.76Z" fill="#3FFFD9" fill-opacity="0.4"/>
<path opacity="0.5" d="M343.93 108.923H210.443V406.858H210.522C210.081 417.042 216.531 427.305 229.991 435.076C256.057 450.125 298.317 450.125 324.381 435.077C337.414 427.552 343.93 417.691 343.93 407.829V108.923Z" fill="url(#paint0_linear_1_3689)" fill-opacity="0.4"/>
<path opacity="0.1" d="M277.186 369.927C295.526 369.927 312.099 374.22 324.065 381.129C336.047 388.047 343.297 397.51 343.297 407.83C343.297 418.15 336.047 427.613 324.065 434.531C312.099 441.44 295.526 445.732 277.186 445.732C258.846 445.732 242.273 441.44 230.307 434.531C218.325 427.613 211.074 418.15 211.074 407.83C211.074 397.51 218.324 388.047 230.307 381.129C242.273 374.22 258.846 369.927 277.186 369.927Z" fill="#3FFFD9" fill-opacity="0.4" stroke="#7EFFBE" stroke-width="1.26209"/>
<path d="M277.184 312.208C294.333 312.208 311.448 315.98 324.448 323.484C337.194 330.844 344.066 340.583 344.066 350.852C344.066 361.12 337.195 370.857 324.449 378.216C311.451 385.722 294.337 389.492 277.186 389.492C260.037 389.492 242.921 385.722 229.922 378.216C217.175 370.857 210.304 361.117 210.304 350.849C210.304 340.582 217.175 330.841 229.921 323.482C242.92 315.977 260.034 312.207 277.184 312.208ZM277.183 312.461C260.148 312.461 243.082 316.201 230.058 323.721C217.597 330.915 210.578 340.529 210.578 350.85V350.851C210.58 361.173 217.598 370.785 230.06 377.98C243.084 385.5 260.153 389.241 277.187 389.241C294.22 389.241 311.288 385.499 324.312 377.98C336.773 370.786 343.791 361.174 343.791 350.853C343.791 340.53 336.773 330.919 324.311 323.723C311.286 316.202 294.216 312.461 277.183 312.461Z" fill="#3FFFD9" fill-opacity="0.4" stroke="#7EFFBE" stroke-width="1.26209"/>
<path opacity="0.5" d="M277.186 351.589C259.956 351.589 242.724 347.803 229.606 340.229C216.752 332.808 209.673 322.894 209.673 312.315C209.673 301.736 216.752 291.823 229.605 284.402C255.84 269.255 298.526 269.254 324.764 284.403C337.617 291.825 344.697 301.738 344.697 312.318C344.697 322.897 337.618 332.808 324.765 340.229C311.648 347.803 294.418 351.589 277.186 351.589ZM277.182 274.555C260.229 274.555 243.278 278.281 230.374 285.731C218.015 292.865 211.209 302.307 211.209 312.314C211.21 322.321 218.016 331.761 230.375 338.897C256.187 353.799 298.187 353.799 323.996 338.897C336.355 331.763 343.16 322.322 343.16 312.316C343.16 302.308 336.355 292.869 323.995 285.733C311.089 278.282 294.135 274.555 277.182 274.555Z" fill="#7EFFBE"/>
<path opacity="0.3" d="M277.188 313.054C259.956 313.054 242.726 309.267 229.606 301.692C216.752 294.271 209.674 284.359 209.673 273.78C209.673 263.201 216.751 253.288 229.605 245.866C255.84 230.72 298.526 230.719 324.764 245.868C337.617 253.29 344.697 263.203 344.697 273.783C344.697 284.361 337.618 294.273 324.765 301.694C311.649 309.266 294.418 313.054 277.188 313.054ZM277.182 236.021C260.229 236.021 243.278 239.747 230.374 247.197C218.015 254.331 211.209 263.773 211.209 273.78C211.21 283.787 218.016 293.226 230.375 300.361C256.186 315.265 298.187 315.264 323.996 300.362C336.355 293.228 343.16 283.787 343.16 273.781C343.16 263.773 336.355 254.334 323.995 247.198C311.089 239.747 294.135 236.021 277.182 236.021Z" fill="#7EFFBE"/>
<path opacity="0.1" d="M277.188 274.52C259.956 274.52 242.726 270.733 229.606 263.158C216.752 255.737 209.673 245.824 209.673 235.245C209.673 224.666 216.752 214.754 229.605 207.332C255.84 192.185 298.526 192.185 324.764 207.332C337.617 214.755 344.697 224.667 344.697 235.247C344.697 245.826 337.619 255.738 324.765 263.16C311.649 270.732 294.418 274.52 277.188 274.52ZM277.183 197.487C260.229 197.487 243.278 201.213 230.374 208.663C218.015 215.797 211.21 225.238 211.209 235.245C211.209 245.252 218.016 254.692 230.375 261.828C256.184 276.732 298.187 276.731 323.996 261.829C336.355 254.695 343.16 245.253 343.16 235.249C343.16 225.24 336.355 215.8 323.995 208.664C311.089 201.213 294.135 197.487 277.183 197.487Z" fill="#7EFFBE"/>
<path d="M216.466 339.926C216.466 341.747 214.989 343.224 213.168 343.224C211.347 343.224 209.87 341.747 209.87 339.926C209.87 338.105 211.347 336.628 213.168 336.628C214.989 336.628 216.466 338.105 216.466 339.926Z" fill="#3FFFD9" fill-opacity="0.4"/>
<path d="M316.408 323.114C318.229 323.114 319.706 321.637 319.706 319.816C319.706 317.995 318.229 316.518 316.408 316.518C314.587 316.518 313.11 317.995 313.11 319.816C313.11 321.637 314.587 323.114 316.408 323.114Z" fill="#3FFFD9" fill-opacity="0.4"/>
<path d="M285.567 273.78C285.567 275.601 284.091 277.078 282.27 277.078C280.448 277.078 278.972 275.601 278.972 273.78C278.972 271.959 280.448 270.482 282.27 270.482C284.091 270.482 285.567 271.959 285.567 273.78Z" fill="#3FFFD9" fill-opacity="0.4"/>
<path d="M233.688 246.369C233.688 248.19 232.212 249.667 230.391 249.667C228.569 249.667 227.093 248.19 227.093 246.369C227.093 244.548 228.569 243.071 230.391 243.071C232.212 243.071 233.688 244.548 233.688 246.369Z" fill="#3FFFD9" fill-opacity="0.4"/>
<path d="M312.21 240.349C312.21 242.17 310.733 243.646 308.912 243.646C307.091 243.646 305.614 242.17 305.614 240.349C305.614 238.527 307.091 237.051 308.912 237.051C310.733 237.051 312.21 238.527 312.21 240.349Z" fill="#3FFFD9" fill-opacity="0.4"/>
<path d="M340.134 218.06C340.134 219.881 338.657 221.358 336.836 221.358C335.015 221.358 333.538 219.881 333.538 218.06C333.538 216.239 335.015 214.762 336.836 214.762C338.657 214.762 340.134 216.239 340.134 218.06Z" fill="#3FFFD9" fill-opacity="0.4"/>
<path d="M278.156 197.422C278.156 200.5 275.66 202.995 272.582 202.995C269.504 202.995 267.009 200.5 267.009 197.422C267.009 194.343 269.504 191.848 272.582 191.848C275.66 191.848 278.156 194.343 278.156 197.422Z" fill="#3FFFD9" fill-opacity="0.4"/>
<path d="M239.166 96.8049C241.044 96.7986 242.546 97.4182 243.139 98.6692L243.246 98.9279C243.514 99.6897 243.545 100.733 243.312 101.98C243.08 103.217 242.597 104.606 241.888 106.029C240.47 108.876 238.184 111.792 235.355 113.825L233.922 114.856L235.683 114.968H235.688C235.691 114.968 235.694 114.969 235.699 114.969C235.708 114.969 235.722 114.97 235.739 114.971C235.773 114.973 235.822 114.975 235.887 114.978C236.017 114.982 236.207 114.987 236.455 114.988C236.95 114.992 237.677 114.983 238.611 114.931C240.479 114.827 243.179 114.555 246.529 113.881C249.806 113.222 251.781 113.089 253.544 112.965C255.328 112.84 256.917 112.724 259.365 112.09C261.766 111.469 262.84 111.07 263.598 110.674C263.97 110.48 264.265 110.286 264.563 110.102C264.865 109.915 265.209 109.712 265.729 109.463C266.783 108.959 269.131 108.073 271.399 108.086C272.524 108.093 273.587 108.321 274.462 108.884C275.325 109.44 276.061 110.357 276.486 111.855C277.338 114.859 276.335 117.201 274.941 118.887C273.527 120.596 271.739 121.586 271.193 121.802C270.805 121.956 270.216 122.322 269.559 122.749C268.851 123.21 268.087 123.725 267.173 124.317C265.387 125.473 263.357 126.696 261.612 127.336C259.791 128.005 255.745 129.805 251.336 131.569C246.878 133.352 241.995 135.121 238.34 135.807L236.761 136.104L238.121 136.961L238.123 136.962C238.124 136.963 238.126 136.965 238.129 136.967C238.136 136.971 238.145 136.977 238.158 136.985C238.182 137 238.219 137.024 238.267 137.054C238.363 137.115 238.506 137.204 238.688 137.32C239.053 137.55 239.578 137.883 240.223 138.292C241.513 139.11 243.278 140.232 245.181 141.448C248.991 143.885 253.338 146.693 255.527 148.205C256.466 148.855 257.377 150.299 258.298 152.405C259.206 154.481 260.072 157.07 260.984 159.874C262.795 165.441 264.786 171.86 267.618 176.375C270.394 180.802 272.339 184.446 273.239 187.292C274.148 190.167 273.923 191.986 272.764 193.063C271.374 194.354 270.312 194.895 269.637 195.12C269.3 195.233 269.055 195.268 268.909 195.278C268.835 195.282 268.786 195.281 268.761 195.28C268.753 195.279 268.748 195.279 268.745 195.279L267.422 195.036L268.098 196.215C268.098 196.215 268.099 196.216 268.099 196.217C268.1 196.219 268.102 196.222 268.105 196.227C268.11 196.236 268.119 196.251 268.129 196.271C268.151 196.311 268.184 196.373 268.225 196.454C268.308 196.617 268.425 196.86 268.558 197.166C268.824 197.781 269.15 198.652 269.389 199.672C269.87 201.724 269.986 204.307 268.662 206.653C267.84 208.107 266.112 209.149 263.815 209.883C261.537 210.611 258.821 210.999 256.189 211.235C253.479 211.478 247.21 212.902 241.107 214.55C238.044 215.377 235.005 216.265 232.449 217.098C229.908 217.926 227.801 218.713 226.633 219.342C224.396 220.548 223.078 221.294 221.261 222.008C219.442 222.723 217.112 223.407 212.877 224.453L212.711 224.494L212.589 224.613V224.613H212.588L212.577 224.625C212.568 224.634 212.554 224.646 212.537 224.663C212.501 224.697 212.449 224.748 212.379 224.814C212.24 224.946 212.034 225.142 211.767 225.392C211.232 225.892 210.452 226.612 209.474 227.488C207.517 229.239 204.768 231.613 201.599 234.102C195.237 239.098 187.274 244.484 180.66 246.299C175.965 247.587 170.414 247.996 164.161 248.733C158.173 249.438 151.609 250.441 144.756 252.826C144.706 251.657 144.63 250.464 144.51 249.237C142.127 224.858 127.398 198.752 109.967 186.43C125.699 173.309 145.582 155.037 158.508 136.972C158.547 136.946 158.598 136.913 158.66 136.871C158.818 136.765 159.048 136.61 159.335 136.418C159.91 136.034 160.714 135.499 161.627 134.899C163.457 133.696 165.723 132.234 167.484 131.18V131.179C168.489 130.577 169.054 129.849 169.513 129.068C169.735 128.691 169.942 128.282 170.149 127.895C170.361 127.498 170.586 127.096 170.866 126.68C171.963 125.051 174.003 123.062 179.585 120.879H179.586C181.421 120.162 183.084 119.802 184.555 119.527C185.995 119.257 187.342 119.058 188.407 118.655C192.481 117.114 193.552 115.37 195.711 113.225C195.734 113.216 195.761 113.208 195.789 113.197C195.923 113.147 196.117 113.073 196.351 112.979C196.82 112.79 197.459 112.517 198.139 112.182C198.817 111.847 199.548 111.445 200.193 110.995C200.828 110.552 201.43 110.03 201.799 109.443C202.352 108.563 203.333 107.53 204.588 106.797C205.838 106.068 207.326 105.654 208.922 105.941C210.475 106.219 211.344 107.12 211.84 107.969C212.091 108.398 212.245 108.812 212.335 109.118C212.38 109.271 212.408 109.395 212.425 109.478C212.434 109.519 212.44 109.55 212.443 109.57L212.446 109.589V109.59L212.556 110.394L213.309 110.089L213.313 110.087C213.316 110.086 213.32 110.084 213.326 110.082C213.337 110.078 213.355 110.071 213.377 110.062C213.423 110.043 213.491 110.016 213.579 109.981C213.753 109.911 214.006 109.81 214.319 109.688C214.945 109.442 215.81 109.109 216.763 108.755C218.683 108.043 220.921 107.266 222.314 106.955C223.14 106.771 224.128 106.277 225.149 105.653C226.183 105.019 227.303 104.217 228.4 103.369C230.595 101.673 232.738 99.7639 233.999 98.5744C235.102 97.5336 237.182 96.8116 239.166 96.8049ZM221.955 161.777V161.778C221.955 161.778 221.954 161.78 221.954 161.782C221.953 161.787 221.953 161.793 221.953 161.802C221.951 161.82 221.949 161.846 221.946 161.881C221.94 161.951 221.93 162.056 221.917 162.191C221.892 162.461 221.852 162.853 221.793 163.336C221.677 164.303 221.488 165.634 221.203 167.09C220.624 170.04 219.671 173.371 218.189 175.296C217.235 176.536 217.187 178.038 217.632 179.503C218.075 180.958 219.019 182.448 220.171 183.8C221.329 185.158 222.727 186.411 224.121 187.388C225.504 188.358 226.929 189.088 228.142 189.352C230.35 189.832 232.577 190.26 235.523 190.227C238.457 190.193 242.078 189.701 247.1 188.382C247.107 188.381 247.117 188.38 247.128 188.378C247.158 188.373 247.203 188.365 247.26 188.355C247.374 188.335 247.539 188.306 247.74 188.272C248.142 188.204 248.689 188.115 249.267 188.031C249.846 187.948 250.45 187.871 250.969 187.825C251.513 187.778 251.892 187.772 252.063 187.8L253.259 187.995L252.733 186.903V186.902C252.733 186.901 252.731 186.901 252.731 186.9C252.73 186.898 252.729 186.895 252.727 186.891C252.723 186.883 252.718 186.871 252.71 186.856C252.696 186.825 252.674 186.781 252.646 186.725C252.59 186.611 252.509 186.448 252.409 186.248C252.207 185.849 251.926 185.301 251.605 184.707C250.975 183.542 250.154 182.13 249.482 181.362C248.874 180.666 247.19 178.683 245.525 176.103C243.853 173.512 242.237 170.373 241.71 167.36L241.637 166.945L241.226 166.853L241.225 166.852C241.224 166.852 241.222 166.851 241.22 166.851C241.216 166.85 241.209 166.848 241.2 166.846C241.181 166.842 241.153 166.836 241.117 166.827C241.043 166.81 240.935 166.784 240.796 166.75C240.518 166.682 240.118 166.581 239.632 166.449C238.66 166.186 237.351 165.801 235.997 165.314C234.639 164.825 233.255 164.242 232.124 163.585C230.967 162.914 230.182 162.228 229.878 161.578L229.675 161.145L229.204 161.223L229.201 161.224C229.198 161.224 229.195 161.225 229.19 161.226C229.18 161.227 229.164 161.229 229.144 161.233C229.104 161.239 229.044 161.248 228.967 161.26C228.814 161.283 228.591 161.316 228.322 161.352C227.782 161.424 227.053 161.51 226.295 161.566C225.534 161.622 224.761 161.647 224.125 161.603C223.806 161.581 223.54 161.542 223.334 161.489C223.117 161.433 223.029 161.376 223.007 161.357L222.051 160.49L221.955 161.777Z" fill="#3FFFD9" fill-opacity="0.4" stroke="#7EFFBE" stroke-width="1.26209"/>
<path d="M180.345 242.229C188.488 239.352 206.1 226.337 213.027 225.066C213.027 225.066 194.321 243.203 180.824 246.907C173.615 248.885 164.404 248.817 154.205 250.903L158.371 244.377C158.371 244.377 172.202 245.104 180.345 242.229Z" fill="#3FFFD9" fill-opacity="0.4"/>
<path d="M230.944 163.58C230.182 163.042 229.595 162.461 229.306 161.845C229.306 161.845 228.97 161.901 228.453 161.97C233.713 160.389 236.63 154.109 236.63 154.109C236.973 158.866 230.957 163.569 230.944 163.58Z" fill="#3FFFD9" fill-opacity="0.4"/>
<path d="M222.583 161.823C222.583 161.823 222.48 163.173 222.19 165.078C220.764 159.872 222.633 152.815 222.633 152.815C222.256 155.997 224.141 162.222 224.145 162.234C223.436 162.19 222.855 162.07 222.583 161.823Z" fill="#3FFFD9" fill-opacity="0.4"/>
<path d="M241.573 169.408C241.375 168.762 241.205 168.113 241.092 167.468C241.092 167.468 240.205 167.268 238.929 166.907C238.962 166.907 247.49 166.784 253.535 161.767C253.535 161.767 249.98 166.836 241.573 169.408Z" fill="#3FFFD9" fill-opacity="0.4"/>
<g opacity="0.52">
<path d="M250.65 187.224C249.692 187.427 248.964 187.518 248.425 187.521C249.111 187.413 249.93 187.295 250.65 187.224Z" fill="#3FFFD9" fill-opacity="0.4"/>
</g>
<path d="M250.072 183.295C250.072 183.295 266.416 188.751 268.647 195.902C264.804 190.857 259.097 187.64 252.778 187.109L252.106 187.052C251.875 186.584 250.975 184.769 250.072 183.295Z" fill="#3FFFD9" fill-opacity="0.4"/>
<path d="M243.076 135.236C243.076 135.236 217.538 125.435 214.597 124.545L238.459 136.426L243.076 135.236Z" fill="#3FFFD9" fill-opacity="0.4"/>
<path d="M240.765 109.128C239.411 111.075 237.702 112.914 235.721 114.339C235.721 114.339 237.538 114.444 240.681 114.13V114.136L230.867 115.38C236.79 113.954 239.937 110.236 240.765 109.128Z" fill="#3FFFD9" fill-opacity="0.4"/>
<path d="M211.697 110.434C213.171 109.718 212.428 107.853 212.243 107.443C212.918 108.486 213.076 109.505 213.076 109.505C213.076 109.505 214.398 108.97 216.101 108.331C214.766 108.826 211.697 110.434 211.697 110.434Z" fill="#3FFFD9" fill-opacity="0.4"/>
<path d="M268.645 195.901C268.645 195.901 260.291 185.218 246.32 187.933C246.32 187.933 252.258 186.33 254.445 186.374C255.614 186.398 259.165 188.056 261.96 189.748C264.395 191.222 266.189 192.758 266.189 192.758L268.645 195.901Z" fill="#3FFFD9" fill-opacity="0.4"/>
<path d="M106.954 173.231C111.662 169.995 118.02 169.587 125.43 172.951C134.231 176.947 142.735 185.453 149.342 196.034C155.945 206.607 160.613 219.186 161.792 231.253C163.13 244.952 159.675 254.865 153.436 259.448L153.07 259.715L143.767 266.381C144.841 261.427 145.137 255.669 144.508 249.235C143.15 235.332 137.781 220.886 130.208 208.76C122.641 196.641 112.83 186.774 102.538 182.101C100.71 181.271 98.9302 180.648 97.2017 180.2L106.399 173.61L106.4 173.611L106.954 173.231Z" fill="#3FFFD9" fill-opacity="0.4" stroke="#7EFFBE" stroke-width="1.26209"/>
<path d="M81.0093 183.577C86.3725 179.891 93.607 179.432 102.021 183.252C112.009 187.786 121.652 197.436 129.142 209.43C136.627 221.415 141.92 235.676 143.257 249.359C144.775 264.89 140.861 276.156 133.759 281.372L133.295 281.713L133.298 281.719L63.7085 332.793L63.7017 332.799C63.6827 332.813 63.6616 332.827 63.6313 332.849L63.5415 332.914L63.3491 333.051L62.9282 333.335C57.5808 336.932 50.4009 337.348 42.061 333.561C32.0727 329.027 22.4289 319.377 14.939 307.384C7.45426 295.398 2.16182 281.137 0.824707 267.454C-0.679218 252.083 3.13614 240.886 10.0991 235.601L10.1646 235.55C10.1722 235.544 10.1811 235.539 10.1909 235.532C10.2122 235.517 10.2405 235.495 10.27 235.474L80.5952 183.861L81.0093 183.577Z" fill="#3FFFD9" fill-opacity="0.4" stroke="#7EFFBE" stroke-width="1.26209"/>
<path d="M337.667 188.158C340.872 188.218 344.142 188.575 347.169 188.771C350.219 188.967 352.141 188.676 353.869 188.506C355.568 188.339 357.116 188.282 359.534 188.901C360.013 189.024 360.788 189.495 361.831 190.349C362.847 191.18 364.042 192.31 365.349 193.644C367.962 196.308 370.985 199.749 373.859 203.159C376.731 206.568 379.449 209.937 381.448 212.455C382.447 213.714 383.267 214.76 383.836 215.49C384.121 215.856 384.344 216.143 384.495 216.338C384.57 216.435 384.628 216.51 384.667 216.561C384.67 216.565 384.673 216.569 384.676 216.573C384.709 216.633 384.748 216.683 384.788 216.724C384.921 216.861 385.09 216.927 385.219 216.966C385.497 217.05 385.978 217.118 386.849 217.15C388.613 217.216 392.173 217.135 399.394 216.572C406.522 216.016 411.027 217.161 413.725 218.404C415.075 219.027 415.98 219.677 416.54 220.16C416.82 220.402 417.014 220.603 417.135 220.738C417.196 220.806 417.238 220.858 417.263 220.89C417.276 220.906 417.284 220.917 417.289 220.923L417.291 220.925L417.473 221.186L417.792 221.193C419.779 221.241 421.58 221.952 422.901 222.669C423.558 223.026 424.088 223.379 424.452 223.643C424.633 223.774 424.773 223.883 424.866 223.957C424.912 223.994 424.946 224.022 424.968 224.041C424.979 224.05 424.988 224.057 424.993 224.062L424.998 224.066L425.125 224.178L425.292 224.21C426.153 224.378 427.833 225.123 429.459 226.594C431.071 228.051 432.594 230.188 433.207 233.107C433.383 233.95 433.918 235.329 434.678 237.047C435.447 238.784 436.473 240.92 437.663 243.304C440.043 248.072 443.093 253.85 446.101 259.431C449.109 265.012 452.078 270.401 454.293 274.395C455.401 276.391 456.321 278.04 456.964 279.188C457.286 279.763 457.538 280.212 457.709 280.519C457.795 280.672 457.861 280.789 457.906 280.868C457.928 280.908 457.945 280.938 457.957 280.958C457.958 280.961 457.959 280.963 457.96 280.966H457.961C457.964 280.971 457.967 280.977 457.97 280.982C457.971 280.984 457.972 280.985 457.972 280.986L457.973 280.987C458.281 281.587 458.603 282.161 458.936 282.711C441.716 291.12 424.786 310.53 417.176 331.176C415.309 330.488 413.335 329.838 411.246 329.266C404.184 327.333 397.292 323.755 392.151 320.646C389.584 319.094 387.46 317.664 385.979 316.622C385.239 316.101 384.66 315.677 384.267 315.385C384.07 315.238 383.919 315.126 383.819 315.049C383.771 315.012 383.735 314.984 383.709 314.965C383.698 314.953 383.684 314.938 383.667 314.92C383.617 314.866 383.542 314.788 383.446 314.688C383.252 314.489 382.969 314.202 382.605 313.849C381.877 313.142 380.824 312.169 379.525 311.1C376.932 308.965 373.326 306.421 369.325 304.852C365.425 303.322 363.063 302.222 361.684 301.51C360.995 301.154 360.552 300.896 360.288 300.73C360.155 300.648 360.068 300.588 360.016 300.552C359.99 300.534 359.973 300.521 359.964 300.515L359.958 300.509L359.93 300.487L359.897 300.467L359.323 300.119C353.348 296.558 346.023 294.011 339.849 292.139C336.665 291.173 333.754 290.377 331.51 289.722C330.382 289.392 329.422 289.099 328.666 288.834C327.988 288.597 327.518 288.397 327.239 288.235L327.131 288.169L326.894 288.001C325.689 287.107 324.154 285.379 322.856 283.772C322.174 282.928 321.573 282.139 321.143 281.56C320.928 281.27 320.756 281.034 320.638 280.87C320.579 280.788 320.533 280.725 320.502 280.682C320.487 280.66 320.476 280.644 320.468 280.633C320.464 280.627 320.461 280.624 320.459 280.621C320.459 280.62 320.458 280.619 320.458 280.618L320.457 280.617L320.256 280.333L319.909 280.351H319.907C319.905 280.351 319.901 280.351 319.897 280.352C319.887 280.352 319.871 280.353 319.85 280.354C319.808 280.355 319.744 280.356 319.661 280.357C319.493 280.359 319.244 280.359 318.93 280.348C318.303 280.325 317.417 280.261 316.391 280.095C314.33 279.761 311.746 279.02 309.548 277.412C307.311 275.775 306.433 274.168 306.628 272.631C306.83 271.042 308.202 269.227 311.225 267.268C314.117 265.393 317.816 265.013 321.39 265.249C324.957 265.484 328.293 266.323 330.433 266.797C332.468 267.248 333.941 267.999 334.899 268.629C335.378 268.944 335.728 269.229 335.956 269.432C336.069 269.533 336.152 269.613 336.205 269.666C336.231 269.692 336.249 269.712 336.26 269.724C336.265 269.729 336.269 269.733 336.271 269.735L336.409 269.891L336.611 269.935C342.676 271.249 348.217 271.834 352.242 272.091C354.255 272.219 355.89 272.266 357.024 272.28C357.59 272.287 358.032 272.286 358.333 272.283C358.483 272.282 358.598 272.281 358.676 272.279C358.715 272.279 358.745 272.278 358.765 272.277C358.775 272.277 358.783 272.277 358.789 272.276H358.797L358.852 272.274L358.906 272.264C363.546 271.316 366.137 269.645 367.574 268.146C368.29 267.398 368.71 266.703 368.953 266.181C369.074 265.92 369.15 265.703 369.198 265.546C369.221 265.467 369.238 265.403 369.249 265.356C369.254 265.333 369.258 265.314 369.261 265.299C369.263 265.291 369.264 265.285 369.265 265.279C369.266 265.277 369.266 265.274 369.266 265.272L369.267 265.27V265.269C369.267 265.268 369.267 265.267 368.645 265.162L369.267 265.268L369.365 264.693L368.799 264.551C365.519 263.721 363.803 262.996 362.778 262.378C361.743 261.754 361.437 261.275 360.775 260.68V260.679L360.792 260.694C360.789 260.691 360.777 260.677 360.758 260.647C360.726 260.597 360.683 260.522 360.63 260.42C360.526 260.216 360.397 259.932 360.247 259.571C359.947 258.851 359.577 257.861 359.161 256.668C358.328 254.284 357.32 251.117 356.336 247.742C354.361 240.964 352.514 233.453 352.343 229.746C352.175 226.083 353.136 223.841 354.085 222.529C354.564 221.869 355.048 221.431 355.405 221.163C355.583 221.029 355.73 220.937 355.828 220.881C355.876 220.853 355.913 220.833 355.935 220.821C355.945 220.816 355.952 220.812 355.956 220.811L355.957 220.812L356.782 220.439L356.148 219.794C353.939 217.545 352.246 214.541 351.101 212.07C350.531 210.84 350.101 209.752 349.814 208.974C349.671 208.585 349.563 208.273 349.492 208.06C349.456 207.953 349.43 207.871 349.413 207.816C349.404 207.789 349.397 207.768 349.393 207.755L349.387 207.737V207.736L349.236 207.244L348.724 207.293C344.92 207.656 341.625 206.663 339.118 205.516C337.865 204.942 336.813 204.332 335.994 203.837C335.592 203.594 335.223 203.365 334.935 203.194C334.66 203.032 334.38 202.875 334.154 202.802C333.918 202.725 333.637 202.699 333.364 202.691C333.08 202.684 332.756 202.697 332.414 202.725C331.728 202.779 330.926 202.891 330.131 203.022C329.336 203.154 328.537 203.306 327.854 203.443L326.27 203.773C326.05 203.82 325.458 203.832 324.611 203.697C323.785 203.566 322.775 203.305 321.737 202.853C319.662 201.948 317.51 200.299 316.438 197.429C315.914 196.025 316.024 195.006 316.399 194.248C316.784 193.468 317.495 192.87 318.338 192.417C319.178 191.966 320.098 191.688 320.82 191.521C321.178 191.439 321.482 191.385 321.695 191.353C321.801 191.336 321.884 191.325 321.939 191.318C321.963 191.315 321.981 191.313 321.995 191.312C322.013 191.311 322.036 191.312 322.063 191.311C322.133 191.307 322.231 191.3 322.36 191.285C322.619 191.256 323.006 191.196 323.551 191.072C324.64 190.825 326.369 190.323 328.976 189.306C331.446 188.341 334.469 188.098 337.667 188.158Z" fill="#3FFFD9" fill-opacity="0.4" stroke="#7EFFBE" stroke-width="1.26209"/>
<path d="M371.948 257.742L371.884 254.279L369.218 244.845L365.957 235.489L363.768 229.985L360.137 225.325L355.331 220.449C354.296 221.116 351.426 223.541 351.713 229.777C352.061 237.366 359.197 260.114 360.352 261.151C361.486 262.171 362.024 263.445 368.302 265.075L368.716 264.598L370.758 261.467L371.948 257.742Z" fill="#3FFFD9" fill-opacity="0.4"/>
<path d="M355.7 220.237C355.7 220.237 362.485 226.62 364.278 230.432C366.072 234.243 371.623 250.105 371.733 251.937C371.843 253.767 374.406 258.4 368.647 265.165L367.784 264.94C367.784 264.94 372.328 259.99 371.381 254.88C370.019 247.521 364.273 231.691 363.271 229.869C362.268 228.047 355.216 220.527 355.216 220.527L355.7 220.237Z" fill="#3FFFD9" fill-opacity="0.4"/>
<path d="M367.675 241.017C367.675 241.017 359.019 234.878 357.425 234.104C357.425 234.104 365.908 240.131 365.864 241.557C365.819 242.984 364.456 243.611 364.456 243.611C364.456 243.611 367.572 242.134 368.546 243.319C369.519 244.503 367.675 241.017 367.675 241.017Z" fill="#3FFFD9" fill-opacity="0.4"/>
<path d="M370.518 249.828C370.518 249.828 362.686 253.928 361.578 256.04C361.578 256.04 368.611 251.977 370.858 252.482L370.518 249.828Z" fill="#3FFFD9" fill-opacity="0.4"/>
<path d="M349.154 208.998C349.154 208.998 348.326 205.701 348.076 202.202L348.154 207.971L348.673 208.198L349.154 208.998Z" fill="#3FFFD9" fill-opacity="0.4"/>
<path d="M406.34 322.872C406.34 322.872 388.663 317.195 381.007 310.148C373.353 303.103 366.245 303.906 360.304 301.479C361.387 302.11 363.873 303.394 369.096 305.443C376.925 308.513 383.283 315.435 383.283 315.435C383.283 315.435 395.768 325.162 409.419 329.391L406.34 322.872Z" fill="#3FFFD9" fill-opacity="0.4"/>
<path d="M448.126 266.255C455.849 264.412 461.858 265.986 465.762 269.958L466.206 270.408L473.784 278.425C472.054 278.534 470.244 278.8 468.349 279.253C457.616 281.816 446.378 289.447 436.873 299.65C427.36 309.86 419.528 322.703 415.639 335.773C413.845 341.806 413.054 347.365 413.157 352.302L405.497 344.2L405.212 343.891C400.253 338.52 398.722 328.842 402.114 316.538L402.458 315.338C405.83 303.999 412.641 292.817 420.932 283.917C429.23 275.011 438.956 268.445 448.126 266.255Z" fill="#3FFFD9" fill-opacity="0.4" stroke="#7EFFBE" stroke-width="1.26209"/>
<path d="M468.637 280.479C477.405 278.386 484.244 280.169 488.692 284.695L489.065 285.074L546.81 347.577L546.813 347.58C546.827 347.594 546.837 347.606 546.846 347.615L546.947 347.727C552.63 354.081 554.204 365.511 549.905 379.955C546.078 392.812 538.356 405.488 528.957 415.577C519.551 425.672 508.519 433.121 498.11 435.606C489.42 437.681 482.625 435.947 478.174 431.511L477.832 431.168L477.667 430.995C477.639 430.964 477.612 430.936 477.591 430.915C477.566 430.889 477.549 430.871 477.534 430.854L477.529 430.848L420.335 368.944L420.339 368.939L419.983 368.553C414.155 362.24 412.5 350.726 416.842 336.131C420.669 323.274 428.392 310.598 437.792 300.509C447.197 290.413 458.228 282.964 468.637 280.479Z" fill="#3FFFD9" fill-opacity="0.4" stroke="#7EFFBE" stroke-width="1.26209"/>
<defs>
<linearGradient id="paint0_linear_1_3689" x1="277.186" y1="108.923" x2="277.186" y2="446.363" gradientUnits="userSpaceOnUse">
<stop stop-color="#3FFF6C" stop-opacity="0"/>
<stop offset="1" stop-color="#26992C"/>
</linearGradient>
</defs>
</svg>
