<svg xmlns="http://www.w3.org/2000/svg" width="159" height="159" viewBox="0 0 159 159" fill="none">
  <g filter="url(#filter0_b_65_215)">
    <mask id="mask0_65_215" style="mask-type:alpha" maskUnits="userSpaceOnUse" x="-3" y="-3" width="164" height="164">
      <rect x="-1.06952" y="-1.06946" width="160.773" height="160.773" fill="#D9D9D9" stroke="url(#paint0_linear_65_215)" stroke-width="2.21083"/>
    </mask>
    <g mask="url(#mask0_65_215)">
      <path d="M79.988 88.3488L79.3231 87.8411L78.6539 88.343L62.8792 100.174L68.8115 80.9648L69.0336 80.2456L68.4458 79.7754L52.738 67.2091H72.0497H72.8539L73.1014 66.444L79.3171 47.2318L85.5328 66.444L85.7804 67.2091H86.5846H105.851L89.8657 79.7694L89.2682 80.2388L89.4924 80.9648L95.4097 100.125L79.988 88.3488ZM79.0472 146.457L79.3171 146.525L79.587 146.457C95.163 142.535 108.012 133.592 118.118 119.69C128.218 105.795 133.277 90.345 133.277 73.3711V33.0699V32.3038L132.559 32.0348L79.7053 12.2145L79.3171 12.069L78.929 12.2145L26.0749 32.0348L25.3576 32.3038V33.0699V73.3711C25.3576 90.345 30.416 105.795 40.5167 119.69C50.622 133.592 63.4712 142.535 79.0472 146.457Z" fill="url(#paint1_linear_65_215)" stroke="url(#paint2_linear_65_215)" stroke-width="2.21083"/>
    </g>
  </g>
  <defs>
    <filter id="filter0_b_65_215" x="-39.1728" y="-52.5365" width="236.98" height="263.626" filterUnits="userSpaceOnUse" color-interpolation-filters="sRGB">
      <feFlood flood-opacity="0" result="BackgroundImageFix"/>
      <feGaussianBlur in="BackgroundImageFix" stdDeviation="31.7125"/>
      <feComposite in2="SourceAlpha" operator="in" result="effect1_backgroundBlur_65_215"/>
      <feBlend mode="normal" in="SourceGraphic" in2="effect1_backgroundBlur_65_215" result="shape"/>
    </filter>
    <linearGradient id="paint0_linear_65_215" x1="79.3171" y1="0.0359497" x2="79.3171" y2="158.598" gradientUnits="userSpaceOnUse">
      <stop stop-color="white"/>
      <stop offset="1" stop-color="#999999"/>
    </linearGradient>
    <linearGradient id="paint1_linear_65_215" x1="33.4236" y1="35.2762" x2="103.903" y2="129.867" gradientUnits="userSpaceOnUse">
      <stop stop-color="white" stop-opacity="0.2"/>
      <stop offset="0.445491" stop-color="white" stop-opacity="0.6"/>
      <stop offset="0.707682" stop-color="white" stop-opacity="0.6"/>
      <stop offset="1" stop-color="white" stop-opacity="0.2"/>
    </linearGradient>
    <linearGradient id="paint2_linear_65_215" x1="120.593" y1="24.1474" x2="33.4209" y2="129.866" gradientUnits="userSpaceOnUse">
      <stop stop-color="white"/>
      <stop offset="0.371382" stop-color="white" stop-opacity="0.3"/>
      <stop offset="1" stop-color="white" stop-opacity="0"/>
    </linearGradient>
  </defs>
</svg>